<?xml version="1.0" encoding="UTF-8" standalone="no"?>
<!DOCTYPE svg PUBLIC "-//W3C//DTD SVG 1.1//EN"
 "http://www.w3.org/Graphics/SVG/1.1/DTD/svg11.dtd">
<!-- Generated by graphviz version 2.40.1 (20161225.0304)
 -->
<!-- Title: psychoactive_class Pages: 1 -->
<svg width="750pt" height="892pt"
 viewBox="0.00 0.00 749.50 892.00" xmlns="http://www.w3.org/2000/svg" xmlns:xlink="http://www.w3.org/1999/xlink">
<g id="graph0" class="graph" transform="scale(1 1) rotate(0) translate(4 888)">
<title>psychoactive_class</title>
<polygon fill="#ffffff" stroke="transparent" points="-4,4 -4,-888 745.5,-888 745.5,4 -4,4"/>
<!-- psychoactive_class -->
<g id="node1" class="node">
<title>psychoactive_class</title>
<polygon fill="#efefef" stroke="transparent" points="46.5,-802.5 46.5,-837.5 287.5,-837.5 287.5,-802.5 46.5,-802.5"/>
<polygon fill="none" stroke="#000000" points="46.5,-802.5 46.5,-837.5 287.5,-837.5 287.5,-802.5 46.5,-802.5"/>
<text text-anchor="start" x="53.3175" y="-815.3" font-family="Arial Bold" font-size="18.00" fill="#000000">psychoactive_class</text>
<text text-anchor="start" x="208.3515" y="-815.3" font-family="Arial" font-size="14.00" fill="#000000">    </text>
<text text-anchor="start" x="242.5563" y="-815.3" font-family="Arial" font-size="14.00" fill="#666666">[table]</text>
<polygon fill="none" stroke="#000000" points="46.5,-772.5 46.5,-802.5 287.5,-802.5 287.5,-772.5 46.5,-772.5"/>
<text text-anchor="start" x="53.5" y="-783.9" font-family="Arial" font-size="14.00" fill="#000000">id </text>
<text text-anchor="start" x="68.2798" y="-783.9" font-family="Arial" font-size="14.00" fill="#666666">[TEXT]</text>
<polygon fill="none" stroke="#000000" points="46.5,-742.5 46.5,-772.5 287.5,-772.5 287.5,-742.5 46.5,-742.5"/>
<text text-anchor="start" x="53.5" y="-753.9" font-family="Arial" font-size="14.00" fill="#000000">name </text>
<text text-anchor="start" x="92.399" y="-753.9" font-family="Arial" font-size="14.00" fill="#666666">[TEXT]</text>
<polygon fill="none" stroke="#000000" points="46.5,-712.5 46.5,-742.5 287.5,-742.5 287.5,-712.5 46.5,-712.5"/>
<text text-anchor="start" x="53.5" y="-723.9" font-family="Arial" font-size="14.00" fill="#000000">summary </text>
<text text-anchor="start" x="114.9376" y="-723.9" font-family="Arial" font-size="14.00" fill="#666666">[TEXT]</text>
<polygon fill="none" stroke="#000000" points="46.5,-682.5 46.5,-712.5 287.5,-712.5 287.5,-682.5 46.5,-682.5"/>
<text text-anchor="start" x="53.5" y="-693.9" font-family="Arial" font-size="14.00" fill="#000000">description </text>
<text text-anchor="start" x="125.068" y="-693.9" font-family="Arial" font-size="14.00" fill="#666666">[TEXT]</text>
<polygon fill="none" stroke="#000000" points="46.5,-652.5 46.5,-682.5 287.5,-682.5 287.5,-652.5 46.5,-652.5"/>
<text text-anchor="start" x="53.5" y="-663.9" font-family="Arial" font-size="14.00" fill="#000000">substanceId </text>
<text text-anchor="start" x="132.8674" y="-663.9" font-family="Arial" font-size="14.00" fill="#666666">[TEXT]</text>
<polygon fill="none" stroke="#000000" stroke-width="3" points="44.5,-651.5 44.5,-839.5 288.5,-839.5 288.5,-651.5 44.5,-651.5"/>
</g>
<!-- substance -->
<g id="node2" class="node">
<title>substance</title>
<polygon fill="#efefef" stroke="transparent" points="61.5,-492.5 61.5,-527.5 273.5,-527.5 273.5,-492.5 61.5,-492.5"/>
<polygon fill="none" stroke="#000000" points="61.5,-492.5 61.5,-527.5 273.5,-527.5 273.5,-492.5 61.5,-492.5"/>
<text text-anchor="start" x="90.3179" y="-505.3" font-family="Arial Bold" font-size="18.00" fill="#000000">substance</text>
<text text-anchor="start" x="172.3511" y="-505.3" font-family="Arial" font-size="14.00" fill="#000000">    </text>
<text text-anchor="start" x="206.5559" y="-505.3" font-family="Arial" font-size="14.00" fill="#666666">[table]</text>
<polygon fill="none" stroke="#000000" points="61.5,-462.5 61.5,-492.5 273.5,-492.5 273.5,-462.5 61.5,-462.5"/>
<text text-anchor="start" x="68.5" y="-473.9" font-family="Arial" font-size="14.00" fill="#000000">id    </text>
<text text-anchor="start" x="113.594" y="-473.9" font-family="Arial" font-size="14.00" fill="#666666">[TEXT]</text>
<polygon fill="none" stroke="#000000" points="61.5,-432.5 61.5,-462.5 273.5,-462.5 273.5,-432.5 61.5,-432.5"/>
<text text-anchor="start" x="68.5" y="-443.9" font-family="Arial" font-size="14.00" fill="#000000">name    </text>
<text text-anchor="start" x="137.7132" y="-443.9" font-family="Arial" font-size="14.00" fill="#666666">[TEXT]</text>
<polygon fill="none" stroke="#000000" points="61.5,-402.5 61.5,-432.5 273.5,-432.5 273.5,-402.5 61.5,-402.5"/>
<text text-anchor="start" x="68.5" y="-413.9" font-family="Arial" font-size="14.00" fill="#000000">common_names    </text>
<text text-anchor="start" x="206.1648" y="-413.9" font-family="Arial" font-size="14.00" fill="#666666">[TEXT]</text>
<polygon fill="none" stroke="#000000" points="61.5,-372.5 61.5,-402.5 273.5,-402.5 273.5,-372.5 61.5,-372.5"/>
<text text-anchor="start" x="68.5" y="-383.9" font-family="Arial" font-size="14.00" fill="#000000">brand_names    </text>
<text text-anchor="start" x="188.2868" y="-383.9" font-family="Arial" font-size="14.00" fill="#666666">[TEXT]</text>
<polygon fill="none" stroke="#000000" points="61.5,-342.5 61.5,-372.5 273.5,-372.5 273.5,-342.5 61.5,-342.5"/>
<text text-anchor="start" x="68.5" y="-353.9" font-family="Arial" font-size="14.00" fill="#000000">substitutive_name    </text>
<text text-anchor="start" x="215.5112" y="-353.9" font-family="Arial" font-size="14.00" fill="#666666">[TEXT]</text>
<polygon fill="none" stroke="#000000" points="61.5,-312.5 61.5,-342.5 273.5,-342.5 273.5,-312.5 61.5,-312.5"/>
<text text-anchor="start" x="68.5" y="-323.9" font-family="Arial" font-size="14.00" fill="#000000">systematic_name    </text>
<text text-anchor="start" x="211.6094" y="-323.9" font-family="Arial" font-size="14.00" fill="#666666">[TEXT]</text>
<polygon fill="none" stroke="#000000" points="61.5,-282.5 61.5,-312.5 273.5,-312.5 273.5,-282.5 61.5,-282.5"/>
<text text-anchor="start" x="68.5" y="-293.9" font-family="Arial" font-size="14.00" fill="#000000">pubchem_cid    </text>
<text text-anchor="start" x="185.9502" y="-293.9" font-family="Arial" font-size="14.00" fill="#666666">[INTEGER]</text>
<polygon fill="none" stroke="#000000" points="61.5,-252.5 61.5,-282.5 273.5,-282.5 273.5,-252.5 61.5,-252.5"/>
<text text-anchor="start" x="68.5" y="-263.9" font-family="Arial" font-size="14.00" fill="#000000">unii    </text>
<text text-anchor="start" x="124.4832" y="-263.9" font-family="Arial" font-size="14.00" fill="#666666">[TEXT]</text>
<polygon fill="none" stroke="#000000" points="61.5,-222.5 61.5,-252.5 273.5,-252.5 273.5,-222.5 61.5,-222.5"/>
<text text-anchor="start" x="68.5" y="-233.9" font-family="Arial" font-size="14.00" fill="#000000">cas_number    </text>
<text text-anchor="start" x="179.7216" y="-233.9" font-family="Arial" font-size="14.00" fill="#666666">[TEXT]</text>
<polygon fill="none" stroke="#000000" points="61.5,-192.5 61.5,-222.5 273.5,-222.5 273.5,-192.5 61.5,-192.5"/>
<text text-anchor="start" x="68.5" y="-203.9" font-family="Arial" font-size="14.00" fill="#000000">inchi_key    </text>
<text text-anchor="start" x="161.0484" y="-203.9" font-family="Arial" font-size="14.00" fill="#666666">[TEXT]</text>
<polygon fill="none" stroke="#000000" points="61.5,-162.5 61.5,-192.5 273.5,-192.5 273.5,-162.5 61.5,-162.5"/>
<text text-anchor="start" x="68.5" y="-173.9" font-family="Arial" font-size="14.00" fill="#000000">smiles    </text>
<text text-anchor="start" x="142.3612" y="-173.9" font-family="Arial" font-size="14.00" fill="#666666">[TEXT]</text>
<polygon fill="none" stroke="#000000" points="61.5,-132.5 61.5,-162.5 273.5,-162.5 273.5,-132.5 61.5,-132.5"/>
<text text-anchor="start" x="68.5" y="-143.9" font-family="Arial" font-size="14.00" fill="#000000">psychonautwiki_url    </text>
<text text-anchor="start" x="220.9432" y="-143.9" font-family="Arial" font-size="14.00" fill="#666666">[TEXT]</text>
<polygon fill="none" stroke="#000000" points="61.5,-102.5 61.5,-132.5 273.5,-132.5 273.5,-102.5 61.5,-102.5"/>
<text text-anchor="start" x="68.3268" y="-113.9" font-family="Arial" font-size="14.00" fill="#000000">psychoactive_class    </text>
<text text-anchor="start" x="223.1136" y="-113.9" font-family="Arial" font-size="14.00" fill="#666666">[TEXT]</text>
<polygon fill="none" stroke="#000000" points="61.5,-72.5 61.5,-102.5 273.5,-102.5 273.5,-72.5 61.5,-72.5"/>
<text text-anchor="start" x="68.5" y="-83.9" font-family="Arial" font-size="14.00" fill="#000000">chemical_class    </text>
<text text-anchor="start" x="197.5982" y="-83.9" font-family="Arial" font-size="14.00" fill="#666666">[TEXT]</text>
<polygon fill="none" stroke="#000000" points="61.5,-42.5 61.5,-72.5 273.5,-72.5 273.5,-42.5 61.5,-42.5"/>
<text text-anchor="start" x="68.5" y="-53.9" font-family="Arial" font-size="14.00" fill="#000000">description    </text>
<text text-anchor="start" x="170.3822" y="-53.9" font-family="Arial" font-size="14.00" fill="#666666">[TEXT]</text>
</g>
<!-- psychoactive_class&#45;&gt;substance -->
<g id="edge1" class="edge">
<title>psychoactive_class:substanceId&#45;&gt;substance:id</title>
<path fill="none" stroke="#000000" d="M166.598,-642.3772C157.7412,-596.6479 86.1167,-620.9788 61.5,-571 43.1385,-533.7211 19.9444,-477.5 61.5,-477.5"/>
<polygon fill="#000000" stroke="#000000" points="166.6124,-642.5395 163.0178,-652.8994 167.0562,-647.5197 167.5,-652.5 167.5,-652.5 167.5,-652.5 167.0562,-647.5197 171.9822,-652.1006 166.6124,-642.5395 166.6124,-642.5395"/>
<text text-anchor="start" x="174.2065" y="-662.5" font-family="Arial" font-size="10.00" fill="#000000">FOREIGN KEY (substanceId) REFERENCES substance (id) ON UPDATE CASCADE ON DELETE SET NULL MATCH NONE</text>
</g>
</g>
</svg>
