<?xml version="1.0" encoding="UTF-8" standalone="no"?>
<!DOCTYPE svg PUBLIC "-//W3C//DTD SVG 1.1//EN"
 "http://www.w3.org/Graphics/SVG/1.1/DTD/svg11.dtd">
<!-- Generated by graphviz version 2.40.1 (20161225.0304)
 -->
<!-- Title: route_of_administration_dosage Pages: 1 -->
<svg width="969pt" height="592pt"
 viewBox="0.00 0.00 969.00 592.00" xmlns="http://www.w3.org/2000/svg" xmlns:xlink="http://www.w3.org/1999/xlink">
<g id="graph0" class="graph" transform="scale(1 1) rotate(0) translate(4 588)">
<title>route_of_administration_dosage</title>
<polygon fill="#ffffff" stroke="transparent" points="-4,4 -4,-588 965,-588 965,4 -4,4"/>
<!-- route_of_administration_dosage -->
<g id="node1" class="node">
<title>route_of_administration_dosage</title>
<polygon fill="#efefef" stroke="transparent" points="54,-502.5 54,-537.5 397,-537.5 397,-502.5 54,-502.5"/>
<polygon fill="none" stroke="#000000" points="54,-502.5 54,-537.5 397,-537.5 397,-502.5 54,-502.5"/>
<text text-anchor="start" x="60.7947" y="-515.3" font-family="Arial Bold" font-size="18.00" fill="#000000">route_of_administration_dosage</text>
<text text-anchor="start" x="317.8743" y="-515.3" font-family="Arial" font-size="14.00" fill="#000000">    </text>
<text text-anchor="start" x="352.0791" y="-515.3" font-family="Arial" font-size="14.00" fill="#666666">[table]</text>
<polygon fill="none" stroke="#000000" points="54,-472.5 54,-502.5 397,-502.5 397,-472.5 54,-472.5"/>
<text text-anchor="start" x="61" y="-483.9" font-family="Arial" font-size="14.00" fill="#000000">id </text>
<text text-anchor="start" x="75.7798" y="-483.9" font-family="Arial" font-size="14.00" fill="#666666">[TEXT]</text>
<polygon fill="none" stroke="#000000" points="54,-442.5 54,-472.5 397,-472.5 397,-442.5 54,-442.5"/>
<text text-anchor="start" x="61" y="-453.9" font-family="Arial" font-size="14.00" fill="#000000">intensivity </text>
<text text-anchor="start" x="126.3394" y="-453.9" font-family="Arial" font-size="14.00" fill="#666666">[TEXT]</text>
<polygon fill="none" stroke="#000000" points="54,-412.5 54,-442.5 397,-442.5 397,-412.5 54,-412.5"/>
<text text-anchor="start" x="61" y="-423.9" font-family="Arial" font-size="14.00" fill="#000000">amount_min </text>
<text text-anchor="start" x="141.9046" y="-423.9" font-family="Arial" font-size="14.00" fill="#666666">[REAL]</text>
<polygon fill="none" stroke="#000000" points="54,-382.5 54,-412.5 397,-412.5 397,-382.5 54,-382.5"/>
<text text-anchor="start" x="61" y="-393.9" font-family="Arial" font-size="14.00" fill="#000000">amount_max </text>
<text text-anchor="start" x="145.798" y="-393.9" font-family="Arial" font-size="14.00" fill="#666666">[REAL]</text>
<polygon fill="none" stroke="#000000" points="54,-352.5 54,-382.5 397,-382.5 397,-352.5 54,-352.5"/>
<text text-anchor="start" x="61" y="-363.9" font-family="Arial" font-size="14.00" fill="#000000">unit </text>
<text text-anchor="start" x="87.453" y="-363.9" font-family="Arial" font-size="14.00" fill="#666666">[TEXT]</text>
<polygon fill="none" stroke="#000000" points="54,-322.5 54,-352.5 397,-352.5 397,-322.5 54,-322.5"/>
<text text-anchor="start" x="61" y="-333.9" font-family="Arial" font-size="14.00" fill="#000000">perKilogram </text>
<text text-anchor="start" x="140.3352" y="-333.9" font-family="Arial" font-size="14.00" fill="#666666">[BOOLEAN]</text>
<polygon fill="none" stroke="#000000" points="54,-292.5 54,-322.5 397,-322.5 397,-292.5 54,-292.5"/>
<text text-anchor="start" x="61" y="-303.9" font-family="Arial" font-size="14.00" fill="#000000">routeOfAdministrationId </text>
<text text-anchor="start" x="211.9158" y="-303.9" font-family="Arial" font-size="14.00" fill="#666666">[TEXT]</text>
<polygon fill="none" stroke="#000000" stroke-width="3" points="52,-291.5 52,-539.5 398,-539.5 398,-291.5 52,-291.5"/>
</g>
<!-- substance_route_of_administration -->
<g id="node2" class="node">
<title>substance_route_of_administration</title>
<polygon fill="#efefef" stroke="transparent" points="43,-132.5 43,-167.5 409,-167.5 409,-132.5 43,-132.5"/>
<polygon fill="none" stroke="#000000" points="43,-132.5 43,-167.5 409,-167.5 409,-132.5 43,-132.5"/>
<text text-anchor="start" x="49.7936" y="-145.3" font-family="Arial Bold" font-size="18.00" fill="#000000">substance_route_of_administration</text>
<text text-anchor="start" x="329.8754" y="-145.3" font-family="Arial" font-size="14.00" fill="#000000">    </text>
<text text-anchor="start" x="364.0802" y="-145.3" font-family="Arial" font-size="14.00" fill="#666666">[table]</text>
<polygon fill="none" stroke="#000000" points="43,-102.5 43,-132.5 409,-132.5 409,-102.5 43,-102.5"/>
<text text-anchor="start" x="50" y="-113.9" font-family="Arial" font-size="14.00" fill="#000000">id    </text>
<text text-anchor="start" x="95.094" y="-113.9" font-family="Arial" font-size="14.00" fill="#666666">[TEXT]</text>
<polygon fill="none" stroke="#000000" points="43,-72.5 43,-102.5 409,-102.5 409,-72.5 43,-72.5"/>
<text text-anchor="start" x="50" y="-83.9" font-family="Arial" font-size="14.00" fill="#000000">substanceName    </text>
<text text-anchor="start" x="185.3408" y="-83.9" font-family="Arial" font-size="14.00" fill="#666666">[TEXT]</text>
<polygon fill="none" stroke="#000000" points="43,-42.5 43,-72.5 409,-72.5 409,-42.5 43,-42.5"/>
<text text-anchor="start" x="50" y="-53.9" font-family="Arial" font-size="14.00" fill="#000000">name    </text>
<text text-anchor="start" x="119.2132" y="-53.9" font-family="Arial" font-size="14.00" fill="#666666">[TEXT]</text>
</g>
<!-- route_of_administration_dosage&#45;&gt;substance_route_of_administration -->
<g id="edge1" class="edge">
<title>route_of_administration_dosage:routeOfAdministrationId&#45;&gt;substance_route_of_administration:id</title>
<path fill="none" stroke="#000000" d="M225.3364,-282.3862C215.1105,-209.9451 89.499,-282.6105 43,-211 20.3691,-176.1474 1.4444,-117.5 43,-117.5"/>
<polygon fill="#000000" stroke="#000000" points="225.3451,-282.5215 221.5097,-292.7947 225.6726,-287.5107 226,-292.5 226,-292.5 226,-292.5 225.6726,-287.5107 230.4903,-292.2053 225.3451,-282.5215 225.3451,-282.5215"/>
<text text-anchor="start" x="233.14" y="-302.5" font-family="Arial" font-size="10.00" fill="#000000">FOREIGN KEY (routeOfAdministrationId) REFERENCES substance_route_of_administration (id) ON UPDATE CASCADE ON DELETE SET NULL MATCH NONE</text>
</g>
</g>
</svg>
