<?xml version="1.0" encoding="UTF-8" standalone="no"?>
<!DOCTYPE svg PUBLIC "-//W3C//DTD SVG 1.1//EN"
 "http://www.w3.org/Graphics/SVG/1.1/DTD/svg11.dtd">
<!-- Generated by graphviz version 2.40.1 (20161225.0304)
 -->
<!-- Title: route_of_administration_phase Pages: 1 -->
<svg width="1362pt" height="749pt"
 viewBox="0.00 0.00 1362.00 749.00" xmlns="http://www.w3.org/2000/svg" xmlns:xlink="http://www.w3.org/1999/xlink">
<g id="graph0" class="graph" transform="scale(1 1) rotate(0) translate(4 745)">
<title>route_of_administration_phase</title>
<polygon fill="#ffffff" stroke="transparent" points="-4,4 -4,-745 1358,-745 1358,4 -4,4"/>
<!-- route_of_administration_phase -->
<g id="node1" class="node">
<title>route_of_administration_phase</title>
<polygon fill="#efefef" stroke="transparent" points="452,-442.5 452,-477.5 785,-477.5 785,-442.5 452,-442.5"/>
<polygon fill="none" stroke="#000000" points="452,-442.5 452,-477.5 785,-477.5 785,-442.5 452,-442.5"/>
<text text-anchor="start" x="458.7978" y="-455.3" font-family="Arial Bold" font-size="18.00" fill="#000000">route_of_administration_phase</text>
<text text-anchor="start" x="705.8712" y="-455.3" font-family="Arial" font-size="14.00" fill="#000000">    </text>
<text text-anchor="start" x="740.076" y="-455.3" font-family="Arial" font-size="14.00" fill="#666666">[table]</text>
<polygon fill="none" stroke="#000000" points="452,-412.5 452,-442.5 785,-442.5 785,-412.5 452,-412.5"/>
<text text-anchor="start" x="459" y="-423.9" font-family="Arial" font-size="14.00" fill="#000000">id </text>
<text text-anchor="start" x="473.7798" y="-423.9" font-family="Arial" font-size="14.00" fill="#666666">[TEXT]</text>
<polygon fill="none" stroke="#000000" points="452,-382.5 452,-412.5 785,-412.5 785,-382.5 452,-382.5"/>
<text text-anchor="start" x="459" y="-393.9" font-family="Arial" font-size="14.00" fill="#000000">classification </text>
<text text-anchor="start" x="542.2286" y="-393.9" font-family="Arial" font-size="14.00" fill="#666666">[TEXT]</text>
<polygon fill="none" stroke="#000000" points="452,-352.5 452,-382.5 785,-382.5 785,-352.5 452,-352.5"/>
<text text-anchor="start" x="459" y="-363.9" font-family="Arial" font-size="14.00" fill="#000000">min_duration </text>
<text text-anchor="start" x="543.7938" y="-363.9" font-family="Arial" font-size="14.00" fill="#666666">[INTEGER]</text>
<polygon fill="none" stroke="#000000" points="452,-322.5 452,-352.5 785,-352.5 785,-322.5 452,-322.5"/>
<text text-anchor="start" x="459" y="-333.9" font-family="Arial" font-size="14.00" fill="#000000">max_duration </text>
<text text-anchor="start" x="547.6872" y="-333.9" font-family="Arial" font-size="14.00" fill="#666666">[INTEGER]</text>
<polygon fill="none" stroke="#000000" points="452,-292.5 452,-322.5 785,-322.5 785,-292.5 452,-292.5"/>
<text text-anchor="start" x="459" y="-303.9" font-family="Arial" font-size="14.00" fill="#000000">routeOfAdministrationId </text>
<text text-anchor="start" x="609.9158" y="-303.9" font-family="Arial" font-size="14.00" fill="#666666">[TEXT]</text>
<polygon fill="none" stroke="#000000" stroke-width="3" points="450,-291.5 450,-479.5 786,-479.5 786,-291.5 450,-291.5"/>
</g>
<!-- substance_route_of_administration -->
<g id="node3" class="node">
<title>substance_route_of_administration</title>
<polygon fill="#efefef" stroke="transparent" points="436,-132.5 436,-167.5 802,-167.5 802,-132.5 436,-132.5"/>
<polygon fill="none" stroke="#000000" points="436,-132.5 436,-167.5 802,-167.5 802,-132.5 436,-132.5"/>
<text text-anchor="start" x="442.7936" y="-145.3" font-family="Arial Bold" font-size="18.00" fill="#000000">substance_route_of_administration</text>
<text text-anchor="start" x="722.8754" y="-145.3" font-family="Arial" font-size="14.00" fill="#000000">    </text>
<text text-anchor="start" x="757.0802" y="-145.3" font-family="Arial" font-size="14.00" fill="#666666">[table]</text>
<polygon fill="none" stroke="#000000" points="436,-102.5 436,-132.5 802,-132.5 802,-102.5 436,-102.5"/>
<text text-anchor="start" x="443" y="-113.9" font-family="Arial" font-size="14.00" fill="#000000">id    </text>
<text text-anchor="start" x="488.094" y="-113.9" font-family="Arial" font-size="14.00" fill="#666666">[TEXT]</text>
<polygon fill="none" stroke="#000000" points="436,-72.5 436,-102.5 802,-102.5 802,-72.5 436,-72.5"/>
<text text-anchor="start" x="443" y="-83.9" font-family="Arial" font-size="14.00" fill="#000000">substanceName    </text>
<text text-anchor="start" x="578.3408" y="-83.9" font-family="Arial" font-size="14.00" fill="#666666">[TEXT]</text>
<polygon fill="none" stroke="#000000" points="436,-42.5 436,-72.5 802,-72.5 802,-42.5 436,-42.5"/>
<text text-anchor="start" x="443" y="-53.9" font-family="Arial" font-size="14.00" fill="#000000">name    </text>
<text text-anchor="start" x="512.2132" y="-53.9" font-family="Arial" font-size="14.00" fill="#666666">[TEXT]</text>
</g>
<!-- route_of_administration_phase&#45;&gt;substance_route_of_administration -->
<g id="edge2" class="edge">
<title>route_of_administration_phase:routeOfAdministrationId&#45;&gt;substance_route_of_administration:id</title>
<path fill="none" stroke="#000000" d="M618.3364,-282.3862C608.1105,-209.9451 482.499,-282.6105 436,-211 413.3691,-176.1474 394.4444,-117.5 436,-117.5"/>
<polygon fill="#000000" stroke="#000000" points="618.3451,-282.5215 614.5097,-292.7947 618.6726,-287.5107 619,-292.5 619,-292.5 619,-292.5 618.6726,-287.5107 623.4903,-292.2053 618.3451,-282.5215 618.3451,-282.5215"/>
<text text-anchor="start" x="626.14" y="-302.5" font-family="Arial" font-size="10.00" fill="#000000">FOREIGN KEY (routeOfAdministrationId) REFERENCES substance_route_of_administration (id) ON UPDATE CASCADE ON DELETE SET NULL MATCH NONE</text>
</g>
<!-- _EffectToPhase -->
<g id="node2" class="node">
<title>_EffectToPhase</title>
<polygon fill="#efefef" stroke="transparent" points="512,-662.5 512,-697.5 726,-697.5 726,-662.5 512,-662.5"/>
<polygon fill="none" stroke="#000000" points="512,-662.5 512,-697.5 726,-697.5 726,-662.5 512,-662.5"/>
<text text-anchor="start" x="518.8103" y="-675.3" font-family="Arial Bold" font-size="18.00" fill="#000000">_EffectToPhase</text>
<text text-anchor="start" x="646.8587" y="-675.3" font-family="Arial" font-size="14.00" fill="#000000">    </text>
<text text-anchor="start" x="681.0635" y="-675.3" font-family="Arial" font-size="14.00" fill="#666666">[table]</text>
<polygon fill="none" stroke="#000000" points="512,-632.5 512,-662.5 726,-662.5 726,-632.5 512,-632.5"/>
<text text-anchor="start" x="519" y="-643.9" font-family="Arial" font-size="14.00" fill="#000000">A    </text>
<text text-anchor="start" x="562.5414" y="-643.9" font-family="Arial" font-size="14.00" fill="#666666">[TEXT]</text>
<polygon fill="none" stroke="#000000" points="512,-602.5 512,-632.5 726,-632.5 726,-602.5 512,-602.5"/>
<text text-anchor="start" x="519" y="-613.9" font-family="Arial" font-size="14.00" fill="#000000">B    </text>
<text text-anchor="start" x="562.5414" y="-613.9" font-family="Arial" font-size="14.00" fill="#666666">[TEXT]</text>
</g>
<!-- _EffectToPhase&#45;&gt;route_of_administration_phase -->
<g id="edge1" class="edge">
<title>_EffectToPhase:B&#45;&gt;route_of_administration_phase:id</title>
<path fill="none" stroke="#000000" d="M619.7224,-592.4052C629.8324,-527.0783 743.2976,-589.851 785,-524 807.9465,-487.7659 827.8889,-427.5 785,-427.5"/>
<polygon fill="#000000" stroke="#000000" points="619.7139,-592.5255 614.5115,-602.1788 619.3569,-597.5128 619,-602.5 619,-602.5 619,-602.5 619.3569,-597.5128 623.4885,-602.8212 619.7139,-592.5255 619.7139,-592.5255"/>
<text text-anchor="start" x="7.208" y="-612.5" font-family="Arial" font-size="10.00" fill="#000000">FOREIGN KEY (B) REFERENCES route_of_administration_phase (id) ON UPDATE CASCADE ON DELETE CASCADE MATCH NONE</text>
</g>
</g>
</svg>
