<?xml version="1.0" encoding="UTF-8" standalone="no"?>
<!DOCTYPE svg PUBLIC "-//W3C//DTD SVG 1.1//EN"
 "http://www.w3.org/Graphics/SVG/1.1/DTD/svg11.dtd">
<!-- Generated by graphviz version 2.40.1 (20161225.0304)
 -->
<!-- Title: substance_tolerance Pages: 1 -->
<svg width="882pt" height="1072pt"
 viewBox="0.00 0.00 882.00 1072.00" xmlns="http://www.w3.org/2000/svg" xmlns:xlink="http://www.w3.org/1999/xlink">
<g id="graph0" class="graph" transform="scale(1 1) rotate(0) translate(4 1068)">
<title>substance_tolerance</title>
<polygon fill="#ffffff" stroke="transparent" points="-4,4 -4,-1068 878,-1068 878,4 -4,4"/>
<!-- substance_tolerance -->
<g id="node1" class="node">
<title>substance_tolerance</title>
<polygon fill="#efefef" stroke="transparent" points="46,-982.5 46,-1017.5 298,-1017.5 298,-982.5 46,-982.5"/>
<polygon fill="none" stroke="#000000" points="46,-982.5 46,-1017.5 298,-1017.5 298,-982.5 46,-982.5"/>
<text text-anchor="start" x="52.805" y="-995.3" font-family="Arial Bold" font-size="18.00" fill="#000000">substance_tolerance</text>
<text text-anchor="start" x="218.864" y="-995.3" font-family="Arial" font-size="14.00" fill="#000000">    </text>
<text text-anchor="start" x="253.0688" y="-995.3" font-family="Arial" font-size="14.00" fill="#666666">[table]</text>
<polygon fill="none" stroke="#000000" points="46,-952.5 46,-982.5 298,-982.5 298,-952.5 46,-952.5"/>
<text text-anchor="start" x="53" y="-963.9" font-family="Arial" font-size="14.00" fill="#000000">id </text>
<text text-anchor="start" x="67.7798" y="-963.9" font-family="Arial" font-size="14.00" fill="#666666">[TEXT]</text>
<polygon fill="none" stroke="#000000" points="46,-922.5 46,-952.5 298,-952.5 298,-922.5 46,-922.5"/>
<text text-anchor="start" x="53" y="-933.9" font-family="Arial" font-size="14.00" fill="#000000">substanceId </text>
<text text-anchor="start" x="132.3674" y="-933.9" font-family="Arial" font-size="14.00" fill="#666666">[TEXT]</text>
<polygon fill="none" stroke="#000000" points="46,-892.5 46,-922.5 298,-922.5 298,-892.5 46,-892.5"/>
<text text-anchor="start" x="53" y="-903.9" font-family="Arial" font-size="14.00" fill="#000000">mechanism </text>
<text text-anchor="start" x="128.4488" y="-903.9" font-family="Arial" font-size="14.00" fill="#666666">[TEXT]</text>
<polygon fill="none" stroke="#000000" points="46,-862.5 46,-892.5 298,-892.5 298,-862.5 46,-862.5"/>
<text text-anchor="start" x="53" y="-873.9" font-family="Arial" font-size="14.00" fill="#000000">mechanism_desciption </text>
<text text-anchor="start" x="199.2482" y="-873.9" font-family="Arial" font-size="14.00" fill="#666666">[TEXT]</text>
<polygon fill="none" stroke="#000000" points="46,-832.5 46,-862.5 298,-862.5 298,-832.5 46,-832.5"/>
<text text-anchor="start" x="53" y="-843.9" font-family="Arial" font-size="14.00" fill="#000000">onset_mechanism </text>
<text text-anchor="start" x="170.4698" y="-843.9" font-family="Arial" font-size="14.00" fill="#666666">[TEXT]</text>
<polygon fill="none" stroke="#000000" points="46,-802.5 46,-832.5 298,-832.5 298,-802.5 46,-802.5"/>
<text text-anchor="start" x="53" y="-813.9" font-family="Arial" font-size="14.00" fill="#000000">onset_description </text>
<text text-anchor="start" x="166.589" y="-813.9" font-family="Arial" font-size="14.00" fill="#666666">[TEXT]</text>
<polygon fill="none" stroke="#000000" points="46,-772.5 46,-802.5 298,-802.5 298,-772.5 46,-772.5"/>
<text text-anchor="start" x="53" y="-783.9" font-family="Arial" font-size="14.00" fill="#000000">decline_mechanism </text>
<text text-anchor="start" x="180.575" y="-783.9" font-family="Arial" font-size="14.00" fill="#666666">[TEXT]</text>
<polygon fill="none" stroke="#000000" points="46,-742.5 46,-772.5 298,-772.5 298,-742.5 46,-742.5"/>
<text text-anchor="start" x="53" y="-753.9" font-family="Arial" font-size="14.00" fill="#000000">decline_description </text>
<text text-anchor="start" x="176.6942" y="-753.9" font-family="Arial" font-size="14.00" fill="#666666">[TEXT]</text>
<polygon fill="none" stroke="#000000" points="46,-712.5 46,-742.5 298,-742.5 298,-712.5 46,-712.5"/>
<text text-anchor="start" x="53" y="-723.9" font-family="Arial" font-size="14.00" fill="#000000">onset_duration </text>
<text text-anchor="start" x="149.4824" y="-723.9" font-family="Arial" font-size="14.00" fill="#666666">[TEXT]</text>
<polygon fill="none" stroke="#000000" points="46,-682.5 46,-712.5 298,-712.5 298,-682.5 46,-682.5"/>
<text text-anchor="start" x="53" y="-693.9" font-family="Arial" font-size="14.00" fill="#000000">decline_to_baseline_duration </text>
<text text-anchor="start" x="238.9522" y="-693.9" font-family="Arial" font-size="14.00" fill="#666666">[TEXT]</text>
<polygon fill="none" stroke="#000000" points="46,-652.5 46,-682.5 298,-682.5 298,-652.5 46,-652.5"/>
<text text-anchor="start" x="53" y="-663.9" font-family="Arial" font-size="14.00" fill="#000000">decline_to_half_duration </text>
<text text-anchor="start" x="209.3884" y="-663.9" font-family="Arial" font-size="14.00" fill="#666666">[TEXT]</text>
<polygon fill="none" stroke="#000000" stroke-width="3" points="44.5,-651.5 44.5,-1019.5 299.5,-1019.5 299.5,-651.5 44.5,-651.5"/>
</g>
<!-- substance -->
<g id="node2" class="node">
<title>substance</title>
<polygon fill="#efefef" stroke="transparent" points="66,-492.5 66,-527.5 278,-527.5 278,-492.5 66,-492.5"/>
<polygon fill="none" stroke="#000000" points="66,-492.5 66,-527.5 278,-527.5 278,-492.5 66,-492.5"/>
<text text-anchor="start" x="94.8179" y="-505.3" font-family="Arial Bold" font-size="18.00" fill="#000000">substance</text>
<text text-anchor="start" x="176.8511" y="-505.3" font-family="Arial" font-size="14.00" fill="#000000">    </text>
<text text-anchor="start" x="211.0559" y="-505.3" font-family="Arial" font-size="14.00" fill="#666666">[table]</text>
<polygon fill="none" stroke="#000000" points="66,-462.5 66,-492.5 278,-492.5 278,-462.5 66,-462.5"/>
<text text-anchor="start" x="73" y="-473.9" font-family="Arial" font-size="14.00" fill="#000000">id    </text>
<text text-anchor="start" x="118.094" y="-473.9" font-family="Arial" font-size="14.00" fill="#666666">[TEXT]</text>
<polygon fill="none" stroke="#000000" points="66,-432.5 66,-462.5 278,-462.5 278,-432.5 66,-432.5"/>
<text text-anchor="start" x="73" y="-443.9" font-family="Arial" font-size="14.00" fill="#000000">name    </text>
<text text-anchor="start" x="142.2132" y="-443.9" font-family="Arial" font-size="14.00" fill="#666666">[TEXT]</text>
<polygon fill="none" stroke="#000000" points="66,-402.5 66,-432.5 278,-432.5 278,-402.5 66,-402.5"/>
<text text-anchor="start" x="73" y="-413.9" font-family="Arial" font-size="14.00" fill="#000000">common_names    </text>
<text text-anchor="start" x="210.6648" y="-413.9" font-family="Arial" font-size="14.00" fill="#666666">[TEXT]</text>
<polygon fill="none" stroke="#000000" points="66,-372.5 66,-402.5 278,-402.5 278,-372.5 66,-372.5"/>
<text text-anchor="start" x="73" y="-383.9" font-family="Arial" font-size="14.00" fill="#000000">brand_names    </text>
<text text-anchor="start" x="192.7868" y="-383.9" font-family="Arial" font-size="14.00" fill="#666666">[TEXT]</text>
<polygon fill="none" stroke="#000000" points="66,-342.5 66,-372.5 278,-372.5 278,-342.5 66,-342.5"/>
<text text-anchor="start" x="73" y="-353.9" font-family="Arial" font-size="14.00" fill="#000000">substitutive_name    </text>
<text text-anchor="start" x="220.0112" y="-353.9" font-family="Arial" font-size="14.00" fill="#666666">[TEXT]</text>
<polygon fill="none" stroke="#000000" points="66,-312.5 66,-342.5 278,-342.5 278,-312.5 66,-312.5"/>
<text text-anchor="start" x="73" y="-323.9" font-family="Arial" font-size="14.00" fill="#000000">systematic_name    </text>
<text text-anchor="start" x="216.1094" y="-323.9" font-family="Arial" font-size="14.00" fill="#666666">[TEXT]</text>
<polygon fill="none" stroke="#000000" points="66,-282.5 66,-312.5 278,-312.5 278,-282.5 66,-282.5"/>
<text text-anchor="start" x="73" y="-293.9" font-family="Arial" font-size="14.00" fill="#000000">pubchem_cid    </text>
<text text-anchor="start" x="190.4502" y="-293.9" font-family="Arial" font-size="14.00" fill="#666666">[INTEGER]</text>
<polygon fill="none" stroke="#000000" points="66,-252.5 66,-282.5 278,-282.5 278,-252.5 66,-252.5"/>
<text text-anchor="start" x="73" y="-263.9" font-family="Arial" font-size="14.00" fill="#000000">unii    </text>
<text text-anchor="start" x="128.9832" y="-263.9" font-family="Arial" font-size="14.00" fill="#666666">[TEXT]</text>
<polygon fill="none" stroke="#000000" points="66,-222.5 66,-252.5 278,-252.5 278,-222.5 66,-222.5"/>
<text text-anchor="start" x="73" y="-233.9" font-family="Arial" font-size="14.00" fill="#000000">cas_number    </text>
<text text-anchor="start" x="184.2216" y="-233.9" font-family="Arial" font-size="14.00" fill="#666666">[TEXT]</text>
<polygon fill="none" stroke="#000000" points="66,-192.5 66,-222.5 278,-222.5 278,-192.5 66,-192.5"/>
<text text-anchor="start" x="73" y="-203.9" font-family="Arial" font-size="14.00" fill="#000000">inchi_key    </text>
<text text-anchor="start" x="165.5484" y="-203.9" font-family="Arial" font-size="14.00" fill="#666666">[TEXT]</text>
<polygon fill="none" stroke="#000000" points="66,-162.5 66,-192.5 278,-192.5 278,-162.5 66,-162.5"/>
<text text-anchor="start" x="73" y="-173.9" font-family="Arial" font-size="14.00" fill="#000000">smiles    </text>
<text text-anchor="start" x="146.8612" y="-173.9" font-family="Arial" font-size="14.00" fill="#666666">[TEXT]</text>
<polygon fill="none" stroke="#000000" points="66,-132.5 66,-162.5 278,-162.5 278,-132.5 66,-132.5"/>
<text text-anchor="start" x="73" y="-143.9" font-family="Arial" font-size="14.00" fill="#000000">psychonautwiki_url    </text>
<text text-anchor="start" x="225.4432" y="-143.9" font-family="Arial" font-size="14.00" fill="#666666">[TEXT]</text>
<polygon fill="none" stroke="#000000" points="66,-102.5 66,-132.5 278,-132.5 278,-102.5 66,-102.5"/>
<text text-anchor="start" x="72.8268" y="-113.9" font-family="Arial" font-size="14.00" fill="#000000">psychoactive_class    </text>
<text text-anchor="start" x="227.6136" y="-113.9" font-family="Arial" font-size="14.00" fill="#666666">[TEXT]</text>
<polygon fill="none" stroke="#000000" points="66,-72.5 66,-102.5 278,-102.5 278,-72.5 66,-72.5"/>
<text text-anchor="start" x="73" y="-83.9" font-family="Arial" font-size="14.00" fill="#000000">chemical_class    </text>
<text text-anchor="start" x="202.0982" y="-83.9" font-family="Arial" font-size="14.00" fill="#666666">[TEXT]</text>
<polygon fill="none" stroke="#000000" points="66,-42.5 66,-72.5 278,-72.5 278,-42.5 66,-42.5"/>
<text text-anchor="start" x="73" y="-53.9" font-family="Arial" font-size="14.00" fill="#000000">description    </text>
<text text-anchor="start" x="174.8822" y="-53.9" font-family="Arial" font-size="14.00" fill="#666666">[TEXT]</text>
</g>
<!-- substance_tolerance&#45;&gt;substance -->
<g id="edge1" class="edge">
<title>substance_tolerance:substanceId&#45;&gt;substance:id</title>
<path fill="none" stroke="#000000" d="M308.0646,-935.9245C398.8554,-906.5921 376.8216,-477.5 278,-477.5"/>
<polygon fill="#000000" stroke="#000000" points="307.8797,-935.9534 297.304,-933.0541 302.9398,-936.7267 298,-937.5 298,-937.5 298,-937.5 302.9398,-936.7267 298.696,-941.9459 307.8797,-935.9534 307.8797,-935.9534"/>
<text text-anchor="start" x="304.6015" y="-947.5" font-family="Arial" font-size="10.00" fill="#000000">FOREIGN KEY (substanceId) REFERENCES substance (id) ON UPDATE CASCADE ON DELETE RESTRICT MATCH NONE</text>
</g>
</g>
</svg>
