<?xml version="1.0" encoding="UTF-8" standalone="no"?>
<!DOCTYPE svg PUBLIC "-//W3C//DTD SVG 1.1//EN"
 "http://www.w3.org/Graphics/SVG/1.1/DTD/svg11.dtd">
<!-- Generated by graphviz version 2.40.1 (20161225.0304)
 -->
<!-- Title: substance_route_of_administration Pages: 1 -->
<svg width="1593pt" height="1199pt"
 viewBox="0.00 0.00 1593.00 1199.00" xmlns="http://www.w3.org/2000/svg" xmlns:xlink="http://www.w3.org/1999/xlink">
<g id="graph0" class="graph" transform="scale(1 1) rotate(0) translate(4 1195)">
<title>substance_route_of_administration</title>
<polygon fill="#ffffff" stroke="transparent" points="-4,4 -4,-1195 1589,-1195 1589,4 -4,4"/>
<!-- substance_route_of_administration -->
<g id="node1" class="node">
<title>substance_route_of_administration</title>
<polygon fill="#efefef" stroke="transparent" points="607,-742.5 607,-777.5 973,-777.5 973,-742.5 607,-742.5"/>
<polygon fill="none" stroke="#000000" points="607,-742.5 607,-777.5 973,-777.5 973,-742.5 607,-742.5"/>
<text text-anchor="start" x="613.7936" y="-755.3" font-family="Arial Bold" font-size="18.00" fill="#000000">substance_route_of_administration</text>
<text text-anchor="start" x="893.8754" y="-755.3" font-family="Arial" font-size="14.00" fill="#000000">    </text>
<text text-anchor="start" x="928.0802" y="-755.3" font-family="Arial" font-size="14.00" fill="#666666">[table]</text>
<polygon fill="none" stroke="#000000" points="607,-712.5 607,-742.5 973,-742.5 973,-712.5 607,-712.5"/>
<text text-anchor="start" x="614" y="-723.9" font-family="Arial" font-size="14.00" fill="#000000">id </text>
<text text-anchor="start" x="628.7798" y="-723.9" font-family="Arial" font-size="14.00" fill="#666666">[TEXT]</text>
<polygon fill="none" stroke="#000000" points="607,-682.5 607,-712.5 973,-712.5 973,-682.5 607,-682.5"/>
<text text-anchor="start" x="614" y="-693.9" font-family="Arial" font-size="14.00" fill="#000000">substanceName </text>
<text text-anchor="start" x="719.0266" y="-693.9" font-family="Arial" font-size="14.00" fill="#666666">[TEXT]</text>
<polygon fill="none" stroke="#000000" points="607,-652.5 607,-682.5 973,-682.5 973,-652.5 607,-652.5"/>
<text text-anchor="start" x="614" y="-663.9" font-family="Arial" font-size="14.00" fill="#000000">name </text>
<text text-anchor="start" x="652.899" y="-663.9" font-family="Arial" font-size="14.00" fill="#666666">[TEXT]</text>
<polygon fill="none" stroke="#000000" stroke-width="3" points="605.5,-651.5 605.5,-779.5 974.5,-779.5 974.5,-651.5 605.5,-651.5"/>
</g>
<!-- substance -->
<g id="node4" class="node">
<title>substance</title>
<polygon fill="#efefef" stroke="transparent" points="684,-492.5 684,-527.5 896,-527.5 896,-492.5 684,-492.5"/>
<polygon fill="none" stroke="#000000" points="684,-492.5 684,-527.5 896,-527.5 896,-492.5 684,-492.5"/>
<text text-anchor="start" x="712.8179" y="-505.3" font-family="Arial Bold" font-size="18.00" fill="#000000">substance</text>
<text text-anchor="start" x="794.8511" y="-505.3" font-family="Arial" font-size="14.00" fill="#000000">    </text>
<text text-anchor="start" x="829.0559" y="-505.3" font-family="Arial" font-size="14.00" fill="#666666">[table]</text>
<polygon fill="none" stroke="#000000" points="684,-462.5 684,-492.5 896,-492.5 896,-462.5 684,-462.5"/>
<text text-anchor="start" x="691" y="-473.9" font-family="Arial" font-size="14.00" fill="#000000">id    </text>
<text text-anchor="start" x="736.094" y="-473.9" font-family="Arial" font-size="14.00" fill="#666666">[TEXT]</text>
<polygon fill="none" stroke="#000000" points="684,-432.5 684,-462.5 896,-462.5 896,-432.5 684,-432.5"/>
<text text-anchor="start" x="691" y="-443.9" font-family="Arial" font-size="14.00" fill="#000000">name    </text>
<text text-anchor="start" x="760.2132" y="-443.9" font-family="Arial" font-size="14.00" fill="#666666">[TEXT]</text>
<polygon fill="none" stroke="#000000" points="684,-402.5 684,-432.5 896,-432.5 896,-402.5 684,-402.5"/>
<text text-anchor="start" x="691" y="-413.9" font-family="Arial" font-size="14.00" fill="#000000">common_names    </text>
<text text-anchor="start" x="828.6648" y="-413.9" font-family="Arial" font-size="14.00" fill="#666666">[TEXT]</text>
<polygon fill="none" stroke="#000000" points="684,-372.5 684,-402.5 896,-402.5 896,-372.5 684,-372.5"/>
<text text-anchor="start" x="691" y="-383.9" font-family="Arial" font-size="14.00" fill="#000000">brand_names    </text>
<text text-anchor="start" x="810.7868" y="-383.9" font-family="Arial" font-size="14.00" fill="#666666">[TEXT]</text>
<polygon fill="none" stroke="#000000" points="684,-342.5 684,-372.5 896,-372.5 896,-342.5 684,-342.5"/>
<text text-anchor="start" x="691" y="-353.9" font-family="Arial" font-size="14.00" fill="#000000">substitutive_name    </text>
<text text-anchor="start" x="838.0112" y="-353.9" font-family="Arial" font-size="14.00" fill="#666666">[TEXT]</text>
<polygon fill="none" stroke="#000000" points="684,-312.5 684,-342.5 896,-342.5 896,-312.5 684,-312.5"/>
<text text-anchor="start" x="691" y="-323.9" font-family="Arial" font-size="14.00" fill="#000000">systematic_name    </text>
<text text-anchor="start" x="834.1094" y="-323.9" font-family="Arial" font-size="14.00" fill="#666666">[TEXT]</text>
<polygon fill="none" stroke="#000000" points="684,-282.5 684,-312.5 896,-312.5 896,-282.5 684,-282.5"/>
<text text-anchor="start" x="691" y="-293.9" font-family="Arial" font-size="14.00" fill="#000000">pubchem_cid    </text>
<text text-anchor="start" x="808.4502" y="-293.9" font-family="Arial" font-size="14.00" fill="#666666">[INTEGER]</text>
<polygon fill="none" stroke="#000000" points="684,-252.5 684,-282.5 896,-282.5 896,-252.5 684,-252.5"/>
<text text-anchor="start" x="691" y="-263.9" font-family="Arial" font-size="14.00" fill="#000000">unii    </text>
<text text-anchor="start" x="746.9832" y="-263.9" font-family="Arial" font-size="14.00" fill="#666666">[TEXT]</text>
<polygon fill="none" stroke="#000000" points="684,-222.5 684,-252.5 896,-252.5 896,-222.5 684,-222.5"/>
<text text-anchor="start" x="691" y="-233.9" font-family="Arial" font-size="14.00" fill="#000000">cas_number    </text>
<text text-anchor="start" x="802.2216" y="-233.9" font-family="Arial" font-size="14.00" fill="#666666">[TEXT]</text>
<polygon fill="none" stroke="#000000" points="684,-192.5 684,-222.5 896,-222.5 896,-192.5 684,-192.5"/>
<text text-anchor="start" x="691" y="-203.9" font-family="Arial" font-size="14.00" fill="#000000">inchi_key    </text>
<text text-anchor="start" x="783.5484" y="-203.9" font-family="Arial" font-size="14.00" fill="#666666">[TEXT]</text>
<polygon fill="none" stroke="#000000" points="684,-162.5 684,-192.5 896,-192.5 896,-162.5 684,-162.5"/>
<text text-anchor="start" x="691" y="-173.9" font-family="Arial" font-size="14.00" fill="#000000">smiles    </text>
<text text-anchor="start" x="764.8612" y="-173.9" font-family="Arial" font-size="14.00" fill="#666666">[TEXT]</text>
<polygon fill="none" stroke="#000000" points="684,-132.5 684,-162.5 896,-162.5 896,-132.5 684,-132.5"/>
<text text-anchor="start" x="691" y="-143.9" font-family="Arial" font-size="14.00" fill="#000000">psychonautwiki_url    </text>
<text text-anchor="start" x="843.4432" y="-143.9" font-family="Arial" font-size="14.00" fill="#666666">[TEXT]</text>
<polygon fill="none" stroke="#000000" points="684,-102.5 684,-132.5 896,-132.5 896,-102.5 684,-102.5"/>
<text text-anchor="start" x="690.8268" y="-113.9" font-family="Arial" font-size="14.00" fill="#000000">psychoactive_class    </text>
<text text-anchor="start" x="845.6136" y="-113.9" font-family="Arial" font-size="14.00" fill="#666666">[TEXT]</text>
<polygon fill="none" stroke="#000000" points="684,-72.5 684,-102.5 896,-102.5 896,-72.5 684,-72.5"/>
<text text-anchor="start" x="691" y="-83.9" font-family="Arial" font-size="14.00" fill="#000000">chemical_class    </text>
<text text-anchor="start" x="820.0982" y="-83.9" font-family="Arial" font-size="14.00" fill="#666666">[TEXT]</text>
<polygon fill="none" stroke="#000000" points="684,-42.5 684,-72.5 896,-72.5 896,-42.5 684,-42.5"/>
<text text-anchor="start" x="691" y="-53.9" font-family="Arial" font-size="14.00" fill="#000000">description    </text>
<text text-anchor="start" x="792.8822" y="-53.9" font-family="Arial" font-size="14.00" fill="#666666">[TEXT]</text>
</g>
<!-- substance_route_of_administration&#45;&gt;substance -->
<g id="edge3" class="edge">
<title>substance_route_of_administration:substanceName&#45;&gt;substance:name</title>
<path fill="none" stroke="#000000" d="M983.0319,-696.8265C1084.5639,-682.5924 1008.7423,-447.5 896,-447.5"/>
<polygon fill="#000000" stroke="#000000" points="982.9775,-696.8301 972.6985,-693.0101 977.9888,-697.165 973,-697.5 973,-697.5 973,-697.5 977.9888,-697.165 973.3015,-701.9899 982.9775,-696.8301 982.9775,-696.8301"/>
<text text-anchor="start" x="979.8235" y="-707.5" font-family="Arial" font-size="10.00" fill="#000000">FOREIGN KEY (substanceName) REFERENCES substance (name) ON UPDATE CASCADE ON DELETE RESTRICT MATCH NONE</text>
</g>
<!-- route_of_administration_phase -->
<g id="node2" class="node">
<title>route_of_administration_phase</title>
<polygon fill="#efefef" stroke="transparent" points="402,-1082.5 402,-1117.5 735,-1117.5 735,-1082.5 402,-1082.5"/>
<polygon fill="none" stroke="#000000" points="402,-1082.5 402,-1117.5 735,-1117.5 735,-1082.5 402,-1082.5"/>
<text text-anchor="start" x="408.7978" y="-1095.3" font-family="Arial Bold" font-size="18.00" fill="#000000">route_of_administration_phase</text>
<text text-anchor="start" x="655.8712" y="-1095.3" font-family="Arial" font-size="14.00" fill="#000000">    </text>
<text text-anchor="start" x="690.076" y="-1095.3" font-family="Arial" font-size="14.00" fill="#666666">[table]</text>
<polygon fill="none" stroke="#000000" points="402,-1052.5 402,-1082.5 735,-1082.5 735,-1052.5 402,-1052.5"/>
<text text-anchor="start" x="409" y="-1063.9" font-family="Arial" font-size="14.00" fill="#000000">id    </text>
<text text-anchor="start" x="454.094" y="-1063.9" font-family="Arial" font-size="14.00" fill="#666666">[TEXT]</text>
<polygon fill="none" stroke="#000000" points="402,-1022.5 402,-1052.5 735,-1052.5 735,-1022.5 402,-1022.5"/>
<text text-anchor="start" x="409" y="-1033.9" font-family="Arial" font-size="14.00" fill="#000000">classification    </text>
<text text-anchor="start" x="522.5428" y="-1033.9" font-family="Arial" font-size="14.00" fill="#666666">[TEXT]</text>
<polygon fill="none" stroke="#000000" points="402,-992.5 402,-1022.5 735,-1022.5 735,-992.5 402,-992.5"/>
<text text-anchor="start" x="409" y="-1003.9" font-family="Arial" font-size="14.00" fill="#000000">min_duration    </text>
<text text-anchor="start" x="524.108" y="-1003.9" font-family="Arial" font-size="14.00" fill="#666666">[INTEGER]</text>
<polygon fill="none" stroke="#000000" points="402,-962.5 402,-992.5 735,-992.5 735,-962.5 402,-962.5"/>
<text text-anchor="start" x="409" y="-973.9" font-family="Arial" font-size="14.00" fill="#000000">max_duration    </text>
<text text-anchor="start" x="528.0014" y="-973.9" font-family="Arial" font-size="14.00" fill="#666666">[INTEGER]</text>
<polygon fill="none" stroke="#000000" points="402,-932.5 402,-962.5 735,-962.5 735,-932.5 402,-932.5"/>
<text text-anchor="start" x="409" y="-943.9" font-family="Arial" font-size="14.00" fill="#000000">routeOfAdministrationId    </text>
<text text-anchor="start" x="590.23" y="-943.9" font-family="Arial" font-size="14.00" fill="#666666">[TEXT]</text>
</g>
<!-- route_of_administration_phase&#45;&gt;substance_route_of_administration -->
<g id="edge1" class="edge">
<title>route_of_administration_phase:routeOfAdministrationId&#45;&gt;substance_route_of_administration:id</title>
<path fill="none" stroke="#000000" d="M744.6873,-944.8378C756.5061,-936.1661 746.118,-908.2417 735,-890 701.6888,-835.3452 640.3112,-878.6548 607,-824 584.679,-787.3772 564.1111,-727.5 607,-727.5"/>
<polygon fill="#000000" stroke="#000000" points="744.6425,-944.85 733.8075,-943.1609 739.8213,-946.175 735,-947.5 735,-947.5 735,-947.5 739.8213,-946.175 736.1925,-951.8391 744.6425,-944.85 744.6425,-944.85"/>
<text text-anchor="start" x="7.14" y="-957.5" font-family="Arial" font-size="10.00" fill="#000000">FOREIGN KEY (routeOfAdministrationId) REFERENCES substance_route_of_administration (id) ON UPDATE CASCADE ON DELETE SET NULL MATCH NONE</text>
</g>
<!-- route_of_administration_dosage -->
<g id="node3" class="node">
<title>route_of_administration_dosage</title>
<polygon fill="#efefef" stroke="transparent" points="839,-1112.5 839,-1147.5 1182,-1147.5 1182,-1112.5 839,-1112.5"/>
<polygon fill="none" stroke="#000000" points="839,-1112.5 839,-1147.5 1182,-1147.5 1182,-1112.5 839,-1112.5"/>
<text text-anchor="start" x="845.7947" y="-1125.3" font-family="Arial Bold" font-size="18.00" fill="#000000">route_of_administration_dosage</text>
<text text-anchor="start" x="1102.8743" y="-1125.3" font-family="Arial" font-size="14.00" fill="#000000">    </text>
<text text-anchor="start" x="1137.0791" y="-1125.3" font-family="Arial" font-size="14.00" fill="#666666">[table]</text>
<polygon fill="none" stroke="#000000" points="839,-1082.5 839,-1112.5 1182,-1112.5 1182,-1082.5 839,-1082.5"/>
<text text-anchor="start" x="846" y="-1093.9" font-family="Arial" font-size="14.00" fill="#000000">id    </text>
<text text-anchor="start" x="891.094" y="-1093.9" font-family="Arial" font-size="14.00" fill="#666666">[TEXT]</text>
<polygon fill="none" stroke="#000000" points="839,-1052.5 839,-1082.5 1182,-1082.5 1182,-1052.5 839,-1052.5"/>
<text text-anchor="start" x="846" y="-1063.9" font-family="Arial" font-size="14.00" fill="#000000">intensivity    </text>
<text text-anchor="start" x="941.6536" y="-1063.9" font-family="Arial" font-size="14.00" fill="#666666">[TEXT]</text>
<polygon fill="none" stroke="#000000" points="839,-1022.5 839,-1052.5 1182,-1052.5 1182,-1022.5 839,-1022.5"/>
<text text-anchor="start" x="846" y="-1033.9" font-family="Arial" font-size="14.00" fill="#000000">amount_min    </text>
<text text-anchor="start" x="957.2188" y="-1033.9" font-family="Arial" font-size="14.00" fill="#666666">[REAL]</text>
<polygon fill="none" stroke="#000000" points="839,-992.5 839,-1022.5 1182,-1022.5 1182,-992.5 839,-992.5"/>
<text text-anchor="start" x="846" y="-1003.9" font-family="Arial" font-size="14.00" fill="#000000">amount_max    </text>
<text text-anchor="start" x="961.1122" y="-1003.9" font-family="Arial" font-size="14.00" fill="#666666">[REAL]</text>
<polygon fill="none" stroke="#000000" points="839,-962.5 839,-992.5 1182,-992.5 1182,-962.5 839,-962.5"/>
<text text-anchor="start" x="846" y="-973.9" font-family="Arial" font-size="14.00" fill="#000000">unit    </text>
<text text-anchor="start" x="902.7672" y="-973.9" font-family="Arial" font-size="14.00" fill="#666666">[TEXT]</text>
<polygon fill="none" stroke="#000000" points="839,-932.5 839,-962.5 1182,-962.5 1182,-932.5 839,-932.5"/>
<text text-anchor="start" x="846" y="-943.9" font-family="Arial" font-size="14.00" fill="#000000">perKilogram    </text>
<text text-anchor="start" x="955.6494" y="-943.9" font-family="Arial" font-size="14.00" fill="#666666">[BOOLEAN]</text>
<polygon fill="none" stroke="#000000" points="839,-902.5 839,-932.5 1182,-932.5 1182,-902.5 839,-902.5"/>
<text text-anchor="start" x="846" y="-913.9" font-family="Arial" font-size="14.00" fill="#000000">routeOfAdministrationId    </text>
<text text-anchor="start" x="1027.23" y="-913.9" font-family="Arial" font-size="14.00" fill="#666666">[TEXT]</text>
</g>
<!-- route_of_administration_dosage&#45;&gt;substance_route_of_administration -->
<g id="edge2" class="edge">
<title>route_of_administration_dosage:routeOfAdministrationId&#45;&gt;substance_route_of_administration:id</title>
<path fill="none" stroke="#000000" d="M829.1608,-914.7337C816.8766,-905.7431 826.0007,-876.9526 839,-860 876.5246,-811.0636 935.4754,-872.9364 973,-824 999.0979,-789.9653 1015.8889,-727.5 973,-727.5"/>
<polygon fill="#000000" stroke="#000000" points="829.3733,-914.7933 837.782,-921.832 834.1866,-916.1467 839,-917.5 839,-917.5 839,-917.5 834.1866,-916.1467 840.218,-913.168 829.3733,-914.7933 829.3733,-914.7933"/>
<text text-anchor="start" x="846.14" y="-927.5" font-family="Arial" font-size="10.00" fill="#000000">FOREIGN KEY (routeOfAdministrationId) REFERENCES substance_route_of_administration (id) ON UPDATE CASCADE ON DELETE SET NULL MATCH NONE</text>
</g>
</g>
</svg>
