<?xml version="1.0" encoding="UTF-8" standalone="no"?>
<!DOCTYPE svg PUBLIC "-//W3C//DTD SVG 1.1//EN"
 "http://www.w3.org/Graphics/SVG/1.1/DTD/svg11.dtd">
<!-- Generated by graphviz version 2.40.1 (20161225.0304)
 -->
<!-- Title: substance_synonym Pages: 1 -->
<svg width="880pt" height="832pt"
 viewBox="0.00 0.00 880.00 832.00" xmlns="http://www.w3.org/2000/svg" xmlns:xlink="http://www.w3.org/1999/xlink">
<g id="graph0" class="graph" transform="scale(1 1) rotate(0) translate(4 828)">
<title>substance_synonym</title>
<polygon fill="#ffffff" stroke="transparent" points="-4,4 -4,-828 876,-828 876,4 -4,4"/>
<!-- substance_synonym -->
<g id="node1" class="node">
<title>substance_synonym</title>
<polygon fill="#efefef" stroke="transparent" points="46,-742.5 46,-777.5 296,-777.5 296,-742.5 46,-742.5"/>
<polygon fill="none" stroke="#000000" points="46,-742.5 46,-777.5 296,-777.5 296,-742.5 46,-742.5"/>
<text text-anchor="start" x="52.8094" y="-755.3" font-family="Arial Bold" font-size="18.00" fill="#000000">substance_synonym</text>
<text text-anchor="start" x="216.8596" y="-755.3" font-family="Arial" font-size="14.00" fill="#000000">    </text>
<text text-anchor="start" x="251.0644" y="-755.3" font-family="Arial" font-size="14.00" fill="#666666">[table]</text>
<polygon fill="none" stroke="#000000" points="46,-712.5 46,-742.5 296,-742.5 296,-712.5 46,-712.5"/>
<text text-anchor="start" x="53" y="-723.9" font-family="Arial" font-size="14.00" fill="#000000">id </text>
<text text-anchor="start" x="67.7798" y="-723.9" font-family="Arial" font-size="14.00" fill="#666666">[TEXT]</text>
<polygon fill="none" stroke="#000000" points="46,-682.5 46,-712.5 296,-712.5 296,-682.5 46,-682.5"/>
<text text-anchor="start" x="53" y="-693.9" font-family="Arial" font-size="14.00" fill="#000000">substanceId </text>
<text text-anchor="start" x="132.3674" y="-693.9" font-family="Arial" font-size="14.00" fill="#666666">[TEXT]</text>
<polygon fill="none" stroke="#000000" points="46,-652.5 46,-682.5 296,-682.5 296,-652.5 46,-652.5"/>
<text text-anchor="start" x="53" y="-663.9" font-family="Arial" font-size="14.00" fill="#000000">name </text>
<text text-anchor="start" x="91.899" y="-663.9" font-family="Arial" font-size="14.00" fill="#666666">[TEXT]</text>
<polygon fill="none" stroke="#000000" stroke-width="3" points="44.5,-651.5 44.5,-779.5 297.5,-779.5 297.5,-651.5 44.5,-651.5"/>
</g>
<!-- substance -->
<g id="node2" class="node">
<title>substance</title>
<polygon fill="#efefef" stroke="transparent" points="65,-492.5 65,-527.5 277,-527.5 277,-492.5 65,-492.5"/>
<polygon fill="none" stroke="#000000" points="65,-492.5 65,-527.5 277,-527.5 277,-492.5 65,-492.5"/>
<text text-anchor="start" x="93.8179" y="-505.3" font-family="Arial Bold" font-size="18.00" fill="#000000">substance</text>
<text text-anchor="start" x="175.8511" y="-505.3" font-family="Arial" font-size="14.00" fill="#000000">    </text>
<text text-anchor="start" x="210.0559" y="-505.3" font-family="Arial" font-size="14.00" fill="#666666">[table]</text>
<polygon fill="none" stroke="#000000" points="65,-462.5 65,-492.5 277,-492.5 277,-462.5 65,-462.5"/>
<text text-anchor="start" x="72" y="-473.9" font-family="Arial" font-size="14.00" fill="#000000">id    </text>
<text text-anchor="start" x="117.094" y="-473.9" font-family="Arial" font-size="14.00" fill="#666666">[TEXT]</text>
<polygon fill="none" stroke="#000000" points="65,-432.5 65,-462.5 277,-462.5 277,-432.5 65,-432.5"/>
<text text-anchor="start" x="72" y="-443.9" font-family="Arial" font-size="14.00" fill="#000000">name    </text>
<text text-anchor="start" x="141.2132" y="-443.9" font-family="Arial" font-size="14.00" fill="#666666">[TEXT]</text>
<polygon fill="none" stroke="#000000" points="65,-402.5 65,-432.5 277,-432.5 277,-402.5 65,-402.5"/>
<text text-anchor="start" x="72" y="-413.9" font-family="Arial" font-size="14.00" fill="#000000">common_names    </text>
<text text-anchor="start" x="209.6648" y="-413.9" font-family="Arial" font-size="14.00" fill="#666666">[TEXT]</text>
<polygon fill="none" stroke="#000000" points="65,-372.5 65,-402.5 277,-402.5 277,-372.5 65,-372.5"/>
<text text-anchor="start" x="72" y="-383.9" font-family="Arial" font-size="14.00" fill="#000000">brand_names    </text>
<text text-anchor="start" x="191.7868" y="-383.9" font-family="Arial" font-size="14.00" fill="#666666">[TEXT]</text>
<polygon fill="none" stroke="#000000" points="65,-342.5 65,-372.5 277,-372.5 277,-342.5 65,-342.5"/>
<text text-anchor="start" x="72" y="-353.9" font-family="Arial" font-size="14.00" fill="#000000">substitutive_name    </text>
<text text-anchor="start" x="219.0112" y="-353.9" font-family="Arial" font-size="14.00" fill="#666666">[TEXT]</text>
<polygon fill="none" stroke="#000000" points="65,-312.5 65,-342.5 277,-342.5 277,-312.5 65,-312.5"/>
<text text-anchor="start" x="72" y="-323.9" font-family="Arial" font-size="14.00" fill="#000000">systematic_name    </text>
<text text-anchor="start" x="215.1094" y="-323.9" font-family="Arial" font-size="14.00" fill="#666666">[TEXT]</text>
<polygon fill="none" stroke="#000000" points="65,-282.5 65,-312.5 277,-312.5 277,-282.5 65,-282.5"/>
<text text-anchor="start" x="72" y="-293.9" font-family="Arial" font-size="14.00" fill="#000000">pubchem_cid    </text>
<text text-anchor="start" x="189.4502" y="-293.9" font-family="Arial" font-size="14.00" fill="#666666">[INTEGER]</text>
<polygon fill="none" stroke="#000000" points="65,-252.5 65,-282.5 277,-282.5 277,-252.5 65,-252.5"/>
<text text-anchor="start" x="72" y="-263.9" font-family="Arial" font-size="14.00" fill="#000000">unii    </text>
<text text-anchor="start" x="127.9832" y="-263.9" font-family="Arial" font-size="14.00" fill="#666666">[TEXT]</text>
<polygon fill="none" stroke="#000000" points="65,-222.5 65,-252.5 277,-252.5 277,-222.5 65,-222.5"/>
<text text-anchor="start" x="72" y="-233.9" font-family="Arial" font-size="14.00" fill="#000000">cas_number    </text>
<text text-anchor="start" x="183.2216" y="-233.9" font-family="Arial" font-size="14.00" fill="#666666">[TEXT]</text>
<polygon fill="none" stroke="#000000" points="65,-192.5 65,-222.5 277,-222.5 277,-192.5 65,-192.5"/>
<text text-anchor="start" x="72" y="-203.9" font-family="Arial" font-size="14.00" fill="#000000">inchi_key    </text>
<text text-anchor="start" x="164.5484" y="-203.9" font-family="Arial" font-size="14.00" fill="#666666">[TEXT]</text>
<polygon fill="none" stroke="#000000" points="65,-162.5 65,-192.5 277,-192.5 277,-162.5 65,-162.5"/>
<text text-anchor="start" x="72" y="-173.9" font-family="Arial" font-size="14.00" fill="#000000">smiles    </text>
<text text-anchor="start" x="145.8612" y="-173.9" font-family="Arial" font-size="14.00" fill="#666666">[TEXT]</text>
<polygon fill="none" stroke="#000000" points="65,-132.5 65,-162.5 277,-162.5 277,-132.5 65,-132.5"/>
<text text-anchor="start" x="72" y="-143.9" font-family="Arial" font-size="14.00" fill="#000000">psychonautwiki_url    </text>
<text text-anchor="start" x="224.4432" y="-143.9" font-family="Arial" font-size="14.00" fill="#666666">[TEXT]</text>
<polygon fill="none" stroke="#000000" points="65,-102.5 65,-132.5 277,-132.5 277,-102.5 65,-102.5"/>
<text text-anchor="start" x="71.8268" y="-113.9" font-family="Arial" font-size="14.00" fill="#000000">psychoactive_class    </text>
<text text-anchor="start" x="226.6136" y="-113.9" font-family="Arial" font-size="14.00" fill="#666666">[TEXT]</text>
<polygon fill="none" stroke="#000000" points="65,-72.5 65,-102.5 277,-102.5 277,-72.5 65,-72.5"/>
<text text-anchor="start" x="72" y="-83.9" font-family="Arial" font-size="14.00" fill="#000000">chemical_class    </text>
<text text-anchor="start" x="201.0982" y="-83.9" font-family="Arial" font-size="14.00" fill="#666666">[TEXT]</text>
<polygon fill="none" stroke="#000000" points="65,-42.5 65,-72.5 277,-72.5 277,-42.5 65,-42.5"/>
<text text-anchor="start" x="72" y="-53.9" font-family="Arial" font-size="14.00" fill="#000000">description    </text>
<text text-anchor="start" x="173.8822" y="-53.9" font-family="Arial" font-size="14.00" fill="#666666">[TEXT]</text>
</g>
<!-- substance_synonym&#45;&gt;substance -->
<g id="edge1" class="edge">
<title>substance_synonym:substanceId&#45;&gt;substance:id</title>
<path fill="none" stroke="#000000" d="M306.1814,-696.6591C392.6654,-681.8888 371.5956,-477.5 277,-477.5"/>
<polygon fill="#000000" stroke="#000000" points="305.9661,-696.6768 295.6295,-693.0153 300.983,-697.0884 296,-697.5 296,-697.5 296,-697.5 300.983,-697.0884 296.3705,-701.9847 305.9661,-696.6768 305.9661,-696.6768"/>
<text text-anchor="start" x="302.6015" y="-707.5" font-family="Arial" font-size="10.00" fill="#000000">FOREIGN KEY (substanceId) REFERENCES substance (id) ON UPDATE CASCADE ON DELETE RESTRICT MATCH NONE</text>
</g>
</g>
</svg>
