<?xml version="1.0" encoding="UTF-8" standalone="no"?>
<!DOCTYPE svg PUBLIC "-//W3C//DTD SVG 1.1//EN"
 "http://www.w3.org/Graphics/SVG/1.1/DTD/svg11.dtd">
<!-- Generated by graphviz version 2.40.1 (20161225.0304)
 -->
<!-- Title: _EffectToPhase Pages: 1 -->
<svg width="1348pt" height="712pt"
 viewBox="0.00 0.00 1348.00 712.00" xmlns="http://www.w3.org/2000/svg" xmlns:xlink="http://www.w3.org/1999/xlink">
<g id="graph0" class="graph" transform="scale(1 1) rotate(0) translate(4 708)">
<title>_EffectToPhase</title>
<polygon fill="#ffffff" stroke="transparent" points="-4,4 -4,-708 1344,-708 1344,4 -4,4"/>
<!-- _EffectToPhase -->
<g id="node1" class="node">
<title>_EffectToPhase</title>
<polygon fill="#efefef" stroke="transparent" points="507,-622.5 507,-657.5 721,-657.5 721,-622.5 507,-622.5"/>
<polygon fill="none" stroke="#000000" points="507,-622.5 507,-657.5 721,-657.5 721,-622.5 507,-622.5"/>
<text text-anchor="start" x="513.8103" y="-635.3" font-family="Arial Bold" font-size="18.00" fill="#000000">_EffectToPhase</text>
<text text-anchor="start" x="641.8587" y="-635.3" font-family="Arial" font-size="14.00" fill="#000000">    </text>
<text text-anchor="start" x="676.0635" y="-635.3" font-family="Arial" font-size="14.00" fill="#666666">[table]</text>
<polygon fill="none" stroke="#000000" points="507,-592.5 507,-622.5 721,-622.5 721,-592.5 507,-592.5"/>
<text text-anchor="start" x="514" y="-603.9" font-family="Arial" font-size="14.00" fill="#000000">A </text>
<text text-anchor="start" x="527.2272" y="-603.9" font-family="Arial" font-size="14.00" fill="#666666">[TEXT]</text>
<polygon fill="none" stroke="#000000" points="507,-562.5 507,-592.5 721,-592.5 721,-562.5 507,-562.5"/>
<text text-anchor="start" x="514" y="-573.9" font-family="Arial" font-size="14.00" fill="#000000">B </text>
<text text-anchor="start" x="527.2272" y="-573.9" font-family="Arial" font-size="14.00" fill="#666666">[TEXT]</text>
<polygon fill="none" stroke="#000000" stroke-width="3" points="505.5,-561.5 505.5,-659.5 722.5,-659.5 722.5,-561.5 505.5,-561.5"/>
</g>
<!-- Effect -->
<g id="node2" class="node">
<title>Effect</title>
<polygon fill="#efefef" stroke="transparent" points="339,-402.5 339,-437.5 525,-437.5 525,-402.5 339,-402.5"/>
<polygon fill="none" stroke="#000000" points="339,-402.5 339,-437.5 525,-437.5 525,-402.5 339,-402.5"/>
<text text-anchor="start" x="372.826" y="-415.3" font-family="Arial Bold" font-size="18.00" fill="#000000">Effect</text>
<text text-anchor="start" x="418.843" y="-415.3" font-family="Arial" font-size="14.00" fill="#000000">    </text>
<text text-anchor="start" x="453.0478" y="-415.3" font-family="Arial" font-size="14.00" fill="#666666">[table]</text>
<polygon fill="none" stroke="#000000" points="339,-372.5 339,-402.5 525,-402.5 525,-372.5 339,-372.5"/>
<text text-anchor="start" x="346" y="-383.9" font-family="Arial" font-size="14.00" fill="#000000">id    </text>
<text text-anchor="start" x="391.094" y="-383.9" font-family="Arial" font-size="14.00" fill="#666666">[TEXT]</text>
<polygon fill="none" stroke="#000000" points="339,-342.5 339,-372.5 525,-372.5 525,-342.5 339,-342.5"/>
<text text-anchor="start" x="346" y="-353.9" font-family="Arial" font-size="14.00" fill="#000000">name    </text>
<text text-anchor="start" x="415.2132" y="-353.9" font-family="Arial" font-size="14.00" fill="#666666">[TEXT]</text>
<polygon fill="none" stroke="#000000" points="339,-312.5 339,-342.5 525,-342.5 525,-312.5 339,-312.5"/>
<text text-anchor="start" x="346" y="-323.9" font-family="Arial" font-size="14.00" fill="#000000">slug    </text>
<text text-anchor="start" x="405.8766" y="-323.9" font-family="Arial" font-size="14.00" fill="#666666">[TEXT]</text>
<polygon fill="none" stroke="#000000" points="339,-282.5 339,-312.5 525,-312.5 525,-282.5 339,-282.5"/>
<text text-anchor="start" x="346" y="-293.9" font-family="Arial" font-size="14.00" fill="#000000">category    </text>
<text text-anchor="start" x="433.8864" y="-293.9" font-family="Arial" font-size="14.00" fill="#666666">[TEXT]</text>
<polygon fill="none" stroke="#000000" points="339,-252.5 339,-282.5 525,-282.5 525,-252.5 339,-252.5"/>
<text text-anchor="start" x="346" y="-263.9" font-family="Arial" font-size="14.00" fill="#000000">type    </text>
<text text-anchor="start" x="406.6606" y="-263.9" font-family="Arial" font-size="14.00" fill="#666666">[TEXT]</text>
<polygon fill="none" stroke="#000000" points="339,-222.5 339,-252.5 525,-252.5 525,-222.5 339,-222.5"/>
<text text-anchor="start" x="346" y="-233.9" font-family="Arial" font-size="14.00" fill="#000000">tags    </text>
<text text-anchor="start" x="406.6606" y="-233.9" font-family="Arial" font-size="14.00" fill="#666666">[TEXT]</text>
<polygon fill="none" stroke="#000000" points="339,-192.5 339,-222.5 525,-222.5 525,-192.5 339,-192.5"/>
<text text-anchor="start" x="346" y="-203.9" font-family="Arial" font-size="14.00" fill="#000000">summary    </text>
<text text-anchor="start" x="437.7518" y="-203.9" font-family="Arial" font-size="14.00" fill="#666666">[TEXT]</text>
<polygon fill="none" stroke="#000000" points="339,-162.5 339,-192.5 525,-192.5 525,-162.5 339,-162.5"/>
<text text-anchor="start" x="346" y="-173.9" font-family="Arial" font-size="14.00" fill="#000000">description    </text>
<text text-anchor="start" x="447.8822" y="-173.9" font-family="Arial" font-size="14.00" fill="#666666">[TEXT]</text>
<polygon fill="none" stroke="#000000" points="339,-132.5 339,-162.5 525,-162.5 525,-132.5 339,-132.5"/>
<text text-anchor="start" x="346" y="-143.9" font-family="Arial" font-size="14.00" fill="#000000">parameters    </text>
<text text-anchor="start" x="450.9902" y="-143.9" font-family="Arial" font-size="14.00" fill="#666666">[TEXT]</text>
<polygon fill="none" stroke="#000000" points="339,-102.5 339,-132.5 525,-132.5 525,-102.5 339,-102.5"/>
<text text-anchor="start" x="346" y="-113.9" font-family="Arial" font-size="14.00" fill="#000000">see_also    </text>
<text text-anchor="start" x="436.2244" y="-113.9" font-family="Arial" font-size="14.00" fill="#666666">[TEXT]</text>
<polygon fill="none" stroke="#000000" points="339,-72.5 339,-102.5 525,-102.5 525,-72.5 339,-72.5"/>
<text text-anchor="start" x="346" y="-83.9" font-family="Arial" font-size="14.00" fill="#000000">effectindex    </text>
<text text-anchor="start" x="447.8962" y="-83.9" font-family="Arial" font-size="14.00" fill="#666666">[TEXT]</text>
<polygon fill="none" stroke="#000000" points="339,-42.5 339,-72.5 525,-72.5 525,-42.5 339,-42.5"/>
<text text-anchor="start" x="345.6648" y="-53.9" font-family="Arial" font-size="14.00" fill="#000000">psychonautwiki    </text>
<text text-anchor="start" x="474.7756" y="-53.9" font-family="Arial" font-size="14.00" fill="#666666">[TEXT]</text>
</g>
<!-- _EffectToPhase&#45;&gt;Effect -->
<g id="edge1" class="edge">
<title>_EffectToPhase:A&#45;&gt;Effect:id</title>
<path fill="none" stroke="#000000" d="M496.8508,-605.9775C472.8466,-597.1947 498.6974,-552.1704 507,-517 511.1099,-499.59 520.8901,-498.41 525,-481 534.5475,-440.5561 566.5556,-387.5 525,-387.5"/>
<polygon fill="#000000" stroke="#000000" points="497.1107,-606.0164 506.3324,-611.9502 502.0553,-606.7582 507,-607.5 507,-607.5 507,-607.5 502.0553,-606.7582 507.6676,-603.0498 497.1107,-606.0164 497.1107,-606.0164"/>
<text text-anchor="start" x="7.057" y="-617.5" font-family="Arial" font-size="10.00" fill="#000000">FOREIGN KEY (A) REFERENCES Effect (id) ON UPDATE CASCADE ON DELETE CASCADE MATCH NONE</text>
</g>
<!-- route_of_administration_phase -->
<g id="node3" class="node">
<title>route_of_administration_phase</title>
<polygon fill="#efefef" stroke="transparent" points="630,-297.5 630,-332.5 963,-332.5 963,-297.5 630,-297.5"/>
<polygon fill="none" stroke="#000000" points="630,-297.5 630,-332.5 963,-332.5 963,-297.5 630,-297.5"/>
<text text-anchor="start" x="636.7978" y="-310.3" font-family="Arial Bold" font-size="18.00" fill="#000000">route_of_administration_phase</text>
<text text-anchor="start" x="883.8712" y="-310.3" font-family="Arial" font-size="14.00" fill="#000000">    </text>
<text text-anchor="start" x="918.076" y="-310.3" font-family="Arial" font-size="14.00" fill="#666666">[table]</text>
<polygon fill="none" stroke="#000000" points="630,-267.5 630,-297.5 963,-297.5 963,-267.5 630,-267.5"/>
<text text-anchor="start" x="637" y="-278.9" font-family="Arial" font-size="14.00" fill="#000000">id    </text>
<text text-anchor="start" x="682.094" y="-278.9" font-family="Arial" font-size="14.00" fill="#666666">[TEXT]</text>
<polygon fill="none" stroke="#000000" points="630,-237.5 630,-267.5 963,-267.5 963,-237.5 630,-237.5"/>
<text text-anchor="start" x="637" y="-248.9" font-family="Arial" font-size="14.00" fill="#000000">classification    </text>
<text text-anchor="start" x="750.5428" y="-248.9" font-family="Arial" font-size="14.00" fill="#666666">[TEXT]</text>
<polygon fill="none" stroke="#000000" points="630,-207.5 630,-237.5 963,-237.5 963,-207.5 630,-207.5"/>
<text text-anchor="start" x="637" y="-218.9" font-family="Arial" font-size="14.00" fill="#000000">min_duration    </text>
<text text-anchor="start" x="752.108" y="-218.9" font-family="Arial" font-size="14.00" fill="#666666">[INTEGER]</text>
<polygon fill="none" stroke="#000000" points="630,-177.5 630,-207.5 963,-207.5 963,-177.5 630,-177.5"/>
<text text-anchor="start" x="637" y="-188.9" font-family="Arial" font-size="14.00" fill="#000000">max_duration    </text>
<text text-anchor="start" x="756.0014" y="-188.9" font-family="Arial" font-size="14.00" fill="#666666">[INTEGER]</text>
<polygon fill="none" stroke="#000000" points="630,-147.5 630,-177.5 963,-177.5 963,-147.5 630,-147.5"/>
<text text-anchor="start" x="637" y="-158.9" font-family="Arial" font-size="14.00" fill="#000000">routeOfAdministrationId    </text>
<text text-anchor="start" x="818.23" y="-158.9" font-family="Arial" font-size="14.00" fill="#666666">[TEXT]</text>
</g>
<!-- _EffectToPhase&#45;&gt;route_of_administration_phase -->
<g id="edge2" class="edge">
<title>_EffectToPhase:B&#45;&gt;route_of_administration_phase:id</title>
<path fill="none" stroke="#000000" d="M730.7611,-574.89C741.8744,-566.3515 727.3534,-538.5608 721,-517 699.9181,-445.4569 651.0819,-447.5431 630,-376 618.254,-336.139 588.4444,-282.5 630,-282.5"/>
<polygon fill="#000000" stroke="#000000" points="730.6606,-574.9168 719.8376,-573.1527 725.8303,-576.2084 721,-577.5 721,-577.5 721,-577.5 725.8303,-576.2084 722.1624,-581.8473 730.6606,-574.9168 730.6606,-574.9168"/>
<text text-anchor="start" x="728.208" y="-587.5" font-family="Arial" font-size="10.00" fill="#000000">FOREIGN KEY (B) REFERENCES route_of_administration_phase (id) ON UPDATE CASCADE ON DELETE CASCADE MATCH NONE</text>
</g>
</g>
</svg>
