<?xml version="1.0" encoding="UTF-8" standalone="no"?>
<!DOCTYPE svg PUBLIC "-//W3C//DTD SVG 1.1//EN"
 "http://www.w3.org/Graphics/SVG/1.1/DTD/svg11.dtd">
<!-- Generated by graphviz version 2.40.1 (20161225.0304)
 -->
<!-- Title: SubstanceInteraction Pages: 1 -->
<svg width="757pt" height="802pt"
 viewBox="0.00 0.00 756.50 802.00" xmlns="http://www.w3.org/2000/svg" xmlns:xlink="http://www.w3.org/1999/xlink">
<g id="graph0" class="graph" transform="scale(1 1) rotate(0) translate(4 798)">
<title>SubstanceInteraction</title>
<polygon fill="#ffffff" stroke="transparent" points="-4,4 -4,-798 752.5,-798 752.5,4 -4,4"/>
<!-- SubstanceInteraction -->
<g id="node1" class="node">
<title>SubstanceInteraction</title>
<polygon fill="#efefef" stroke="transparent" points="46.5,-712.5 46.5,-747.5 301.5,-747.5 301.5,-712.5 46.5,-712.5"/>
<polygon fill="none" stroke="#000000" points="46.5,-712.5 46.5,-747.5 301.5,-747.5 301.5,-712.5 46.5,-712.5"/>
<text text-anchor="start" x="53.3038" y="-725.3" font-family="Arial Bold" font-size="18.00" fill="#000000">SubstanceInteraction</text>
<text text-anchor="start" x="222.3652" y="-725.3" font-family="Arial" font-size="14.00" fill="#000000">    </text>
<text text-anchor="start" x="256.57" y="-725.3" font-family="Arial" font-size="14.00" fill="#666666">[table]</text>
<polygon fill="none" stroke="#000000" points="46.5,-682.5 46.5,-712.5 301.5,-712.5 301.5,-682.5 46.5,-682.5"/>
<text text-anchor="start" x="53.5" y="-693.9" font-family="Arial" font-size="14.00" fill="#000000">id </text>
<text text-anchor="start" x="68.2798" y="-693.9" font-family="Arial" font-size="14.00" fill="#666666">[TEXT]</text>
<polygon fill="none" stroke="#000000" points="46.5,-652.5 46.5,-682.5 301.5,-682.5 301.5,-652.5 46.5,-652.5"/>
<text text-anchor="start" x="53.5" y="-663.9" font-family="Arial" font-size="14.00" fill="#000000">substanceId </text>
<text text-anchor="start" x="132.8674" y="-663.9" font-family="Arial" font-size="14.00" fill="#666666">[TEXT]</text>
<polygon fill="none" stroke="#000000" stroke-width="3" points="44.5,-651.5 44.5,-749.5 302.5,-749.5 302.5,-651.5 44.5,-651.5"/>
</g>
<!-- substance -->
<g id="node2" class="node">
<title>substance</title>
<polygon fill="#efefef" stroke="transparent" points="68.5,-492.5 68.5,-527.5 280.5,-527.5 280.5,-492.5 68.5,-492.5"/>
<polygon fill="none" stroke="#000000" points="68.5,-492.5 68.5,-527.5 280.5,-527.5 280.5,-492.5 68.5,-492.5"/>
<text text-anchor="start" x="97.3179" y="-505.3" font-family="Arial Bold" font-size="18.00" fill="#000000">substance</text>
<text text-anchor="start" x="179.3511" y="-505.3" font-family="Arial" font-size="14.00" fill="#000000">    </text>
<text text-anchor="start" x="213.5559" y="-505.3" font-family="Arial" font-size="14.00" fill="#666666">[table]</text>
<polygon fill="none" stroke="#000000" points="68.5,-462.5 68.5,-492.5 280.5,-492.5 280.5,-462.5 68.5,-462.5"/>
<text text-anchor="start" x="75.5" y="-473.9" font-family="Arial" font-size="14.00" fill="#000000">id    </text>
<text text-anchor="start" x="120.594" y="-473.9" font-family="Arial" font-size="14.00" fill="#666666">[TEXT]</text>
<polygon fill="none" stroke="#000000" points="68.5,-432.5 68.5,-462.5 280.5,-462.5 280.5,-432.5 68.5,-432.5"/>
<text text-anchor="start" x="75.5" y="-443.9" font-family="Arial" font-size="14.00" fill="#000000">name    </text>
<text text-anchor="start" x="144.7132" y="-443.9" font-family="Arial" font-size="14.00" fill="#666666">[TEXT]</text>
<polygon fill="none" stroke="#000000" points="68.5,-402.5 68.5,-432.5 280.5,-432.5 280.5,-402.5 68.5,-402.5"/>
<text text-anchor="start" x="75.5" y="-413.9" font-family="Arial" font-size="14.00" fill="#000000">common_names    </text>
<text text-anchor="start" x="213.1648" y="-413.9" font-family="Arial" font-size="14.00" fill="#666666">[TEXT]</text>
<polygon fill="none" stroke="#000000" points="68.5,-372.5 68.5,-402.5 280.5,-402.5 280.5,-372.5 68.5,-372.5"/>
<text text-anchor="start" x="75.5" y="-383.9" font-family="Arial" font-size="14.00" fill="#000000">brand_names    </text>
<text text-anchor="start" x="195.2868" y="-383.9" font-family="Arial" font-size="14.00" fill="#666666">[TEXT]</text>
<polygon fill="none" stroke="#000000" points="68.5,-342.5 68.5,-372.5 280.5,-372.5 280.5,-342.5 68.5,-342.5"/>
<text text-anchor="start" x="75.5" y="-353.9" font-family="Arial" font-size="14.00" fill="#000000">substitutive_name    </text>
<text text-anchor="start" x="222.5112" y="-353.9" font-family="Arial" font-size="14.00" fill="#666666">[TEXT]</text>
<polygon fill="none" stroke="#000000" points="68.5,-312.5 68.5,-342.5 280.5,-342.5 280.5,-312.5 68.5,-312.5"/>
<text text-anchor="start" x="75.5" y="-323.9" font-family="Arial" font-size="14.00" fill="#000000">systematic_name    </text>
<text text-anchor="start" x="218.6094" y="-323.9" font-family="Arial" font-size="14.00" fill="#666666">[TEXT]</text>
<polygon fill="none" stroke="#000000" points="68.5,-282.5 68.5,-312.5 280.5,-312.5 280.5,-282.5 68.5,-282.5"/>
<text text-anchor="start" x="75.5" y="-293.9" font-family="Arial" font-size="14.00" fill="#000000">pubchem_cid    </text>
<text text-anchor="start" x="192.9502" y="-293.9" font-family="Arial" font-size="14.00" fill="#666666">[INTEGER]</text>
<polygon fill="none" stroke="#000000" points="68.5,-252.5 68.5,-282.5 280.5,-282.5 280.5,-252.5 68.5,-252.5"/>
<text text-anchor="start" x="75.5" y="-263.9" font-family="Arial" font-size="14.00" fill="#000000">unii    </text>
<text text-anchor="start" x="131.4832" y="-263.9" font-family="Arial" font-size="14.00" fill="#666666">[TEXT]</text>
<polygon fill="none" stroke="#000000" points="68.5,-222.5 68.5,-252.5 280.5,-252.5 280.5,-222.5 68.5,-222.5"/>
<text text-anchor="start" x="75.5" y="-233.9" font-family="Arial" font-size="14.00" fill="#000000">cas_number    </text>
<text text-anchor="start" x="186.7216" y="-233.9" font-family="Arial" font-size="14.00" fill="#666666">[TEXT]</text>
<polygon fill="none" stroke="#000000" points="68.5,-192.5 68.5,-222.5 280.5,-222.5 280.5,-192.5 68.5,-192.5"/>
<text text-anchor="start" x="75.5" y="-203.9" font-family="Arial" font-size="14.00" fill="#000000">inchi_key    </text>
<text text-anchor="start" x="168.0484" y="-203.9" font-family="Arial" font-size="14.00" fill="#666666">[TEXT]</text>
<polygon fill="none" stroke="#000000" points="68.5,-162.5 68.5,-192.5 280.5,-192.5 280.5,-162.5 68.5,-162.5"/>
<text text-anchor="start" x="75.5" y="-173.9" font-family="Arial" font-size="14.00" fill="#000000">smiles    </text>
<text text-anchor="start" x="149.3612" y="-173.9" font-family="Arial" font-size="14.00" fill="#666666">[TEXT]</text>
<polygon fill="none" stroke="#000000" points="68.5,-132.5 68.5,-162.5 280.5,-162.5 280.5,-132.5 68.5,-132.5"/>
<text text-anchor="start" x="75.5" y="-143.9" font-family="Arial" font-size="14.00" fill="#000000">psychonautwiki_url    </text>
<text text-anchor="start" x="227.9432" y="-143.9" font-family="Arial" font-size="14.00" fill="#666666">[TEXT]</text>
<polygon fill="none" stroke="#000000" points="68.5,-102.5 68.5,-132.5 280.5,-132.5 280.5,-102.5 68.5,-102.5"/>
<text text-anchor="start" x="75.3268" y="-113.9" font-family="Arial" font-size="14.00" fill="#000000">psychoactive_class    </text>
<text text-anchor="start" x="230.1136" y="-113.9" font-family="Arial" font-size="14.00" fill="#666666">[TEXT]</text>
<polygon fill="none" stroke="#000000" points="68.5,-72.5 68.5,-102.5 280.5,-102.5 280.5,-72.5 68.5,-72.5"/>
<text text-anchor="start" x="75.5" y="-83.9" font-family="Arial" font-size="14.00" fill="#000000">chemical_class    </text>
<text text-anchor="start" x="204.5982" y="-83.9" font-family="Arial" font-size="14.00" fill="#666666">[TEXT]</text>
<polygon fill="none" stroke="#000000" points="68.5,-42.5 68.5,-72.5 280.5,-72.5 280.5,-42.5 68.5,-42.5"/>
<text text-anchor="start" x="75.5" y="-53.9" font-family="Arial" font-size="14.00" fill="#000000">description    </text>
<text text-anchor="start" x="177.3822" y="-53.9" font-family="Arial" font-size="14.00" fill="#666666">[TEXT]</text>
</g>
<!-- SubstanceInteraction&#45;&gt;substance -->
<g id="edge1" class="edge">
<title>SubstanceInteraction:substanceId&#45;&gt;substance:id</title>
<path fill="none" stroke="#000000" d="M173.598,-642.3772C164.7412,-596.6479 93.1167,-620.9788 68.5,-571 50.1385,-533.7211 26.9444,-477.5 68.5,-477.5"/>
<polygon fill="#000000" stroke="#000000" points="173.6124,-642.5395 170.0178,-652.8994 174.0562,-647.5197 174.5,-652.5 174.5,-652.5 174.5,-652.5 174.0562,-647.5197 178.9822,-652.1006 173.6124,-642.5395 173.6124,-642.5395"/>
<text text-anchor="start" x="181.2065" y="-662.5" font-family="Arial" font-size="10.00" fill="#000000">FOREIGN KEY (substanceId) REFERENCES substance (id) ON UPDATE CASCADE ON DELETE SET NULL MATCH NONE</text>
</g>
</g>
</svg>
