<?xml version="1.0" encoding="UTF-8" standalone="no"?>
<!DOCTYPE svg PUBLIC "-//W3C//DTD SVG 1.1//EN"
 "http://www.w3.org/Graphics/SVG/1.1/DTD/svg11.dtd">
<!-- Generated by graphviz version 2.40.1 (20161225.0304)
 -->
<!-- Title: Account Pages: 1 -->
<svg width="710pt" height="592pt"
 viewBox="0.00 0.00 709.50 592.00" xmlns="http://www.w3.org/2000/svg" xmlns:xlink="http://www.w3.org/1999/xlink">
<g id="graph0" class="graph" transform="scale(1 1) rotate(0) translate(4 588)">
<title>Account</title>
<polygon fill="#ffffff" stroke="transparent" points="-4,4 -4,-588 705.5,-588 705.5,4 -4,4"/>
<!-- Account -->
<g id="node1" class="node">
<title>Account</title>
<polygon fill="#efefef" stroke="transparent" points="66.5,-135.5 66.5,-170.5 217.5,-170.5 217.5,-135.5 66.5,-135.5"/>
<polygon fill="none" stroke="#000000" points="66.5,-135.5 66.5,-170.5 217.5,-170.5 217.5,-135.5 66.5,-135.5"/>
<text text-anchor="start" x="73.322" y="-148.3" font-family="Arial Bold" font-size="18.00" fill="#000000">Account</text>
<text text-anchor="start" x="138.347" y="-148.3" font-family="Arial" font-size="14.00" fill="#000000">    </text>
<text text-anchor="start" x="172.5518" y="-148.3" font-family="Arial" font-size="14.00" fill="#666666">[table]</text>
<polygon fill="none" stroke="#000000" points="66.5,-105.5 66.5,-135.5 217.5,-135.5 217.5,-105.5 66.5,-105.5"/>
<text text-anchor="start" x="73.5" y="-116.9" font-family="Arial" font-size="14.00" fill="#000000">id </text>
<text text-anchor="start" x="88.2798" y="-116.9" font-family="Arial" font-size="14.00" fill="#666666">[TEXT]</text>
<polygon fill="none" stroke="#000000" points="66.5,-75.5 66.5,-105.5 217.5,-105.5 217.5,-75.5 66.5,-75.5"/>
<text text-anchor="start" x="73.5" y="-86.9" font-family="Arial" font-size="14.00" fill="#000000">username </text>
<text text-anchor="start" x="139.6248" y="-86.9" font-family="Arial" font-size="14.00" fill="#666666">[TEXT]</text>
<polygon fill="none" stroke="#000000" points="66.5,-45.5 66.5,-75.5 217.5,-75.5 217.5,-45.5 66.5,-45.5"/>
<text text-anchor="start" x="73.5" y="-56.9" font-family="Arial" font-size="14.00" fill="#000000">password </text>
<text text-anchor="start" x="137.2882" y="-56.9" font-family="Arial" font-size="14.00" fill="#666666">[TEXT]</text>
<polygon fill="none" stroke="#000000" stroke-width="3" points="64.5,-44.5 64.5,-172.5 218.5,-172.5 218.5,-44.5 64.5,-44.5"/>
</g>
<!-- Subject -->
<g id="node2" class="node">
<title>Subject</title>
<polygon fill="#efefef" stroke="transparent" points="43.5,-505.5 43.5,-540.5 240.5,-540.5 240.5,-505.5 43.5,-505.5"/>
<polygon fill="none" stroke="#000000" points="43.5,-505.5 43.5,-540.5 240.5,-540.5 240.5,-505.5 43.5,-505.5"/>
<text text-anchor="start" x="75.8249" y="-518.3" font-family="Arial Bold" font-size="18.00" fill="#000000">Subject</text>
<text text-anchor="start" x="135.8441" y="-518.3" font-family="Arial" font-size="14.00" fill="#000000">    </text>
<text text-anchor="start" x="170.0489" y="-518.3" font-family="Arial" font-size="14.00" fill="#666666">[table]</text>
<polygon fill="none" stroke="#000000" points="43.5,-475.5 43.5,-505.5 240.5,-505.5 240.5,-475.5 43.5,-475.5"/>
<text text-anchor="start" x="50.5" y="-486.9" font-family="Arial" font-size="14.00" fill="#000000">id    </text>
<text text-anchor="start" x="95.594" y="-486.9" font-family="Arial" font-size="14.00" fill="#666666">[TEXT]</text>
<polygon fill="none" stroke="#000000" points="43.5,-445.5 43.5,-475.5 240.5,-475.5 240.5,-445.5 43.5,-445.5"/>
<text text-anchor="start" x="50.5" y="-456.9" font-family="Arial" font-size="14.00" fill="#000000">firstName    </text>
<text text-anchor="start" x="144.5856" y="-456.9" font-family="Arial" font-size="14.00" fill="#666666">[TEXT]</text>
<polygon fill="none" stroke="#000000" points="43.5,-415.5 43.5,-445.5 240.5,-445.5 240.5,-415.5 43.5,-415.5"/>
<text text-anchor="start" x="50.5" y="-426.9" font-family="Arial" font-size="14.00" fill="#000000">lastName    </text>
<text text-anchor="start" x="143.817" y="-426.9" font-family="Arial" font-size="14.00" fill="#666666">[TEXT]</text>
<polygon fill="none" stroke="#000000" points="43.5,-385.5 43.5,-415.5 240.5,-415.5 240.5,-385.5 43.5,-385.5"/>
<text text-anchor="start" x="50.2223" y="-396.9" font-family="Arial" font-size="14.00" fill="#000000">dateOfBirth    </text>
<text text-anchor="start" x="155.2237" y="-396.9" font-family="Arial" font-size="14.00" fill="#666666">[DATETIME]</text>
<polygon fill="none" stroke="#000000" points="43.5,-355.5 43.5,-385.5 240.5,-385.5 240.5,-355.5 43.5,-355.5"/>
<text text-anchor="start" x="50.5" y="-366.9" font-family="Arial" font-size="14.00" fill="#000000">weight    </text>
<text text-anchor="start" x="125.1564" y="-366.9" font-family="Arial" font-size="14.00" fill="#666666">[INTEGER]</text>
<polygon fill="none" stroke="#000000" points="43.5,-325.5 43.5,-355.5 240.5,-355.5 240.5,-325.5 43.5,-325.5"/>
<text text-anchor="start" x="50.5" y="-336.9" font-family="Arial" font-size="14.00" fill="#000000">height    </text>
<text text-anchor="start" x="122.8324" y="-336.9" font-family="Arial" font-size="14.00" fill="#666666">[INTEGER]</text>
<polygon fill="none" stroke="#000000" points="43.5,-295.5 43.5,-325.5 240.5,-325.5 240.5,-295.5 43.5,-295.5"/>
<text text-anchor="start" x="50.5" y="-306.9" font-family="Arial" font-size="14.00" fill="#000000">account_id    </text>
<text text-anchor="start" x="152.3976" y="-306.9" font-family="Arial" font-size="14.00" fill="#666666">[TEXT]</text>
</g>
<!-- Subject&#45;&gt;Account -->
<g id="edge1" class="edge">
<title>Subject:account_id&#45;&gt;Account:id</title>
<path fill="none" stroke="#000000" d="M141.4884,-285.2247C133.7133,-248.9276 83.2965,-258.4967 66.5,-217 50.4082,-177.2444 23.6111,-120.5 66.5,-120.5"/>
<polygon fill="#000000" stroke="#000000" points="141.5202,-285.5481 138.0216,-295.9409 142.0101,-290.5241 142.5,-295.5 142.5,-295.5 142.5,-295.5 142.0101,-290.5241 146.9784,-295.0591 141.5202,-285.5481 141.5202,-285.5481"/>
<text text-anchor="start" x="149.711" y="-305.5" font-family="Arial" font-size="10.00" fill="#000000">FOREIGN KEY (account_id) REFERENCES Account (id) ON UPDATE CASCADE ON DELETE SET NULL MATCH NONE</text>
</g>
</g>
</svg>
