<?xml version="1.0" encoding="UTF-8" standalone="no"?>
<!DOCTYPE svg PUBLIC "-//W3C//DTD SVG 1.1//EN"
 "http://www.w3.org/Graphics/SVG/1.1/DTD/svg11.dtd">
<!-- Generated by graphviz version 2.40.1 (20161225.0304)
 -->
<!-- Title: Effect Pages: 1 -->
<svg width="772pt" height="712pt"
 viewBox="0.00 0.00 772.00 712.00" xmlns="http://www.w3.org/2000/svg" xmlns:xlink="http://www.w3.org/1999/xlink">
<g id="graph0" class="graph" transform="scale(1 1) rotate(0) translate(4 708)">
<title>Effect</title>
<polygon fill="#ffffff" stroke="transparent" points="-4,4 -4,-708 768,-708 768,4 -4,4"/>
<!-- Effect -->
<g id="node1" class="node">
<title>Effect</title>
<polygon fill="#efefef" stroke="transparent" points="72,-405.5 72,-440.5 228,-440.5 228,-405.5 72,-405.5"/>
<polygon fill="none" stroke="#000000" points="72,-405.5 72,-440.5 228,-440.5 228,-405.5 72,-405.5"/>
<text text-anchor="start" x="90.826" y="-418.3" font-family="Arial Bold" font-size="18.00" fill="#000000">Effect</text>
<text text-anchor="start" x="136.843" y="-418.3" font-family="Arial" font-size="14.00" fill="#000000">    </text>
<text text-anchor="start" x="171.0478" y="-418.3" font-family="Arial" font-size="14.00" fill="#666666">[table]</text>
<polygon fill="none" stroke="#000000" points="72,-375.5 72,-405.5 228,-405.5 228,-375.5 72,-375.5"/>
<text text-anchor="start" x="79" y="-386.9" font-family="Arial" font-size="14.00" fill="#000000">id </text>
<text text-anchor="start" x="93.7798" y="-386.9" font-family="Arial" font-size="14.00" fill="#666666">[TEXT]</text>
<polygon fill="none" stroke="#000000" points="72,-345.5 72,-375.5 228,-375.5 228,-345.5 72,-345.5"/>
<text text-anchor="start" x="79" y="-356.9" font-family="Arial" font-size="14.00" fill="#000000">name </text>
<text text-anchor="start" x="117.899" y="-356.9" font-family="Arial" font-size="14.00" fill="#666666">[TEXT]</text>
<polygon fill="none" stroke="#000000" points="72,-315.5 72,-345.5 228,-345.5 228,-315.5 72,-315.5"/>
<text text-anchor="start" x="79" y="-326.9" font-family="Arial" font-size="14.00" fill="#000000">slug </text>
<text text-anchor="start" x="108.5624" y="-326.9" font-family="Arial" font-size="14.00" fill="#666666">[TEXT]</text>
<polygon fill="none" stroke="#000000" points="72,-285.5 72,-315.5 228,-315.5 228,-285.5 72,-285.5"/>
<text text-anchor="start" x="79" y="-296.9" font-family="Arial" font-size="14.00" fill="#000000">category </text>
<text text-anchor="start" x="136.5722" y="-296.9" font-family="Arial" font-size="14.00" fill="#666666">[TEXT]</text>
<polygon fill="none" stroke="#000000" points="72,-255.5 72,-285.5 228,-285.5 228,-255.5 72,-255.5"/>
<text text-anchor="start" x="79" y="-266.9" font-family="Arial" font-size="14.00" fill="#000000">type </text>
<text text-anchor="start" x="109.3464" y="-266.9" font-family="Arial" font-size="14.00" fill="#666666">[TEXT]</text>
<polygon fill="none" stroke="#000000" points="72,-225.5 72,-255.5 228,-255.5 228,-225.5 72,-225.5"/>
<text text-anchor="start" x="79" y="-236.9" font-family="Arial" font-size="14.00" fill="#000000">tags </text>
<text text-anchor="start" x="109.3464" y="-236.9" font-family="Arial" font-size="14.00" fill="#666666">[TEXT]</text>
<polygon fill="none" stroke="#000000" points="72,-195.5 72,-225.5 228,-225.5 228,-195.5 72,-195.5"/>
<text text-anchor="start" x="79" y="-206.9" font-family="Arial" font-size="14.00" fill="#000000">summary </text>
<text text-anchor="start" x="140.4376" y="-206.9" font-family="Arial" font-size="14.00" fill="#666666">[TEXT]</text>
<polygon fill="none" stroke="#000000" points="72,-165.5 72,-195.5 228,-195.5 228,-165.5 72,-165.5"/>
<text text-anchor="start" x="79" y="-176.9" font-family="Arial" font-size="14.00" fill="#000000">description </text>
<text text-anchor="start" x="150.568" y="-176.9" font-family="Arial" font-size="14.00" fill="#666666">[TEXT]</text>
<polygon fill="none" stroke="#000000" points="72,-135.5 72,-165.5 228,-165.5 228,-135.5 72,-135.5"/>
<text text-anchor="start" x="79" y="-146.9" font-family="Arial" font-size="14.00" fill="#000000">parameters </text>
<text text-anchor="start" x="153.676" y="-146.9" font-family="Arial" font-size="14.00" fill="#666666">[TEXT]</text>
<polygon fill="none" stroke="#000000" points="72,-105.5 72,-135.5 228,-135.5 228,-105.5 72,-105.5"/>
<text text-anchor="start" x="79" y="-116.9" font-family="Arial" font-size="14.00" fill="#000000">see_also </text>
<text text-anchor="start" x="138.9102" y="-116.9" font-family="Arial" font-size="14.00" fill="#666666">[TEXT]</text>
<polygon fill="none" stroke="#000000" points="72,-75.5 72,-105.5 228,-105.5 228,-75.5 72,-75.5"/>
<text text-anchor="start" x="79" y="-86.9" font-family="Arial" font-size="14.00" fill="#000000">effectindex </text>
<text text-anchor="start" x="150.582" y="-86.9" font-family="Arial" font-size="14.00" fill="#666666">[TEXT]</text>
<polygon fill="none" stroke="#000000" points="72,-45.5 72,-75.5 228,-75.5 228,-45.5 72,-45.5"/>
<text text-anchor="start" x="78.8219" y="-56.9" font-family="Arial" font-size="14.00" fill="#000000">psychonautwiki </text>
<text text-anchor="start" x="177.6185" y="-56.9" font-family="Arial" font-size="14.00" fill="#666666">[TEXT]</text>
<polygon fill="none" stroke="#000000" stroke-width="3" points="70.5,-44.5 70.5,-442.5 229.5,-442.5 229.5,-44.5 70.5,-44.5"/>
</g>
<!-- _EffectToPhase -->
<g id="node2" class="node">
<title>_EffectToPhase</title>
<polygon fill="#efefef" stroke="transparent" points="43,-625.5 43,-660.5 257,-660.5 257,-625.5 43,-625.5"/>
<polygon fill="none" stroke="#000000" points="43,-625.5 43,-660.5 257,-660.5 257,-625.5 43,-625.5"/>
<text text-anchor="start" x="49.8103" y="-638.3" font-family="Arial Bold" font-size="18.00" fill="#000000">_EffectToPhase</text>
<text text-anchor="start" x="177.8587" y="-638.3" font-family="Arial" font-size="14.00" fill="#000000">    </text>
<text text-anchor="start" x="212.0635" y="-638.3" font-family="Arial" font-size="14.00" fill="#666666">[table]</text>
<polygon fill="none" stroke="#000000" points="43,-595.5 43,-625.5 257,-625.5 257,-595.5 43,-595.5"/>
<text text-anchor="start" x="50" y="-606.9" font-family="Arial" font-size="14.00" fill="#000000">A    </text>
<text text-anchor="start" x="93.5414" y="-606.9" font-family="Arial" font-size="14.00" fill="#666666">[TEXT]</text>
<polygon fill="none" stroke="#000000" points="43,-565.5 43,-595.5 257,-595.5 257,-565.5 43,-565.5"/>
<text text-anchor="start" x="50" y="-576.9" font-family="Arial" font-size="14.00" fill="#000000">B    </text>
<text text-anchor="start" x="93.5414" y="-576.9" font-family="Arial" font-size="14.00" fill="#666666">[TEXT]</text>
</g>
<!-- _EffectToPhase&#45;&gt;Effect -->
<g id="edge1" class="edge">
<title>_EffectToPhase:A&#45;&gt;Effect:id</title>
<path fill="none" stroke="#000000" d="M267.1935,-609.6591C353.437,-594.8888 323.0601,-390.5 228,-390.5"/>
<polygon fill="#000000" stroke="#000000" points="266.9661,-609.6777 256.63,-606.0152 261.9831,-610.0889 257,-610.5 257,-610.5 257,-610.5 261.9831,-610.0889 257.37,-614.9848 266.9661,-609.6777 266.9661,-609.6777"/>
<text text-anchor="start" x="264.057" y="-620.5" font-family="Arial" font-size="10.00" fill="#000000">FOREIGN KEY (A) REFERENCES Effect (id) ON UPDATE CASCADE ON DELETE CASCADE MATCH NONE</text>
</g>
</g>
</svg>
