<?xml version="1.0" encoding="UTF-8" standalone="no"?>
<!DOCTYPE svg PUBLIC "-//W3C//DTD SVG 1.1//EN"
 "http://www.w3.org/Graphics/SVG/1.1/DTD/svg11.dtd">
<!-- Generated by graphviz version 2.40.1 (20161225.0304)
 -->
<!-- Title: Ingestion Pages: 1 -->
<svg width="1363pt" height="1012pt"
 viewBox="0.00 0.00 1363.00 1012.00" xmlns="http://www.w3.org/2000/svg" xmlns:xlink="http://www.w3.org/1999/xlink">
<g id="graph0" class="graph" transform="scale(1 1) rotate(0) translate(4 1008)">
<title>Ingestion</title>
<polygon fill="#ffffff" stroke="transparent" points="-4,4 -4,-1008 1359,-1008 1359,4 -4,4"/>
<!-- Ingestion -->
<g id="node1" class="node">
<title>Ingestion</title>
<polygon fill="#efefef" stroke="transparent" points="610,-922.5 610,-957.5 823,-957.5 823,-922.5 610,-922.5"/>
<polygon fill="none" stroke="#000000" points="610,-922.5 610,-957.5 823,-957.5 823,-922.5 610,-922.5"/>
<text text-anchor="start" x="643.8197" y="-935.3" font-family="Arial Bold" font-size="18.00" fill="#000000">Ingestion</text>
<text text-anchor="start" x="716.8493" y="-935.3" font-family="Arial" font-size="14.00" fill="#000000">    </text>
<text text-anchor="start" x="751.0541" y="-935.3" font-family="Arial" font-size="14.00" fill="#666666">[table]</text>
<polygon fill="none" stroke="#000000" points="610,-892.5 610,-922.5 823,-922.5 823,-892.5 610,-892.5"/>
<text text-anchor="start" x="617" y="-903.9" font-family="Arial" font-size="14.00" fill="#000000">id </text>
<text text-anchor="start" x="631.7798" y="-903.9" font-family="Arial" font-size="14.00" fill="#666666">[TEXT]</text>
<polygon fill="none" stroke="#000000" points="610,-862.5 610,-892.5 823,-892.5 823,-862.5 610,-862.5"/>
<text text-anchor="start" x="617" y="-873.9" font-family="Arial" font-size="14.00" fill="#000000">substanceName </text>
<text text-anchor="start" x="722.0266" y="-873.9" font-family="Arial" font-size="14.00" fill="#666666">[TEXT]</text>
<polygon fill="none" stroke="#000000" points="610,-832.5 610,-862.5 823,-862.5 823,-832.5 610,-832.5"/>
<text text-anchor="start" x="617" y="-843.9" font-family="Arial" font-size="14.00" fill="#000000">routeOfAdministration </text>
<text text-anchor="start" x="756.2426" y="-843.9" font-family="Arial" font-size="14.00" fill="#666666">[TEXT]</text>
<polygon fill="none" stroke="#000000" points="610,-802.5 610,-832.5 823,-832.5 823,-802.5 610,-802.5"/>
<text text-anchor="start" x="617" y="-813.9" font-family="Arial" font-size="14.00" fill="#000000">dosage_unit </text>
<text text-anchor="start" x="697.1486" y="-813.9" font-family="Arial" font-size="14.00" fill="#666666">[TEXT]</text>
<polygon fill="none" stroke="#000000" points="610,-772.5 610,-802.5 823,-802.5 823,-772.5 610,-772.5"/>
<text text-anchor="start" x="617" y="-783.9" font-family="Arial" font-size="14.00" fill="#000000">dosage_amount </text>
<text text-anchor="start" x="721.2678" y="-783.9" font-family="Arial" font-size="14.00" fill="#666666">[INTEGER]</text>
<polygon fill="none" stroke="#000000" points="610,-742.5 610,-772.5 823,-772.5 823,-742.5 610,-742.5"/>
<text text-anchor="start" x="616.5358" y="-753.9" font-family="Arial" font-size="14.00" fill="#000000">isEstimatedDosage </text>
<text text-anchor="start" x="741.0028" y="-753.9" font-family="Arial" font-size="14.00" fill="#666666">[BOOLEAN]</text>
<polygon fill="none" stroke="#000000" points="610,-712.5 610,-742.5 823,-742.5 823,-712.5 610,-712.5"/>
<text text-anchor="start" x="617" y="-723.9" font-family="Arial" font-size="14.00" fill="#000000">date </text>
<text text-anchor="start" x="648.129" y="-723.9" font-family="Arial" font-size="14.00" fill="#666666">[DATETIME]</text>
<polygon fill="none" stroke="#000000" points="610,-682.5 610,-712.5 823,-712.5 823,-682.5 610,-682.5"/>
<text text-anchor="start" x="617" y="-693.9" font-family="Arial" font-size="14.00" fill="#000000">subject_id </text>
<text text-anchor="start" x="683.9074" y="-693.9" font-family="Arial" font-size="14.00" fill="#666666">[TEXT]</text>
<polygon fill="none" stroke="#000000" points="610,-652.5 610,-682.5 823,-682.5 823,-652.5 610,-652.5"/>
<text text-anchor="start" x="617" y="-663.9" font-family="Arial" font-size="14.00" fill="#000000">stashId </text>
<text text-anchor="start" x="666.0196" y="-663.9" font-family="Arial" font-size="14.00" fill="#666666">[TEXT]</text>
<polygon fill="none" stroke="#000000" stroke-width="3" points="608,-651.5 608,-959.5 824,-959.5 824,-651.5 608,-651.5"/>
</g>
<!-- substance -->
<g id="node2" class="node">
<title>substance</title>
<polygon fill="#efefef" stroke="transparent" points="301,-492.5 301,-527.5 513,-527.5 513,-492.5 301,-492.5"/>
<polygon fill="none" stroke="#000000" points="301,-492.5 301,-527.5 513,-527.5 513,-492.5 301,-492.5"/>
<text text-anchor="start" x="329.8179" y="-505.3" font-family="Arial Bold" font-size="18.00" fill="#000000">substance</text>
<text text-anchor="start" x="411.8511" y="-505.3" font-family="Arial" font-size="14.00" fill="#000000">    </text>
<text text-anchor="start" x="446.0559" y="-505.3" font-family="Arial" font-size="14.00" fill="#666666">[table]</text>
<polygon fill="none" stroke="#000000" points="301,-462.5 301,-492.5 513,-492.5 513,-462.5 301,-462.5"/>
<text text-anchor="start" x="308" y="-473.9" font-family="Arial" font-size="14.00" fill="#000000">id    </text>
<text text-anchor="start" x="353.094" y="-473.9" font-family="Arial" font-size="14.00" fill="#666666">[TEXT]</text>
<polygon fill="none" stroke="#000000" points="301,-432.5 301,-462.5 513,-462.5 513,-432.5 301,-432.5"/>
<text text-anchor="start" x="308" y="-443.9" font-family="Arial" font-size="14.00" fill="#000000">name    </text>
<text text-anchor="start" x="377.2132" y="-443.9" font-family="Arial" font-size="14.00" fill="#666666">[TEXT]</text>
<polygon fill="none" stroke="#000000" points="301,-402.5 301,-432.5 513,-432.5 513,-402.5 301,-402.5"/>
<text text-anchor="start" x="308" y="-413.9" font-family="Arial" font-size="14.00" fill="#000000">common_names    </text>
<text text-anchor="start" x="445.6648" y="-413.9" font-family="Arial" font-size="14.00" fill="#666666">[TEXT]</text>
<polygon fill="none" stroke="#000000" points="301,-372.5 301,-402.5 513,-402.5 513,-372.5 301,-372.5"/>
<text text-anchor="start" x="308" y="-383.9" font-family="Arial" font-size="14.00" fill="#000000">brand_names    </text>
<text text-anchor="start" x="427.7868" y="-383.9" font-family="Arial" font-size="14.00" fill="#666666">[TEXT]</text>
<polygon fill="none" stroke="#000000" points="301,-342.5 301,-372.5 513,-372.5 513,-342.5 301,-342.5"/>
<text text-anchor="start" x="308" y="-353.9" font-family="Arial" font-size="14.00" fill="#000000">substitutive_name    </text>
<text text-anchor="start" x="455.0112" y="-353.9" font-family="Arial" font-size="14.00" fill="#666666">[TEXT]</text>
<polygon fill="none" stroke="#000000" points="301,-312.5 301,-342.5 513,-342.5 513,-312.5 301,-312.5"/>
<text text-anchor="start" x="308" y="-323.9" font-family="Arial" font-size="14.00" fill="#000000">systematic_name    </text>
<text text-anchor="start" x="451.1094" y="-323.9" font-family="Arial" font-size="14.00" fill="#666666">[TEXT]</text>
<polygon fill="none" stroke="#000000" points="301,-282.5 301,-312.5 513,-312.5 513,-282.5 301,-282.5"/>
<text text-anchor="start" x="308" y="-293.9" font-family="Arial" font-size="14.00" fill="#000000">pubchem_cid    </text>
<text text-anchor="start" x="425.4502" y="-293.9" font-family="Arial" font-size="14.00" fill="#666666">[INTEGER]</text>
<polygon fill="none" stroke="#000000" points="301,-252.5 301,-282.5 513,-282.5 513,-252.5 301,-252.5"/>
<text text-anchor="start" x="308" y="-263.9" font-family="Arial" font-size="14.00" fill="#000000">unii    </text>
<text text-anchor="start" x="363.9832" y="-263.9" font-family="Arial" font-size="14.00" fill="#666666">[TEXT]</text>
<polygon fill="none" stroke="#000000" points="301,-222.5 301,-252.5 513,-252.5 513,-222.5 301,-222.5"/>
<text text-anchor="start" x="308" y="-233.9" font-family="Arial" font-size="14.00" fill="#000000">cas_number    </text>
<text text-anchor="start" x="419.2216" y="-233.9" font-family="Arial" font-size="14.00" fill="#666666">[TEXT]</text>
<polygon fill="none" stroke="#000000" points="301,-192.5 301,-222.5 513,-222.5 513,-192.5 301,-192.5"/>
<text text-anchor="start" x="308" y="-203.9" font-family="Arial" font-size="14.00" fill="#000000">inchi_key    </text>
<text text-anchor="start" x="400.5484" y="-203.9" font-family="Arial" font-size="14.00" fill="#666666">[TEXT]</text>
<polygon fill="none" stroke="#000000" points="301,-162.5 301,-192.5 513,-192.5 513,-162.5 301,-162.5"/>
<text text-anchor="start" x="308" y="-173.9" font-family="Arial" font-size="14.00" fill="#000000">smiles    </text>
<text text-anchor="start" x="381.8612" y="-173.9" font-family="Arial" font-size="14.00" fill="#666666">[TEXT]</text>
<polygon fill="none" stroke="#000000" points="301,-132.5 301,-162.5 513,-162.5 513,-132.5 301,-132.5"/>
<text text-anchor="start" x="308" y="-143.9" font-family="Arial" font-size="14.00" fill="#000000">psychonautwiki_url    </text>
<text text-anchor="start" x="460.4432" y="-143.9" font-family="Arial" font-size="14.00" fill="#666666">[TEXT]</text>
<polygon fill="none" stroke="#000000" points="301,-102.5 301,-132.5 513,-132.5 513,-102.5 301,-102.5"/>
<text text-anchor="start" x="307.8268" y="-113.9" font-family="Arial" font-size="14.00" fill="#000000">psychoactive_class    </text>
<text text-anchor="start" x="462.6136" y="-113.9" font-family="Arial" font-size="14.00" fill="#666666">[TEXT]</text>
<polygon fill="none" stroke="#000000" points="301,-72.5 301,-102.5 513,-102.5 513,-72.5 301,-72.5"/>
<text text-anchor="start" x="308" y="-83.9" font-family="Arial" font-size="14.00" fill="#000000">chemical_class    </text>
<text text-anchor="start" x="437.0982" y="-83.9" font-family="Arial" font-size="14.00" fill="#666666">[TEXT]</text>
<polygon fill="none" stroke="#000000" points="301,-42.5 301,-72.5 513,-72.5 513,-42.5 301,-42.5"/>
<text text-anchor="start" x="308" y="-53.9" font-family="Arial" font-size="14.00" fill="#000000">description    </text>
<text text-anchor="start" x="409.8822" y="-53.9" font-family="Arial" font-size="14.00" fill="#666666">[TEXT]</text>
</g>
<!-- Ingestion&#45;&gt;substance -->
<g id="edge1" class="edge">
<title>Ingestion:substanceName&#45;&gt;substance:name</title>
<path fill="none" stroke="#000000" d="M599.8879,-875.7675C519.1135,-846.1781 607.3215,-447.5 513,-447.5"/>
<polygon fill="#000000" stroke="#000000" points="600.1436,-875.8112 609.24,-881.9354 605.0718,-876.6556 610,-877.5 610,-877.5 610,-877.5 605.0718,-876.6556 610.76,-873.0646 600.1436,-875.8112 600.1436,-875.8112"/>
<text text-anchor="start" x="6.9285" y="-887.5" font-family="Arial" font-size="10.00" fill="#000000">FOREIGN KEY (substanceName) REFERENCES substance (name) ON UPDATE CASCADE ON DELETE SET NULL MATCH NONE</text>
</g>
<!-- Subject -->
<g id="node3" class="node">
<title>Subject</title>
<polygon fill="#efefef" stroke="transparent" points="618,-372.5 618,-407.5 815,-407.5 815,-372.5 618,-372.5"/>
<polygon fill="none" stroke="#000000" points="618,-372.5 618,-407.5 815,-407.5 815,-372.5 618,-372.5"/>
<text text-anchor="start" x="650.3249" y="-385.3" font-family="Arial Bold" font-size="18.00" fill="#000000">Subject</text>
<text text-anchor="start" x="710.3441" y="-385.3" font-family="Arial" font-size="14.00" fill="#000000">    </text>
<text text-anchor="start" x="744.5489" y="-385.3" font-family="Arial" font-size="14.00" fill="#666666">[table]</text>
<polygon fill="none" stroke="#000000" points="618,-342.5 618,-372.5 815,-372.5 815,-342.5 618,-342.5"/>
<text text-anchor="start" x="625" y="-353.9" font-family="Arial" font-size="14.00" fill="#000000">id    </text>
<text text-anchor="start" x="670.094" y="-353.9" font-family="Arial" font-size="14.00" fill="#666666">[TEXT]</text>
<polygon fill="none" stroke="#000000" points="618,-312.5 618,-342.5 815,-342.5 815,-312.5 618,-312.5"/>
<text text-anchor="start" x="625" y="-323.9" font-family="Arial" font-size="14.00" fill="#000000">firstName    </text>
<text text-anchor="start" x="719.0856" y="-323.9" font-family="Arial" font-size="14.00" fill="#666666">[TEXT]</text>
<polygon fill="none" stroke="#000000" points="618,-282.5 618,-312.5 815,-312.5 815,-282.5 618,-282.5"/>
<text text-anchor="start" x="625" y="-293.9" font-family="Arial" font-size="14.00" fill="#000000">lastName    </text>
<text text-anchor="start" x="718.317" y="-293.9" font-family="Arial" font-size="14.00" fill="#666666">[TEXT]</text>
<polygon fill="none" stroke="#000000" points="618,-252.5 618,-282.5 815,-282.5 815,-252.5 618,-252.5"/>
<text text-anchor="start" x="624.7223" y="-263.9" font-family="Arial" font-size="14.00" fill="#000000">dateOfBirth    </text>
<text text-anchor="start" x="729.7237" y="-263.9" font-family="Arial" font-size="14.00" fill="#666666">[DATETIME]</text>
<polygon fill="none" stroke="#000000" points="618,-222.5 618,-252.5 815,-252.5 815,-222.5 618,-222.5"/>
<text text-anchor="start" x="625" y="-233.9" font-family="Arial" font-size="14.00" fill="#000000">weight    </text>
<text text-anchor="start" x="699.6564" y="-233.9" font-family="Arial" font-size="14.00" fill="#666666">[INTEGER]</text>
<polygon fill="none" stroke="#000000" points="618,-192.5 618,-222.5 815,-222.5 815,-192.5 618,-192.5"/>
<text text-anchor="start" x="625" y="-203.9" font-family="Arial" font-size="14.00" fill="#000000">height    </text>
<text text-anchor="start" x="697.3324" y="-203.9" font-family="Arial" font-size="14.00" fill="#666666">[INTEGER]</text>
<polygon fill="none" stroke="#000000" points="618,-162.5 618,-192.5 815,-192.5 815,-162.5 618,-162.5"/>
<text text-anchor="start" x="625" y="-173.9" font-family="Arial" font-size="14.00" fill="#000000">account_id    </text>
<text text-anchor="start" x="726.8976" y="-173.9" font-family="Arial" font-size="14.00" fill="#666666">[TEXT]</text>
</g>
<!-- Ingestion&#45;&gt;Subject -->
<g id="edge2" class="edge">
<title>Ingestion:subject_id&#45;&gt;Subject:id</title>
<path fill="none" stroke="#000000" d="M601.7946,-691.3084C573.684,-645.2271 583.2378,-357.5 618,-357.5"/>
<polygon fill="#000000" stroke="#000000" points="602.0175,-691.4766 607.2895,-701.0921 606.0088,-694.4883 610,-697.5 610,-697.5 610,-697.5 606.0088,-694.4883 612.7105,-693.9079 602.0175,-691.4766 602.0175,-691.4766"/>
<text text-anchor="start" x="64.2715" y="-707.5" font-family="Arial" font-size="10.00" fill="#000000">FOREIGN KEY (subject_id) REFERENCES Subject (id) ON UPDATE CASCADE ON DELETE SET NULL MATCH NONE</text>
</g>
<!-- Stash -->
<g id="node4" class="node">
<title>Stash</title>
<polygon fill="#efefef" stroke="transparent" points="919,-417.5 919,-452.5 1114,-452.5 1114,-417.5 919,-417.5"/>
<polygon fill="none" stroke="#000000" points="919,-417.5 919,-452.5 1114,-452.5 1114,-417.5 919,-417.5"/>
<text text-anchor="start" x="957.3251" y="-430.3" font-family="Arial Bold" font-size="18.00" fill="#000000">Stash</text>
<text text-anchor="start" x="1003.3439" y="-430.3" font-family="Arial" font-size="14.00" fill="#000000">    </text>
<text text-anchor="start" x="1037.5487" y="-430.3" font-family="Arial" font-size="14.00" fill="#666666">[table]</text>
<polygon fill="none" stroke="#000000" points="919,-387.5 919,-417.5 1114,-417.5 1114,-387.5 919,-387.5"/>
<text text-anchor="start" x="926" y="-398.9" font-family="Arial" font-size="14.00" fill="#000000">id    </text>
<text text-anchor="start" x="971.094" y="-398.9" font-family="Arial" font-size="14.00" fill="#666666">[TEXT]</text>
<polygon fill="none" stroke="#000000" points="919,-357.5 919,-387.5 1114,-387.5 1114,-357.5 919,-357.5"/>
<text text-anchor="start" x="926" y="-368.9" font-family="Arial" font-size="14.00" fill="#000000">owner_id    </text>
<text text-anchor="start" x="1016.9916" y="-368.9" font-family="Arial" font-size="14.00" fill="#666666">[TEXT]</text>
<polygon fill="none" stroke="#000000" points="919,-327.5 919,-357.5 1114,-357.5 1114,-327.5 919,-327.5"/>
<text text-anchor="start" x="926" y="-338.9" font-family="Arial" font-size="14.00" fill="#000000">substance_id    </text>
<text text-anchor="start" x="1042.6802" y="-338.9" font-family="Arial" font-size="14.00" fill="#666666">[TEXT]</text>
<polygon fill="none" stroke="#000000" points="919,-297.5 919,-327.5 1114,-327.5 1114,-297.5 919,-297.5"/>
<text text-anchor="start" x="925.8829" y="-308.9" font-family="Arial" font-size="14.00" fill="#000000">addedDate    </text>
<text text-anchor="start" x="1028.5631" y="-308.9" font-family="Arial" font-size="14.00" fill="#666666">[DATETIME]</text>
<polygon fill="none" stroke="#000000" points="919,-267.5 919,-297.5 1114,-297.5 1114,-267.5 919,-267.5"/>
<text text-anchor="start" x="926" y="-278.9" font-family="Arial" font-size="14.00" fill="#000000">expiration    </text>
<text text-anchor="start" x="1020.8822" y="-278.9" font-family="Arial" font-size="14.00" fill="#666666">[DATETIME]</text>
<polygon fill="none" stroke="#000000" points="919,-237.5 919,-267.5 1114,-267.5 1114,-237.5 919,-237.5"/>
<text text-anchor="start" x="926" y="-248.9" font-family="Arial" font-size="14.00" fill="#000000">amount    </text>
<text text-anchor="start" x="1006.8864" y="-248.9" font-family="Arial" font-size="14.00" fill="#666666">[INTEGER]</text>
<polygon fill="none" stroke="#000000" points="919,-207.5 919,-237.5 1114,-237.5 1114,-207.5 919,-207.5"/>
<text text-anchor="start" x="926" y="-218.9" font-family="Arial" font-size="14.00" fill="#000000">price    </text>
<text text-anchor="start" x="990.5372" y="-218.9" font-family="Arial" font-size="14.00" fill="#666666">[TEXT]</text>
<polygon fill="none" stroke="#000000" points="919,-177.5 919,-207.5 1114,-207.5 1114,-177.5 919,-177.5"/>
<text text-anchor="start" x="926" y="-188.9" font-family="Arial" font-size="14.00" fill="#000000">vendor    </text>
<text text-anchor="start" x="1002.9958" y="-188.9" font-family="Arial" font-size="14.00" fill="#666666">[TEXT]</text>
<polygon fill="none" stroke="#000000" points="919,-147.5 919,-177.5 1114,-177.5 1114,-147.5 919,-147.5"/>
<text text-anchor="start" x="926" y="-158.9" font-family="Arial" font-size="14.00" fill="#000000">description    </text>
<text text-anchor="start" x="1027.8822" y="-158.9" font-family="Arial" font-size="14.00" fill="#666666">[TEXT]</text>
<polygon fill="none" stroke="#000000" points="919,-117.5 919,-147.5 1114,-147.5 1114,-117.5 919,-117.5"/>
<text text-anchor="start" x="926" y="-128.9" font-family="Arial" font-size="14.00" fill="#000000">purity    </text>
<text text-anchor="start" x="994.4278" y="-128.9" font-family="Arial" font-size="14.00" fill="#666666">[INTEGER]</text>
</g>
<!-- Ingestion&#45;&gt;Stash -->
<g id="edge3" class="edge">
<title>Ingestion:stashId&#45;&gt;Stash:id</title>
<path fill="none" stroke="#000000" d="M833.304,-666.4749C867.1188,-658.9523 851.6128,-611.4417 867,-571 894.8705,-497.749 840.6261,-402.5 919,-402.5"/>
<polygon fill="#000000" stroke="#000000" points="832.9509,-666.5099 822.5545,-663.0221 827.9754,-667.005 823,-667.5 823,-667.5 823,-667.5 827.9754,-667.005 823.4455,-671.9779 832.9509,-666.5099 832.9509,-666.5099"/>
<text text-anchor="start" x="829.549" y="-677.5" font-family="Arial" font-size="10.00" fill="#000000">FOREIGN KEY (stashId) REFERENCES Stash (id) ON UPDATE CASCADE ON DELETE SET NULL MATCH NONE</text>
</g>
</g>
</svg>
