<?xml version="1.0" encoding="UTF-8" standalone="no"?>
<!DOCTYPE svg PUBLIC "-//W3C//DTD SVG 1.1//EN"
 "http://www.w3.org/Graphics/SVG/1.1/DTD/svg11.dtd">
<!-- Generated by graphviz version 2.40.1 (20161225.0304)
 -->
<!-- Title: Subject Pages: 1 -->
<svg width="1217pt" height="1049pt"
 viewBox="0.00 0.00 1217.00 1049.00" xmlns="http://www.w3.org/2000/svg" xmlns:xlink="http://www.w3.org/1999/xlink">
<g id="graph0" class="graph" transform="scale(1 1) rotate(0) translate(4 1045)">
<title>Subject</title>
<polygon fill="#ffffff" stroke="transparent" points="-4,4 -4,-1045 1213,-1045 1213,4 -4,4"/>
<!-- Subject -->
<g id="node1" class="node">
<title>Subject</title>
<polygon fill="#efefef" stroke="transparent" points="509,-502.5 509,-537.5 676,-537.5 676,-502.5 509,-502.5"/>
<polygon fill="none" stroke="#000000" points="509,-502.5 509,-537.5 676,-537.5 676,-502.5 509,-502.5"/>
<text text-anchor="start" x="526.3249" y="-515.3" font-family="Arial Bold" font-size="18.00" fill="#000000">Subject</text>
<text text-anchor="start" x="586.3441" y="-515.3" font-family="Arial" font-size="14.00" fill="#000000">    </text>
<text text-anchor="start" x="620.5489" y="-515.3" font-family="Arial" font-size="14.00" fill="#666666">[table]</text>
<polygon fill="none" stroke="#000000" points="509,-472.5 509,-502.5 676,-502.5 676,-472.5 509,-472.5"/>
<text text-anchor="start" x="516" y="-483.9" font-family="Arial" font-size="14.00" fill="#000000">id </text>
<text text-anchor="start" x="530.7798" y="-483.9" font-family="Arial" font-size="14.00" fill="#666666">[TEXT]</text>
<polygon fill="none" stroke="#000000" points="509,-442.5 509,-472.5 676,-472.5 676,-442.5 509,-442.5"/>
<text text-anchor="start" x="516" y="-453.9" font-family="Arial" font-size="14.00" fill="#000000">firstName </text>
<text text-anchor="start" x="579.7714" y="-453.9" font-family="Arial" font-size="14.00" fill="#666666">[TEXT]</text>
<polygon fill="none" stroke="#000000" points="509,-412.5 509,-442.5 676,-442.5 676,-412.5 509,-412.5"/>
<text text-anchor="start" x="516" y="-423.9" font-family="Arial" font-size="14.00" fill="#000000">lastName </text>
<text text-anchor="start" x="579.0028" y="-423.9" font-family="Arial" font-size="14.00" fill="#666666">[TEXT]</text>
<polygon fill="none" stroke="#000000" points="509,-382.5 509,-412.5 676,-412.5 676,-382.5 509,-382.5"/>
<text text-anchor="start" x="515.8794" y="-393.9" font-family="Arial" font-size="14.00" fill="#000000">dateOfBirth </text>
<text text-anchor="start" x="590.5666" y="-393.9" font-family="Arial" font-size="14.00" fill="#666666">[DATETIME]</text>
<polygon fill="none" stroke="#000000" points="509,-352.5 509,-382.5 676,-382.5 676,-352.5 509,-352.5"/>
<text text-anchor="start" x="516" y="-363.9" font-family="Arial" font-size="14.00" fill="#000000">weight </text>
<text text-anchor="start" x="560.3422" y="-363.9" font-family="Arial" font-size="14.00" fill="#666666">[INTEGER]</text>
<polygon fill="none" stroke="#000000" points="509,-322.5 509,-352.5 676,-352.5 676,-322.5 509,-322.5"/>
<text text-anchor="start" x="516" y="-333.9" font-family="Arial" font-size="14.00" fill="#000000">height </text>
<text text-anchor="start" x="558.0182" y="-333.9" font-family="Arial" font-size="14.00" fill="#666666">[INTEGER]</text>
<polygon fill="none" stroke="#000000" points="509,-292.5 509,-322.5 676,-322.5 676,-292.5 509,-292.5"/>
<text text-anchor="start" x="516" y="-303.9" font-family="Arial" font-size="14.00" fill="#000000">account_id </text>
<text text-anchor="start" x="587.5834" y="-303.9" font-family="Arial" font-size="14.00" fill="#666666">[TEXT]</text>
<polygon fill="none" stroke="#000000" stroke-width="3" points="507,-291.5 507,-539.5 677,-539.5 677,-291.5 507,-291.5"/>
</g>
<!-- Account -->
<g id="node4" class="node">
<title>Account</title>
<polygon fill="#efefef" stroke="transparent" points="516,-132.5 516,-167.5 669,-167.5 669,-132.5 516,-132.5"/>
<polygon fill="none" stroke="#000000" points="516,-132.5 516,-167.5 669,-167.5 669,-132.5 516,-132.5"/>
<text text-anchor="start" x="523.822" y="-145.3" font-family="Arial Bold" font-size="18.00" fill="#000000">Account</text>
<text text-anchor="start" x="588.847" y="-145.3" font-family="Arial" font-size="14.00" fill="#000000">    </text>
<text text-anchor="start" x="623.0518" y="-145.3" font-family="Arial" font-size="14.00" fill="#666666">[table]</text>
<polygon fill="none" stroke="#000000" points="516,-102.5 516,-132.5 669,-132.5 669,-102.5 516,-102.5"/>
<text text-anchor="start" x="523" y="-113.9" font-family="Arial" font-size="14.00" fill="#000000">id    </text>
<text text-anchor="start" x="568.094" y="-113.9" font-family="Arial" font-size="14.00" fill="#666666">[TEXT]</text>
<polygon fill="none" stroke="#000000" points="516,-72.5 516,-102.5 669,-102.5 669,-72.5 516,-72.5"/>
<text text-anchor="start" x="522.5007" y="-83.9" font-family="Arial" font-size="14.00" fill="#000000">username    </text>
<text text-anchor="start" x="618.9397" y="-83.9" font-family="Arial" font-size="14.00" fill="#666666">[TEXT]</text>
<polygon fill="none" stroke="#000000" points="516,-42.5 516,-72.5 669,-72.5 669,-42.5 516,-42.5"/>
<text text-anchor="start" x="523" y="-53.9" font-family="Arial" font-size="14.00" fill="#000000">password    </text>
<text text-anchor="start" x="617.1024" y="-53.9" font-family="Arial" font-size="14.00" fill="#666666">[TEXT]</text>
</g>
<!-- Subject&#45;&gt;Account -->
<g id="edge3" class="edge">
<title>Subject:account_id&#45;&gt;Account:id</title>
<path fill="none" stroke="#000000" d="M592.0722,-282.4187C584.525,-244.5051 533.0478,-253.8679 516,-211 500.6438,-172.3859 474.4444,-117.5 516,-117.5"/>
<polygon fill="#000000" stroke="#000000" points="592.0835,-282.5421 588.5189,-292.9124 592.5417,-287.521 593,-292.5 593,-292.5 593,-292.5 592.5417,-287.521 597.4811,-292.0876 592.0835,-282.5421 592.0835,-282.5421"/>
<text text-anchor="start" x="600.211" y="-302.5" font-family="Arial" font-size="10.00" fill="#000000">FOREIGN KEY (account_id) REFERENCES Account (id) ON UPDATE CASCADE ON DELETE SET NULL MATCH NONE</text>
</g>
<!-- Ingestion -->
<g id="node2" class="node">
<title>Ingestion</title>
<polygon fill="#efefef" stroke="transparent" points="309,-947.5 309,-982.5 553,-982.5 553,-947.5 309,-947.5"/>
<polygon fill="none" stroke="#000000" points="309,-947.5 309,-982.5 553,-982.5 553,-947.5 309,-947.5"/>
<text text-anchor="start" x="358.3197" y="-960.3" font-family="Arial Bold" font-size="18.00" fill="#000000">Ingestion</text>
<text text-anchor="start" x="431.3493" y="-960.3" font-family="Arial" font-size="14.00" fill="#000000">    </text>
<text text-anchor="start" x="465.5541" y="-960.3" font-family="Arial" font-size="14.00" fill="#666666">[table]</text>
<polygon fill="none" stroke="#000000" points="309,-917.5 309,-947.5 553,-947.5 553,-917.5 309,-917.5"/>
<text text-anchor="start" x="316" y="-928.9" font-family="Arial" font-size="14.00" fill="#000000">id    </text>
<text text-anchor="start" x="361.094" y="-928.9" font-family="Arial" font-size="14.00" fill="#666666">[TEXT]</text>
<polygon fill="none" stroke="#000000" points="309,-887.5 309,-917.5 553,-917.5 553,-887.5 309,-887.5"/>
<text text-anchor="start" x="316" y="-898.9" font-family="Arial" font-size="14.00" fill="#000000">substanceName    </text>
<text text-anchor="start" x="451.3408" y="-898.9" font-family="Arial" font-size="14.00" fill="#666666">[TEXT]</text>
<polygon fill="none" stroke="#000000" points="309,-857.5 309,-887.5 553,-887.5 553,-857.5 309,-857.5"/>
<text text-anchor="start" x="316" y="-868.9" font-family="Arial" font-size="14.00" fill="#000000">routeOfAdministration    </text>
<text text-anchor="start" x="485.5568" y="-868.9" font-family="Arial" font-size="14.00" fill="#666666">[TEXT]</text>
<polygon fill="none" stroke="#000000" points="309,-827.5 309,-857.5 553,-857.5 553,-827.5 309,-827.5"/>
<text text-anchor="start" x="316" y="-838.9" font-family="Arial" font-size="14.00" fill="#000000">dosage_unit    </text>
<text text-anchor="start" x="426.4628" y="-838.9" font-family="Arial" font-size="14.00" fill="#666666">[TEXT]</text>
<polygon fill="none" stroke="#000000" points="309,-797.5 309,-827.5 553,-827.5 553,-797.5 309,-797.5"/>
<text text-anchor="start" x="316" y="-808.9" font-family="Arial" font-size="14.00" fill="#000000">dosage_amount    </text>
<text text-anchor="start" x="450.582" y="-808.9" font-family="Arial" font-size="14.00" fill="#666666">[INTEGER]</text>
<polygon fill="none" stroke="#000000" points="309,-767.5 309,-797.5 553,-797.5 553,-767.5 309,-767.5"/>
<text text-anchor="start" x="315.8787" y="-778.9" font-family="Arial" font-size="14.00" fill="#000000">isEstimatedDosage    </text>
<text text-anchor="start" x="470.6599" y="-778.9" font-family="Arial" font-size="14.00" fill="#666666">[BOOLEAN]</text>
<polygon fill="none" stroke="#000000" points="309,-737.5 309,-767.5 553,-767.5 553,-737.5 309,-737.5"/>
<text text-anchor="start" x="316" y="-748.9" font-family="Arial" font-size="14.00" fill="#000000">date    </text>
<text text-anchor="start" x="377.4432" y="-748.9" font-family="Arial" font-size="14.00" fill="#666666">[DATETIME]</text>
<polygon fill="none" stroke="#000000" points="309,-707.5 309,-737.5 553,-737.5 553,-707.5 309,-707.5"/>
<text text-anchor="start" x="316" y="-718.9" font-family="Arial" font-size="14.00" fill="#000000">subject_id    </text>
<text text-anchor="start" x="413.2216" y="-718.9" font-family="Arial" font-size="14.00" fill="#666666">[TEXT]</text>
<polygon fill="none" stroke="#000000" points="309,-677.5 309,-707.5 553,-707.5 553,-677.5 309,-677.5"/>
<text text-anchor="start" x="316" y="-688.9" font-family="Arial" font-size="14.00" fill="#000000">stashId    </text>
<text text-anchor="start" x="395.3338" y="-688.9" font-family="Arial" font-size="14.00" fill="#666666">[TEXT]</text>
</g>
<!-- Ingestion&#45;&gt;Subject -->
<g id="edge1" class="edge">
<title>Ingestion:subject_id&#45;&gt;Subject:id</title>
<path fill="none" stroke="#000000" d="M562.9411,-720.9891C586.8637,-712.2813 565.1748,-667.7494 553,-635 542.5684,-606.9397 519.4316,-612.0603 509,-584 494.0551,-543.7992 466.1111,-487.5 509,-487.5"/>
<polygon fill="#000000" stroke="#000000" points="562.8865,-720.9973 552.3238,-718.0511 557.9432,-721.7487 553,-722.5 553,-722.5 553,-722.5 557.9432,-721.7487 553.6762,-726.9489 562.8865,-720.9973 562.8865,-720.9973"/>
<text text-anchor="start" x="7.2715" y="-732.5" font-family="Arial" font-size="10.00" fill="#000000">FOREIGN KEY (subject_id) REFERENCES Subject (id) ON UPDATE CASCADE ON DELETE SET NULL MATCH NONE</text>
</g>
<!-- Stash -->
<g id="node3" class="node">
<title>Stash</title>
<polygon fill="#efefef" stroke="transparent" points="658,-962.5 658,-997.5 853,-997.5 853,-962.5 658,-962.5"/>
<polygon fill="none" stroke="#000000" points="658,-962.5 658,-997.5 853,-997.5 853,-962.5 658,-962.5"/>
<text text-anchor="start" x="696.3251" y="-975.3" font-family="Arial Bold" font-size="18.00" fill="#000000">Stash</text>
<text text-anchor="start" x="742.3439" y="-975.3" font-family="Arial" font-size="14.00" fill="#000000">    </text>
<text text-anchor="start" x="776.5487" y="-975.3" font-family="Arial" font-size="14.00" fill="#666666">[table]</text>
<polygon fill="none" stroke="#000000" points="658,-932.5 658,-962.5 853,-962.5 853,-932.5 658,-932.5"/>
<text text-anchor="start" x="665" y="-943.9" font-family="Arial" font-size="14.00" fill="#000000">id    </text>
<text text-anchor="start" x="710.094" y="-943.9" font-family="Arial" font-size="14.00" fill="#666666">[TEXT]</text>
<polygon fill="none" stroke="#000000" points="658,-902.5 658,-932.5 853,-932.5 853,-902.5 658,-902.5"/>
<text text-anchor="start" x="665" y="-913.9" font-family="Arial" font-size="14.00" fill="#000000">owner_id    </text>
<text text-anchor="start" x="755.9916" y="-913.9" font-family="Arial" font-size="14.00" fill="#666666">[TEXT]</text>
<polygon fill="none" stroke="#000000" points="658,-872.5 658,-902.5 853,-902.5 853,-872.5 658,-872.5"/>
<text text-anchor="start" x="665" y="-883.9" font-family="Arial" font-size="14.00" fill="#000000">substance_id    </text>
<text text-anchor="start" x="781.6802" y="-883.9" font-family="Arial" font-size="14.00" fill="#666666">[TEXT]</text>
<polygon fill="none" stroke="#000000" points="658,-842.5 658,-872.5 853,-872.5 853,-842.5 658,-842.5"/>
<text text-anchor="start" x="664.8829" y="-853.9" font-family="Arial" font-size="14.00" fill="#000000">addedDate    </text>
<text text-anchor="start" x="767.5631" y="-853.9" font-family="Arial" font-size="14.00" fill="#666666">[DATETIME]</text>
<polygon fill="none" stroke="#000000" points="658,-812.5 658,-842.5 853,-842.5 853,-812.5 658,-812.5"/>
<text text-anchor="start" x="665" y="-823.9" font-family="Arial" font-size="14.00" fill="#000000">expiration    </text>
<text text-anchor="start" x="759.8822" y="-823.9" font-family="Arial" font-size="14.00" fill="#666666">[DATETIME]</text>
<polygon fill="none" stroke="#000000" points="658,-782.5 658,-812.5 853,-812.5 853,-782.5 658,-782.5"/>
<text text-anchor="start" x="665" y="-793.9" font-family="Arial" font-size="14.00" fill="#000000">amount    </text>
<text text-anchor="start" x="745.8864" y="-793.9" font-family="Arial" font-size="14.00" fill="#666666">[INTEGER]</text>
<polygon fill="none" stroke="#000000" points="658,-752.5 658,-782.5 853,-782.5 853,-752.5 658,-752.5"/>
<text text-anchor="start" x="665" y="-763.9" font-family="Arial" font-size="14.00" fill="#000000">price    </text>
<text text-anchor="start" x="729.5372" y="-763.9" font-family="Arial" font-size="14.00" fill="#666666">[TEXT]</text>
<polygon fill="none" stroke="#000000" points="658,-722.5 658,-752.5 853,-752.5 853,-722.5 658,-722.5"/>
<text text-anchor="start" x="665" y="-733.9" font-family="Arial" font-size="14.00" fill="#000000">vendor    </text>
<text text-anchor="start" x="741.9958" y="-733.9" font-family="Arial" font-size="14.00" fill="#666666">[TEXT]</text>
<polygon fill="none" stroke="#000000" points="658,-692.5 658,-722.5 853,-722.5 853,-692.5 658,-692.5"/>
<text text-anchor="start" x="665" y="-703.9" font-family="Arial" font-size="14.00" fill="#000000">description    </text>
<text text-anchor="start" x="766.8822" y="-703.9" font-family="Arial" font-size="14.00" fill="#666666">[TEXT]</text>
<polygon fill="none" stroke="#000000" points="658,-662.5 658,-692.5 853,-692.5 853,-662.5 658,-662.5"/>
<text text-anchor="start" x="665" y="-673.9" font-family="Arial" font-size="14.00" fill="#000000">purity    </text>
<text text-anchor="start" x="733.4278" y="-673.9" font-family="Arial" font-size="14.00" fill="#666666">[INTEGER]</text>
</g>
<!-- Stash&#45;&gt;Subject -->
<g id="edge2" class="edge">
<title>Stash:owner_id&#45;&gt;Subject:id</title>
<path fill="none" stroke="#000000" d="M648.1787,-915.4738C597.3516,-892.5033 643.6414,-680.8238 658,-620 662.1099,-602.59 671.8901,-601.41 676,-584 685.8538,-542.2584 718.8889,-487.5 676,-487.5"/>
<polygon fill="#000000" stroke="#000000" points="648.2062,-915.4794 657.0907,-921.9072 653.1031,-916.4897 658,-917.5 658,-917.5 658,-917.5 653.1031,-916.4897 658.9093,-913.0928 648.2062,-915.4794 648.2062,-915.4794"/>
<text text-anchor="start" x="665.3915" y="-927.5" font-family="Arial" font-size="10.00" fill="#000000">FOREIGN KEY (owner_id) REFERENCES Subject (id) ON UPDATE CASCADE ON DELETE RESTRICT MATCH NONE</text>
</g>
</g>
</svg>
