<?xml version="1.0" encoding="UTF-8" standalone="no"?>
<!DOCTYPE svg PUBLIC "-//W3C//DTD SVG 1.1//EN"
 "http://www.w3.org/Graphics/SVG/1.1/DTD/svg11.dtd">
<!-- Generated by graphviz version 2.40.1 (20161225.0304)
 -->
<!-- Title: Stash Pages: 1 -->
<svg width="1322pt" height="1469pt"
 viewBox="0.00 0.00 1322.00 1469.00" xmlns="http://www.w3.org/2000/svg" xmlns:xlink="http://www.w3.org/1999/xlink">
<g id="graph0" class="graph" transform="scale(1 1) rotate(0) translate(4 1465)">
<title>Stash</title>
<polygon fill="#ffffff" stroke="transparent" points="-4,4 -4,-1465 1318,-1465 1318,4 -4,4"/>
<!-- Stash -->
<g id="node1" class="node">
<title>Stash</title>
<polygon fill="#efefef" stroke="transparent" points="551,-952.5 551,-987.5 715,-987.5 715,-952.5 551,-952.5"/>
<polygon fill="none" stroke="#000000" points="551,-952.5 551,-987.5 715,-987.5 715,-952.5 551,-952.5"/>
<text text-anchor="start" x="573.8251" y="-965.3" font-family="Arial Bold" font-size="18.00" fill="#000000">Stash</text>
<text text-anchor="start" x="619.8439" y="-965.3" font-family="Arial" font-size="14.00" fill="#000000">    </text>
<text text-anchor="start" x="654.0487" y="-965.3" font-family="Arial" font-size="14.00" fill="#666666">[table]</text>
<polygon fill="none" stroke="#000000" points="551,-922.5 551,-952.5 715,-952.5 715,-922.5 551,-922.5"/>
<text text-anchor="start" x="558" y="-933.9" font-family="Arial" font-size="14.00" fill="#000000">id </text>
<text text-anchor="start" x="572.7798" y="-933.9" font-family="Arial" font-size="14.00" fill="#666666">[TEXT]</text>
<polygon fill="none" stroke="#000000" points="551,-892.5 551,-922.5 715,-922.5 715,-892.5 551,-892.5"/>
<text text-anchor="start" x="558" y="-903.9" font-family="Arial" font-size="14.00" fill="#000000">owner_id </text>
<text text-anchor="start" x="618.6774" y="-903.9" font-family="Arial" font-size="14.00" fill="#666666">[TEXT]</text>
<polygon fill="none" stroke="#000000" points="551,-862.5 551,-892.5 715,-892.5 715,-862.5 551,-862.5"/>
<text text-anchor="start" x="558" y="-873.9" font-family="Arial" font-size="14.00" fill="#000000">substance_id </text>
<text text-anchor="start" x="644.366" y="-873.9" font-family="Arial" font-size="14.00" fill="#666666">[TEXT]</text>
<polygon fill="none" stroke="#000000" points="551,-832.5 551,-862.5 715,-862.5 715,-832.5 551,-832.5"/>
<text text-anchor="start" x="557.54" y="-843.9" font-family="Arial" font-size="14.00" fill="#000000">addedDate </text>
<text text-anchor="start" x="629.906" y="-843.9" font-family="Arial" font-size="14.00" fill="#666666">[DATETIME]</text>
<polygon fill="none" stroke="#000000" points="551,-802.5 551,-832.5 715,-832.5 715,-802.5 551,-802.5"/>
<text text-anchor="start" x="558" y="-813.9" font-family="Arial" font-size="14.00" fill="#000000">expiration </text>
<text text-anchor="start" x="622.568" y="-813.9" font-family="Arial" font-size="14.00" fill="#666666">[DATETIME]</text>
<polygon fill="none" stroke="#000000" points="551,-772.5 551,-802.5 715,-802.5 715,-772.5 551,-772.5"/>
<text text-anchor="start" x="558" y="-783.9" font-family="Arial" font-size="14.00" fill="#000000">amount </text>
<text text-anchor="start" x="608.5722" y="-783.9" font-family="Arial" font-size="14.00" fill="#666666">[INTEGER]</text>
<polygon fill="none" stroke="#000000" points="551,-742.5 551,-772.5 715,-772.5 715,-742.5 551,-742.5"/>
<text text-anchor="start" x="558" y="-753.9" font-family="Arial" font-size="14.00" fill="#000000">price </text>
<text text-anchor="start" x="592.223" y="-753.9" font-family="Arial" font-size="14.00" fill="#666666">[TEXT]</text>
<polygon fill="none" stroke="#000000" points="551,-712.5 551,-742.5 715,-742.5 715,-712.5 551,-712.5"/>
<text text-anchor="start" x="558" y="-723.9" font-family="Arial" font-size="14.00" fill="#000000">vendor </text>
<text text-anchor="start" x="604.6816" y="-723.9" font-family="Arial" font-size="14.00" fill="#666666">[TEXT]</text>
<polygon fill="none" stroke="#000000" points="551,-682.5 551,-712.5 715,-712.5 715,-682.5 551,-682.5"/>
<text text-anchor="start" x="558" y="-693.9" font-family="Arial" font-size="14.00" fill="#000000">description </text>
<text text-anchor="start" x="629.568" y="-693.9" font-family="Arial" font-size="14.00" fill="#666666">[TEXT]</text>
<polygon fill="none" stroke="#000000" points="551,-652.5 551,-682.5 715,-682.5 715,-652.5 551,-652.5"/>
<text text-anchor="start" x="558" y="-663.9" font-family="Arial" font-size="14.00" fill="#000000">purity </text>
<text text-anchor="start" x="596.1136" y="-663.9" font-family="Arial" font-size="14.00" fill="#666666">[INTEGER]</text>
<polygon fill="none" stroke="#000000" stroke-width="3" points="549.5,-651.5 549.5,-989.5 716.5,-989.5 716.5,-651.5 549.5,-651.5"/>
</g>
<!-- Subject -->
<g id="node3" class="node">
<title>Subject</title>
<polygon fill="#efefef" stroke="transparent" points="380,-372.5 380,-407.5 577,-407.5 577,-372.5 380,-372.5"/>
<polygon fill="none" stroke="#000000" points="380,-372.5 380,-407.5 577,-407.5 577,-372.5 380,-372.5"/>
<text text-anchor="start" x="412.3249" y="-385.3" font-family="Arial Bold" font-size="18.00" fill="#000000">Subject</text>
<text text-anchor="start" x="472.3441" y="-385.3" font-family="Arial" font-size="14.00" fill="#000000">    </text>
<text text-anchor="start" x="506.5489" y="-385.3" font-family="Arial" font-size="14.00" fill="#666666">[table]</text>
<polygon fill="none" stroke="#000000" points="380,-342.5 380,-372.5 577,-372.5 577,-342.5 380,-342.5"/>
<text text-anchor="start" x="387" y="-353.9" font-family="Arial" font-size="14.00" fill="#000000">id    </text>
<text text-anchor="start" x="432.094" y="-353.9" font-family="Arial" font-size="14.00" fill="#666666">[TEXT]</text>
<polygon fill="none" stroke="#000000" points="380,-312.5 380,-342.5 577,-342.5 577,-312.5 380,-312.5"/>
<text text-anchor="start" x="387" y="-323.9" font-family="Arial" font-size="14.00" fill="#000000">firstName    </text>
<text text-anchor="start" x="481.0856" y="-323.9" font-family="Arial" font-size="14.00" fill="#666666">[TEXT]</text>
<polygon fill="none" stroke="#000000" points="380,-282.5 380,-312.5 577,-312.5 577,-282.5 380,-282.5"/>
<text text-anchor="start" x="387" y="-293.9" font-family="Arial" font-size="14.00" fill="#000000">lastName    </text>
<text text-anchor="start" x="480.317" y="-293.9" font-family="Arial" font-size="14.00" fill="#666666">[TEXT]</text>
<polygon fill="none" stroke="#000000" points="380,-252.5 380,-282.5 577,-282.5 577,-252.5 380,-252.5"/>
<text text-anchor="start" x="386.7223" y="-263.9" font-family="Arial" font-size="14.00" fill="#000000">dateOfBirth    </text>
<text text-anchor="start" x="491.7237" y="-263.9" font-family="Arial" font-size="14.00" fill="#666666">[DATETIME]</text>
<polygon fill="none" stroke="#000000" points="380,-222.5 380,-252.5 577,-252.5 577,-222.5 380,-222.5"/>
<text text-anchor="start" x="387" y="-233.9" font-family="Arial" font-size="14.00" fill="#000000">weight    </text>
<text text-anchor="start" x="461.6564" y="-233.9" font-family="Arial" font-size="14.00" fill="#666666">[INTEGER]</text>
<polygon fill="none" stroke="#000000" points="380,-192.5 380,-222.5 577,-222.5 577,-192.5 380,-192.5"/>
<text text-anchor="start" x="387" y="-203.9" font-family="Arial" font-size="14.00" fill="#000000">height    </text>
<text text-anchor="start" x="459.3324" y="-203.9" font-family="Arial" font-size="14.00" fill="#666666">[INTEGER]</text>
<polygon fill="none" stroke="#000000" points="380,-162.5 380,-192.5 577,-192.5 577,-162.5 380,-162.5"/>
<text text-anchor="start" x="387" y="-173.9" font-family="Arial" font-size="14.00" fill="#000000">account_id    </text>
<text text-anchor="start" x="488.8976" y="-173.9" font-family="Arial" font-size="14.00" fill="#666666">[TEXT]</text>
</g>
<!-- Stash&#45;&gt;Subject -->
<g id="edge2" class="edge">
<title>Stash:owner_id&#45;&gt;Subject:id</title>
<path fill="none" stroke="#000000" d="M540.9423,-907.279C354.9868,-898.8342 560.5249,-650.0641 577,-451 580.4275,-409.586 618.5556,-357.5 577,-357.5"/>
<polygon fill="#000000" stroke="#000000" points="541.0024,-907.2802 550.9011,-911.9989 546.0012,-907.3901 551,-907.5 551,-907.5 551,-907.5 546.0012,-907.3901 551.0989,-903.0011 541.0024,-907.2802 541.0024,-907.2802"/>
<text text-anchor="start" x="7.3915" y="-917.5" font-family="Arial" font-size="10.00" fill="#000000">FOREIGN KEY (owner_id) REFERENCES Subject (id) ON UPDATE CASCADE ON DELETE RESTRICT MATCH NONE</text>
</g>
<!-- substance -->
<g id="node4" class="node">
<title>substance</title>
<polygon fill="#efefef" stroke="transparent" points="681,-492.5 681,-527.5 893,-527.5 893,-492.5 681,-492.5"/>
<polygon fill="none" stroke="#000000" points="681,-492.5 681,-527.5 893,-527.5 893,-492.5 681,-492.5"/>
<text text-anchor="start" x="709.8179" y="-505.3" font-family="Arial Bold" font-size="18.00" fill="#000000">substance</text>
<text text-anchor="start" x="791.8511" y="-505.3" font-family="Arial" font-size="14.00" fill="#000000">    </text>
<text text-anchor="start" x="826.0559" y="-505.3" font-family="Arial" font-size="14.00" fill="#666666">[table]</text>
<polygon fill="none" stroke="#000000" points="681,-462.5 681,-492.5 893,-492.5 893,-462.5 681,-462.5"/>
<text text-anchor="start" x="688" y="-473.9" font-family="Arial" font-size="14.00" fill="#000000">id    </text>
<text text-anchor="start" x="733.094" y="-473.9" font-family="Arial" font-size="14.00" fill="#666666">[TEXT]</text>
<polygon fill="none" stroke="#000000" points="681,-432.5 681,-462.5 893,-462.5 893,-432.5 681,-432.5"/>
<text text-anchor="start" x="688" y="-443.9" font-family="Arial" font-size="14.00" fill="#000000">name    </text>
<text text-anchor="start" x="757.2132" y="-443.9" font-family="Arial" font-size="14.00" fill="#666666">[TEXT]</text>
<polygon fill="none" stroke="#000000" points="681,-402.5 681,-432.5 893,-432.5 893,-402.5 681,-402.5"/>
<text text-anchor="start" x="688" y="-413.9" font-family="Arial" font-size="14.00" fill="#000000">common_names    </text>
<text text-anchor="start" x="825.6648" y="-413.9" font-family="Arial" font-size="14.00" fill="#666666">[TEXT]</text>
<polygon fill="none" stroke="#000000" points="681,-372.5 681,-402.5 893,-402.5 893,-372.5 681,-372.5"/>
<text text-anchor="start" x="688" y="-383.9" font-family="Arial" font-size="14.00" fill="#000000">brand_names    </text>
<text text-anchor="start" x="807.7868" y="-383.9" font-family="Arial" font-size="14.00" fill="#666666">[TEXT]</text>
<polygon fill="none" stroke="#000000" points="681,-342.5 681,-372.5 893,-372.5 893,-342.5 681,-342.5"/>
<text text-anchor="start" x="688" y="-353.9" font-family="Arial" font-size="14.00" fill="#000000">substitutive_name    </text>
<text text-anchor="start" x="835.0112" y="-353.9" font-family="Arial" font-size="14.00" fill="#666666">[TEXT]</text>
<polygon fill="none" stroke="#000000" points="681,-312.5 681,-342.5 893,-342.5 893,-312.5 681,-312.5"/>
<text text-anchor="start" x="688" y="-323.9" font-family="Arial" font-size="14.00" fill="#000000">systematic_name    </text>
<text text-anchor="start" x="831.1094" y="-323.9" font-family="Arial" font-size="14.00" fill="#666666">[TEXT]</text>
<polygon fill="none" stroke="#000000" points="681,-282.5 681,-312.5 893,-312.5 893,-282.5 681,-282.5"/>
<text text-anchor="start" x="688" y="-293.9" font-family="Arial" font-size="14.00" fill="#000000">pubchem_cid    </text>
<text text-anchor="start" x="805.4502" y="-293.9" font-family="Arial" font-size="14.00" fill="#666666">[INTEGER]</text>
<polygon fill="none" stroke="#000000" points="681,-252.5 681,-282.5 893,-282.5 893,-252.5 681,-252.5"/>
<text text-anchor="start" x="688" y="-263.9" font-family="Arial" font-size="14.00" fill="#000000">unii    </text>
<text text-anchor="start" x="743.9832" y="-263.9" font-family="Arial" font-size="14.00" fill="#666666">[TEXT]</text>
<polygon fill="none" stroke="#000000" points="681,-222.5 681,-252.5 893,-252.5 893,-222.5 681,-222.5"/>
<text text-anchor="start" x="688" y="-233.9" font-family="Arial" font-size="14.00" fill="#000000">cas_number    </text>
<text text-anchor="start" x="799.2216" y="-233.9" font-family="Arial" font-size="14.00" fill="#666666">[TEXT]</text>
<polygon fill="none" stroke="#000000" points="681,-192.5 681,-222.5 893,-222.5 893,-192.5 681,-192.5"/>
<text text-anchor="start" x="688" y="-203.9" font-family="Arial" font-size="14.00" fill="#000000">inchi_key    </text>
<text text-anchor="start" x="780.5484" y="-203.9" font-family="Arial" font-size="14.00" fill="#666666">[TEXT]</text>
<polygon fill="none" stroke="#000000" points="681,-162.5 681,-192.5 893,-192.5 893,-162.5 681,-162.5"/>
<text text-anchor="start" x="688" y="-173.9" font-family="Arial" font-size="14.00" fill="#000000">smiles    </text>
<text text-anchor="start" x="761.8612" y="-173.9" font-family="Arial" font-size="14.00" fill="#666666">[TEXT]</text>
<polygon fill="none" stroke="#000000" points="681,-132.5 681,-162.5 893,-162.5 893,-132.5 681,-132.5"/>
<text text-anchor="start" x="688" y="-143.9" font-family="Arial" font-size="14.00" fill="#000000">psychonautwiki_url    </text>
<text text-anchor="start" x="840.4432" y="-143.9" font-family="Arial" font-size="14.00" fill="#666666">[TEXT]</text>
<polygon fill="none" stroke="#000000" points="681,-102.5 681,-132.5 893,-132.5 893,-102.5 681,-102.5"/>
<text text-anchor="start" x="687.8268" y="-113.9" font-family="Arial" font-size="14.00" fill="#000000">psychoactive_class    </text>
<text text-anchor="start" x="842.6136" y="-113.9" font-family="Arial" font-size="14.00" fill="#666666">[TEXT]</text>
<polygon fill="none" stroke="#000000" points="681,-72.5 681,-102.5 893,-102.5 893,-72.5 681,-72.5"/>
<text text-anchor="start" x="688" y="-83.9" font-family="Arial" font-size="14.00" fill="#000000">chemical_class    </text>
<text text-anchor="start" x="817.0982" y="-83.9" font-family="Arial" font-size="14.00" fill="#666666">[TEXT]</text>
<polygon fill="none" stroke="#000000" points="681,-42.5 681,-72.5 893,-72.5 893,-42.5 681,-42.5"/>
<text text-anchor="start" x="688" y="-53.9" font-family="Arial" font-size="14.00" fill="#000000">description    </text>
<text text-anchor="start" x="789.8822" y="-53.9" font-family="Arial" font-size="14.00" fill="#666666">[TEXT]</text>
</g>
<!-- Stash&#45;&gt;substance -->
<g id="edge3" class="edge">
<title>Stash:substance_id&#45;&gt;substance:name</title>
<path fill="none" stroke="#000000" d="M725.0674,-877.0963C830.8074,-868.2367 758.1149,-715.4436 715,-607 706.8692,-586.5492 689.1308,-591.4508 681,-571 660.7213,-519.9945 626.1111,-447.5 681,-447.5"/>
<polygon fill="#000000" stroke="#000000" points="724.992,-877.0992 714.8197,-873.0036 719.996,-877.2996 715,-877.5 715,-877.5 715,-877.5 719.996,-877.2996 715.1803,-881.9964 724.992,-877.0992 724.992,-877.0992"/>
<text text-anchor="start" x="722.488" y="-887.5" font-family="Arial" font-size="10.00" fill="#000000">FOREIGN KEY (substance_id) REFERENCES substance (name) ON UPDATE CASCADE ON DELETE RESTRICT MATCH NONE</text>
</g>
<!-- Ingestion -->
<g id="node2" class="node">
<title>Ingestion</title>
<polygon fill="#efefef" stroke="transparent" points="511,-1382.5 511,-1417.5 755,-1417.5 755,-1382.5 511,-1382.5"/>
<polygon fill="none" stroke="#000000" points="511,-1382.5 511,-1417.5 755,-1417.5 755,-1382.5 511,-1382.5"/>
<text text-anchor="start" x="560.3197" y="-1395.3" font-family="Arial Bold" font-size="18.00" fill="#000000">Ingestion</text>
<text text-anchor="start" x="633.3493" y="-1395.3" font-family="Arial" font-size="14.00" fill="#000000">    </text>
<text text-anchor="start" x="667.5541" y="-1395.3" font-family="Arial" font-size="14.00" fill="#666666">[table]</text>
<polygon fill="none" stroke="#000000" points="511,-1352.5 511,-1382.5 755,-1382.5 755,-1352.5 511,-1352.5"/>
<text text-anchor="start" x="518" y="-1363.9" font-family="Arial" font-size="14.00" fill="#000000">id    </text>
<text text-anchor="start" x="563.094" y="-1363.9" font-family="Arial" font-size="14.00" fill="#666666">[TEXT]</text>
<polygon fill="none" stroke="#000000" points="511,-1322.5 511,-1352.5 755,-1352.5 755,-1322.5 511,-1322.5"/>
<text text-anchor="start" x="518" y="-1333.9" font-family="Arial" font-size="14.00" fill="#000000">substanceName    </text>
<text text-anchor="start" x="653.3408" y="-1333.9" font-family="Arial" font-size="14.00" fill="#666666">[TEXT]</text>
<polygon fill="none" stroke="#000000" points="511,-1292.5 511,-1322.5 755,-1322.5 755,-1292.5 511,-1292.5"/>
<text text-anchor="start" x="518" y="-1303.9" font-family="Arial" font-size="14.00" fill="#000000">routeOfAdministration    </text>
<text text-anchor="start" x="687.5568" y="-1303.9" font-family="Arial" font-size="14.00" fill="#666666">[TEXT]</text>
<polygon fill="none" stroke="#000000" points="511,-1262.5 511,-1292.5 755,-1292.5 755,-1262.5 511,-1262.5"/>
<text text-anchor="start" x="518" y="-1273.9" font-family="Arial" font-size="14.00" fill="#000000">dosage_unit    </text>
<text text-anchor="start" x="628.4628" y="-1273.9" font-family="Arial" font-size="14.00" fill="#666666">[TEXT]</text>
<polygon fill="none" stroke="#000000" points="511,-1232.5 511,-1262.5 755,-1262.5 755,-1232.5 511,-1232.5"/>
<text text-anchor="start" x="518" y="-1243.9" font-family="Arial" font-size="14.00" fill="#000000">dosage_amount    </text>
<text text-anchor="start" x="652.582" y="-1243.9" font-family="Arial" font-size="14.00" fill="#666666">[INTEGER]</text>
<polygon fill="none" stroke="#000000" points="511,-1202.5 511,-1232.5 755,-1232.5 755,-1202.5 511,-1202.5"/>
<text text-anchor="start" x="517.8787" y="-1213.9" font-family="Arial" font-size="14.00" fill="#000000">isEstimatedDosage    </text>
<text text-anchor="start" x="672.6599" y="-1213.9" font-family="Arial" font-size="14.00" fill="#666666">[BOOLEAN]</text>
<polygon fill="none" stroke="#000000" points="511,-1172.5 511,-1202.5 755,-1202.5 755,-1172.5 511,-1172.5"/>
<text text-anchor="start" x="518" y="-1183.9" font-family="Arial" font-size="14.00" fill="#000000">date    </text>
<text text-anchor="start" x="579.4432" y="-1183.9" font-family="Arial" font-size="14.00" fill="#666666">[DATETIME]</text>
<polygon fill="none" stroke="#000000" points="511,-1142.5 511,-1172.5 755,-1172.5 755,-1142.5 511,-1142.5"/>
<text text-anchor="start" x="518" y="-1153.9" font-family="Arial" font-size="14.00" fill="#000000">subject_id    </text>
<text text-anchor="start" x="615.2216" y="-1153.9" font-family="Arial" font-size="14.00" fill="#666666">[TEXT]</text>
<polygon fill="none" stroke="#000000" points="511,-1112.5 511,-1142.5 755,-1142.5 755,-1112.5 511,-1112.5"/>
<text text-anchor="start" x="518" y="-1123.9" font-family="Arial" font-size="14.00" fill="#000000">stashId    </text>
<text text-anchor="start" x="597.3338" y="-1123.9" font-family="Arial" font-size="14.00" fill="#666666">[TEXT]</text>
</g>
<!-- Ingestion&#45;&gt;Stash -->
<g id="edge1" class="edge">
<title>Ingestion:stashId&#45;&gt;Stash:id</title>
<path fill="none" stroke="#000000" d="M633.9849,-1102.3489C641.9973,-1064.415 696.6563,-1076.9549 715,-1034 731.8439,-994.5571 757.8889,-937.5 715,-937.5"/>
<polygon fill="#000000" stroke="#000000" points="633.9658,-1102.5467 628.521,-1112.0654 633.4829,-1107.5234 633,-1112.5 633,-1112.5 633,-1112.5 633.4829,-1107.5234 637.479,-1112.9346 633.9658,-1102.5467 633.9658,-1102.5467"/>
<text text-anchor="start" x="107.549" y="-1122.5" font-family="Arial" font-size="10.00" fill="#000000">FOREIGN KEY (stashId) REFERENCES Stash (id) ON UPDATE CASCADE ON DELETE SET NULL MATCH NONE</text>
</g>
</g>
</svg>
