<?xml version="1.0" encoding="UTF-8" standalone="no"?>
<!DOCTYPE svg PUBLIC "-//W3C//DTD SVG 1.1//EN"
 "http://www.w3.org/Graphics/SVG/1.1/DTD/svg11.dtd">
<!-- Generated by graphviz version 2.40.1 (20161225.0304)
 -->
<!-- Title: substance Pages: 1 -->
<svg width="3188pt" height="1072pt"
 viewBox="0.00 0.00 3188.00 1072.00" xmlns="http://www.w3.org/2000/svg" xmlns:xlink="http://www.w3.org/1999/xlink">
<g id="graph0" class="graph" transform="scale(1 1) rotate(0) translate(4 1068)">
<title>substance</title>
<polygon fill="#ffffff" stroke="transparent" points="-4,4 -4,-1068 3184,-1068 3184,4 -4,4"/>
<!-- substance -->
<g id="node1" class="node">
<title>substance</title>
<polygon fill="#efefef" stroke="transparent" points="1440,-495.5 1440,-530.5 1622,-530.5 1622,-495.5 1440,-495.5"/>
<polygon fill="none" stroke="#000000" points="1440,-495.5 1440,-530.5 1622,-530.5 1622,-495.5 1440,-495.5"/>
<text text-anchor="start" x="1453.8179" y="-508.3" font-family="Arial Bold" font-size="18.00" fill="#000000">substance</text>
<text text-anchor="start" x="1535.8511" y="-508.3" font-family="Arial" font-size="14.00" fill="#000000">    </text>
<text text-anchor="start" x="1570.0559" y="-508.3" font-family="Arial" font-size="14.00" fill="#666666">[table]</text>
<polygon fill="none" stroke="#000000" points="1440,-465.5 1440,-495.5 1622,-495.5 1622,-465.5 1440,-465.5"/>
<text text-anchor="start" x="1447" y="-476.9" font-family="Arial" font-size="14.00" fill="#000000">id </text>
<text text-anchor="start" x="1461.7798" y="-476.9" font-family="Arial" font-size="14.00" fill="#666666">[TEXT]</text>
<polygon fill="none" stroke="#000000" points="1440,-435.5 1440,-465.5 1622,-465.5 1622,-435.5 1440,-435.5"/>
<text text-anchor="start" x="1447" y="-446.9" font-family="Arial" font-size="14.00" fill="#000000">name </text>
<text text-anchor="start" x="1485.899" y="-446.9" font-family="Arial" font-size="14.00" fill="#666666">[TEXT]</text>
<polygon fill="none" stroke="#000000" points="1440,-405.5 1440,-435.5 1622,-435.5 1622,-405.5 1440,-405.5"/>
<text text-anchor="start" x="1447" y="-416.9" font-family="Arial" font-size="14.00" fill="#000000">common_names </text>
<text text-anchor="start" x="1554.3506" y="-416.9" font-family="Arial" font-size="14.00" fill="#666666">[TEXT]</text>
<polygon fill="none" stroke="#000000" points="1440,-375.5 1440,-405.5 1622,-405.5 1622,-375.5 1440,-375.5"/>
<text text-anchor="start" x="1447" y="-386.9" font-family="Arial" font-size="14.00" fill="#000000">brand_names </text>
<text text-anchor="start" x="1536.4726" y="-386.9" font-family="Arial" font-size="14.00" fill="#666666">[TEXT]</text>
<polygon fill="none" stroke="#000000" points="1440,-345.5 1440,-375.5 1622,-375.5 1622,-345.5 1440,-345.5"/>
<text text-anchor="start" x="1447" y="-356.9" font-family="Arial" font-size="14.00" fill="#000000">substitutive_name </text>
<text text-anchor="start" x="1563.697" y="-356.9" font-family="Arial" font-size="14.00" fill="#666666">[TEXT]</text>
<polygon fill="none" stroke="#000000" points="1440,-315.5 1440,-345.5 1622,-345.5 1622,-315.5 1440,-315.5"/>
<text text-anchor="start" x="1447" y="-326.9" font-family="Arial" font-size="14.00" fill="#000000">systematic_name </text>
<text text-anchor="start" x="1559.7952" y="-326.9" font-family="Arial" font-size="14.00" fill="#666666">[TEXT]</text>
<polygon fill="none" stroke="#000000" points="1440,-285.5 1440,-315.5 1622,-315.5 1622,-285.5 1440,-285.5"/>
<text text-anchor="start" x="1447" y="-296.9" font-family="Arial" font-size="14.00" fill="#000000">pubchem_cid </text>
<text text-anchor="start" x="1534.136" y="-296.9" font-family="Arial" font-size="14.00" fill="#666666">[INTEGER]</text>
<polygon fill="none" stroke="#000000" points="1440,-255.5 1440,-285.5 1622,-285.5 1622,-255.5 1440,-255.5"/>
<text text-anchor="start" x="1447" y="-266.9" font-family="Arial" font-size="14.00" fill="#000000">unii </text>
<text text-anchor="start" x="1472.669" y="-266.9" font-family="Arial" font-size="14.00" fill="#666666">[TEXT]</text>
<polygon fill="none" stroke="#000000" points="1440,-225.5 1440,-255.5 1622,-255.5 1622,-225.5 1440,-225.5"/>
<text text-anchor="start" x="1447" y="-236.9" font-family="Arial" font-size="14.00" fill="#000000">cas_number </text>
<text text-anchor="start" x="1527.9074" y="-236.9" font-family="Arial" font-size="14.00" fill="#666666">[TEXT]</text>
<polygon fill="none" stroke="#000000" points="1440,-195.5 1440,-225.5 1622,-225.5 1622,-195.5 1440,-195.5"/>
<text text-anchor="start" x="1447" y="-206.9" font-family="Arial" font-size="14.00" fill="#000000">inchi_key </text>
<text text-anchor="start" x="1509.2342" y="-206.9" font-family="Arial" font-size="14.00" fill="#666666">[TEXT]</text>
<polygon fill="none" stroke="#000000" points="1440,-165.5 1440,-195.5 1622,-195.5 1622,-165.5 1440,-165.5"/>
<text text-anchor="start" x="1447" y="-176.9" font-family="Arial" font-size="14.00" fill="#000000">smiles </text>
<text text-anchor="start" x="1490.547" y="-176.9" font-family="Arial" font-size="14.00" fill="#666666">[TEXT]</text>
<polygon fill="none" stroke="#000000" points="1440,-135.5 1440,-165.5 1622,-165.5 1622,-135.5 1440,-135.5"/>
<text text-anchor="start" x="1447" y="-146.9" font-family="Arial" font-size="14.00" fill="#000000">psychonautwiki_url </text>
<text text-anchor="start" x="1569.129" y="-146.9" font-family="Arial" font-size="14.00" fill="#666666">[TEXT]</text>
<polygon fill="none" stroke="#000000" points="1440,-105.5 1440,-135.5 1622,-135.5 1622,-105.5 1440,-105.5"/>
<text text-anchor="start" x="1446.9839" y="-116.9" font-family="Arial" font-size="14.00" fill="#000000">psychoactive_class </text>
<text text-anchor="start" x="1571.4565" y="-116.9" font-family="Arial" font-size="14.00" fill="#666666">[TEXT]</text>
<polygon fill="none" stroke="#000000" points="1440,-75.5 1440,-105.5 1622,-105.5 1622,-75.5 1440,-75.5"/>
<text text-anchor="start" x="1447" y="-86.9" font-family="Arial" font-size="14.00" fill="#000000">chemical_class </text>
<text text-anchor="start" x="1545.784" y="-86.9" font-family="Arial" font-size="14.00" fill="#666666">[TEXT]</text>
<polygon fill="none" stroke="#000000" points="1440,-45.5 1440,-75.5 1622,-75.5 1622,-45.5 1440,-45.5"/>
<text text-anchor="start" x="1447" y="-56.9" font-family="Arial" font-size="14.00" fill="#000000">description </text>
<text text-anchor="start" x="1518.568" y="-56.9" font-family="Arial" font-size="14.00" fill="#666666">[TEXT]</text>
<polygon fill="none" stroke="#000000" stroke-width="3" points="1438.5,-44.5 1438.5,-532.5 1623.5,-532.5 1623.5,-44.5 1438.5,-44.5"/>
</g>
<!-- substance_synonym -->
<g id="node2" class="node">
<title>substance_synonym</title>
<polygon fill="#efefef" stroke="transparent" points="326,-865.5 326,-900.5 576,-900.5 576,-865.5 326,-865.5"/>
<polygon fill="none" stroke="#000000" points="326,-865.5 326,-900.5 576,-900.5 576,-865.5 326,-865.5"/>
<text text-anchor="start" x="332.8094" y="-878.3" font-family="Arial Bold" font-size="18.00" fill="#000000">substance_synonym</text>
<text text-anchor="start" x="496.8596" y="-878.3" font-family="Arial" font-size="14.00" fill="#000000">    </text>
<text text-anchor="start" x="531.0644" y="-878.3" font-family="Arial" font-size="14.00" fill="#666666">[table]</text>
<polygon fill="none" stroke="#000000" points="326,-835.5 326,-865.5 576,-865.5 576,-835.5 326,-835.5"/>
<text text-anchor="start" x="333" y="-846.9" font-family="Arial" font-size="14.00" fill="#000000">id    </text>
<text text-anchor="start" x="378.094" y="-846.9" font-family="Arial" font-size="14.00" fill="#666666">[TEXT]</text>
<polygon fill="none" stroke="#000000" points="326,-805.5 326,-835.5 576,-835.5 576,-805.5 326,-805.5"/>
<text text-anchor="start" x="333" y="-816.9" font-family="Arial" font-size="14.00" fill="#000000">substanceId    </text>
<text text-anchor="start" x="442.6816" y="-816.9" font-family="Arial" font-size="14.00" fill="#666666">[TEXT]</text>
<polygon fill="none" stroke="#000000" points="326,-775.5 326,-805.5 576,-805.5 576,-775.5 326,-775.5"/>
<text text-anchor="start" x="333" y="-786.9" font-family="Arial" font-size="14.00" fill="#000000">name    </text>
<text text-anchor="start" x="402.2132" y="-786.9" font-family="Arial" font-size="14.00" fill="#666666">[TEXT]</text>
</g>
<!-- substance_synonym&#45;&gt;substance -->
<g id="edge1" class="edge">
<title>substance_synonym:substanceId&#45;&gt;substance:id</title>
<path fill="none" stroke="#000000" d="M586.212,-819.858C662.5206,-809.4368 560.7495,-674.8389 628,-613 762.5825,-489.2473 1257.169,-480.5 1440,-480.5"/>
<polygon fill="#000000" stroke="#000000" points="585.9803,-819.8724 575.7176,-816.0089 580.9901,-820.1862 576,-820.5 576,-820.5 576,-820.5 580.9901,-820.1862 576.2824,-824.9911 585.9803,-819.8724 585.9803,-819.8724"/>
<text text-anchor="start" x="6.6015" y="-830.5" font-family="Arial" font-size="10.00" fill="#000000">FOREIGN KEY (substanceId) REFERENCES substance (id) ON UPDATE CASCADE ON DELETE RESTRICT MATCH NONE</text>
</g>
<!-- substance_tolerance -->
<g id="node3" class="node">
<title>substance_tolerance</title>
<polygon fill="#efefef" stroke="transparent" points="681,-985.5 681,-1020.5 954,-1020.5 954,-985.5 681,-985.5"/>
<polygon fill="none" stroke="#000000" points="681,-985.5 681,-1020.5 954,-1020.5 954,-985.5 681,-985.5"/>
<text text-anchor="start" x="698.305" y="-998.3" font-family="Arial Bold" font-size="18.00" fill="#000000">substance_tolerance</text>
<text text-anchor="start" x="864.364" y="-998.3" font-family="Arial" font-size="14.00" fill="#000000">    </text>
<text text-anchor="start" x="898.5688" y="-998.3" font-family="Arial" font-size="14.00" fill="#666666">[table]</text>
<polygon fill="none" stroke="#000000" points="681,-955.5 681,-985.5 954,-985.5 954,-955.5 681,-955.5"/>
<text text-anchor="start" x="688" y="-966.9" font-family="Arial" font-size="14.00" fill="#000000">id    </text>
<text text-anchor="start" x="733.094" y="-966.9" font-family="Arial" font-size="14.00" fill="#666666">[TEXT]</text>
<polygon fill="none" stroke="#000000" points="681,-925.5 681,-955.5 954,-955.5 954,-925.5 681,-925.5"/>
<text text-anchor="start" x="688" y="-936.9" font-family="Arial" font-size="14.00" fill="#000000">substanceId    </text>
<text text-anchor="start" x="797.6816" y="-936.9" font-family="Arial" font-size="14.00" fill="#666666">[TEXT]</text>
<polygon fill="none" stroke="#000000" points="681,-895.5 681,-925.5 954,-925.5 954,-895.5 681,-895.5"/>
<text text-anchor="start" x="688" y="-906.9" font-family="Arial" font-size="14.00" fill="#000000">mechanism    </text>
<text text-anchor="start" x="793.763" y="-906.9" font-family="Arial" font-size="14.00" fill="#666666">[TEXT]</text>
<polygon fill="none" stroke="#000000" points="681,-865.5 681,-895.5 954,-895.5 954,-865.5 681,-865.5"/>
<text text-anchor="start" x="688" y="-876.9" font-family="Arial" font-size="14.00" fill="#000000">mechanism_desciption    </text>
<text text-anchor="start" x="864.5624" y="-876.9" font-family="Arial" font-size="14.00" fill="#666666">[TEXT]</text>
<polygon fill="none" stroke="#000000" points="681,-835.5 681,-865.5 954,-865.5 954,-835.5 681,-835.5"/>
<text text-anchor="start" x="688" y="-846.9" font-family="Arial" font-size="14.00" fill="#000000">onset_mechanism    </text>
<text text-anchor="start" x="835.784" y="-846.9" font-family="Arial" font-size="14.00" fill="#666666">[TEXT]</text>
<polygon fill="none" stroke="#000000" points="681,-805.5 681,-835.5 954,-835.5 954,-805.5 681,-805.5"/>
<text text-anchor="start" x="688" y="-816.9" font-family="Arial" font-size="14.00" fill="#000000">onset_description    </text>
<text text-anchor="start" x="831.9032" y="-816.9" font-family="Arial" font-size="14.00" fill="#666666">[TEXT]</text>
<polygon fill="none" stroke="#000000" points="681,-775.5 681,-805.5 954,-805.5 954,-775.5 681,-775.5"/>
<text text-anchor="start" x="688" y="-786.9" font-family="Arial" font-size="14.00" fill="#000000">decline_mechanism    </text>
<text text-anchor="start" x="845.8892" y="-786.9" font-family="Arial" font-size="14.00" fill="#666666">[TEXT]</text>
<polygon fill="none" stroke="#000000" points="681,-745.5 681,-775.5 954,-775.5 954,-745.5 681,-745.5"/>
<text text-anchor="start" x="688" y="-756.9" font-family="Arial" font-size="14.00" fill="#000000">decline_description    </text>
<text text-anchor="start" x="842.0084" y="-756.9" font-family="Arial" font-size="14.00" fill="#666666">[TEXT]</text>
<polygon fill="none" stroke="#000000" points="681,-715.5 681,-745.5 954,-745.5 954,-715.5 681,-715.5"/>
<text text-anchor="start" x="688" y="-726.9" font-family="Arial" font-size="14.00" fill="#000000">onset_duration    </text>
<text text-anchor="start" x="814.7966" y="-726.9" font-family="Arial" font-size="14.00" fill="#666666">[TEXT]</text>
<polygon fill="none" stroke="#000000" points="681,-685.5 681,-715.5 954,-715.5 954,-685.5 681,-685.5"/>
<text text-anchor="start" x="687.587" y="-696.9" font-family="Arial" font-size="14.00" fill="#000000">decline_to_baseline_duration    </text>
<text text-anchor="start" x="903.8534" y="-696.9" font-family="Arial" font-size="14.00" fill="#666666">[TEXT]</text>
<polygon fill="none" stroke="#000000" points="681,-655.5 681,-685.5 954,-685.5 954,-655.5 681,-655.5"/>
<text text-anchor="start" x="688" y="-666.9" font-family="Arial" font-size="14.00" fill="#000000">decline_to_half_duration    </text>
<text text-anchor="start" x="874.7026" y="-666.9" font-family="Arial" font-size="14.00" fill="#666666">[TEXT]</text>
</g>
<!-- substance_tolerance&#45;&gt;substance -->
<g id="edge2" class="edge">
<title>substance_tolerance:substanceId&#45;&gt;substance:id</title>
<path fill="none" stroke="#000000" d="M964.1368,-938.4606C1020.7582,-913.4454 959.173,-665.801 1005,-613 1071.2363,-536.6838 1338.9484,-480.5 1440,-480.5"/>
<polygon fill="#000000" stroke="#000000" points="963.8036,-938.5276 953.1124,-936.0884 958.9018,-939.5138 954,-940.5 954,-940.5 954,-940.5 958.9018,-939.5138 954.8876,-944.9116 963.8036,-938.5276 963.8036,-938.5276"/>
<text text-anchor="start" x="960.6015" y="-950.5" font-family="Arial" font-size="10.00" fill="#000000">FOREIGN KEY (substanceId) REFERENCES substance (id) ON UPDATE CASCADE ON DELETE RESTRICT MATCH NONE</text>
</g>
<!-- psychoactive_class -->
<g id="node4" class="node">
<title>psychoactive_class</title>
<polygon fill="#efefef" stroke="transparent" points="1058,-895.5 1058,-930.5 1299,-930.5 1299,-895.5 1058,-895.5"/>
<polygon fill="none" stroke="#000000" points="1058,-895.5 1058,-930.5 1299,-930.5 1299,-895.5 1058,-895.5"/>
<text text-anchor="start" x="1064.8175" y="-908.3" font-family="Arial Bold" font-size="18.00" fill="#000000">psychoactive_class</text>
<text text-anchor="start" x="1219.8515" y="-908.3" font-family="Arial" font-size="14.00" fill="#000000">    </text>
<text text-anchor="start" x="1254.0563" y="-908.3" font-family="Arial" font-size="14.00" fill="#666666">[table]</text>
<polygon fill="none" stroke="#000000" points="1058,-865.5 1058,-895.5 1299,-895.5 1299,-865.5 1058,-865.5"/>
<text text-anchor="start" x="1065" y="-876.9" font-family="Arial" font-size="14.00" fill="#000000">id    </text>
<text text-anchor="start" x="1110.094" y="-876.9" font-family="Arial" font-size="14.00" fill="#666666">[TEXT]</text>
<polygon fill="none" stroke="#000000" points="1058,-835.5 1058,-865.5 1299,-865.5 1299,-835.5 1058,-835.5"/>
<text text-anchor="start" x="1065" y="-846.9" font-family="Arial" font-size="14.00" fill="#000000">name    </text>
<text text-anchor="start" x="1134.2132" y="-846.9" font-family="Arial" font-size="14.00" fill="#666666">[TEXT]</text>
<polygon fill="none" stroke="#000000" points="1058,-805.5 1058,-835.5 1299,-835.5 1299,-805.5 1058,-805.5"/>
<text text-anchor="start" x="1065" y="-816.9" font-family="Arial" font-size="14.00" fill="#000000">summary    </text>
<text text-anchor="start" x="1156.7518" y="-816.9" font-family="Arial" font-size="14.00" fill="#666666">[TEXT]</text>
<polygon fill="none" stroke="#000000" points="1058,-775.5 1058,-805.5 1299,-805.5 1299,-775.5 1058,-775.5"/>
<text text-anchor="start" x="1065" y="-786.9" font-family="Arial" font-size="14.00" fill="#000000">description    </text>
<text text-anchor="start" x="1166.8822" y="-786.9" font-family="Arial" font-size="14.00" fill="#666666">[TEXT]</text>
<polygon fill="none" stroke="#000000" points="1058,-745.5 1058,-775.5 1299,-775.5 1299,-745.5 1058,-745.5"/>
<text text-anchor="start" x="1065" y="-756.9" font-family="Arial" font-size="14.00" fill="#000000">substanceId    </text>
<text text-anchor="start" x="1174.6816" y="-756.9" font-family="Arial" font-size="14.00" fill="#666666">[TEXT]</text>
</g>
<!-- psychoactive_class&#45;&gt;substance -->
<g id="edge3" class="edge">
<title>psychoactive_class:substanceId&#45;&gt;substance:id</title>
<path fill="none" stroke="#000000" d="M1309.0115,-759.8027C1363.3717,-751.5483 1320.5491,-671.7358 1350,-613 1381.9087,-549.3625 1368.8108,-480.5 1440,-480.5"/>
<polygon fill="#000000" stroke="#000000" points="1308.9758,-759.8051 1298.6873,-756.0109 1303.9879,-760.1526 1299,-760.5 1299,-760.5 1299,-760.5 1303.9879,-760.1526 1299.3127,-764.9891 1308.9758,-759.8051 1308.9758,-759.8051"/>
<text text-anchor="start" x="1305.7065" y="-744.5" font-family="Arial" font-size="10.00" fill="#000000">FOREIGN KEY (substanceId) REFERENCES substance (id) ON UPDATE CASCADE ON DELETE SET NULL MATCH NONE</text>
</g>
<!-- SubstanceInteraction -->
<g id="node5" class="node">
<title>SubstanceInteraction</title>
<polygon fill="#efefef" stroke="transparent" points="1403,-850.5 1403,-885.5 1658,-885.5 1658,-850.5 1403,-850.5"/>
<polygon fill="none" stroke="#000000" points="1403,-850.5 1403,-885.5 1658,-885.5 1658,-850.5 1403,-850.5"/>
<text text-anchor="start" x="1409.8038" y="-863.3" font-family="Arial Bold" font-size="18.00" fill="#000000">SubstanceInteraction</text>
<text text-anchor="start" x="1578.8652" y="-863.3" font-family="Arial" font-size="14.00" fill="#000000">    </text>
<text text-anchor="start" x="1613.07" y="-863.3" font-family="Arial" font-size="14.00" fill="#666666">[table]</text>
<polygon fill="none" stroke="#000000" points="1403,-820.5 1403,-850.5 1658,-850.5 1658,-820.5 1403,-820.5"/>
<text text-anchor="start" x="1410" y="-831.9" font-family="Arial" font-size="14.00" fill="#000000">id    </text>
<text text-anchor="start" x="1455.094" y="-831.9" font-family="Arial" font-size="14.00" fill="#666666">[TEXT]</text>
<polygon fill="none" stroke="#000000" points="1403,-790.5 1403,-820.5 1658,-820.5 1658,-790.5 1403,-790.5"/>
<text text-anchor="start" x="1410" y="-801.9" font-family="Arial" font-size="14.00" fill="#000000">substanceId    </text>
<text text-anchor="start" x="1519.6816" y="-801.9" font-family="Arial" font-size="14.00" fill="#666666">[TEXT]</text>
</g>
<!-- SubstanceInteraction&#45;&gt;substance -->
<g id="edge4" class="edge">
<title>SubstanceInteraction:substanceId&#45;&gt;substance:id</title>
<path fill="none" stroke="#000000" d="M1530.6213,-780.3686C1520.2113,-639.1997 1299.7741,-480.5 1440,-480.5"/>
<polygon fill="#000000" stroke="#000000" points="1530.6264,-780.507 1526.5031,-790.6681 1530.8132,-785.5035 1531,-790.5 1531,-790.5 1531,-790.5 1530.8132,-785.5035 1535.4969,-790.3319 1530.6264,-780.507 1530.6264,-780.507"/>
<text text-anchor="start" x="1537.7065" y="-800.5" font-family="Arial" font-size="10.00" fill="#000000">FOREIGN KEY (substanceId) REFERENCES substance (id) ON UPDATE CASCADE ON DELETE SET NULL MATCH NONE</text>
</g>
<!-- substance_route_of_administration -->
<g id="node6" class="node">
<title>substance_route_of_administration</title>
<polygon fill="#efefef" stroke="transparent" points="1762,-865.5 1762,-900.5 2128,-900.5 2128,-865.5 1762,-865.5"/>
<polygon fill="none" stroke="#000000" points="1762,-865.5 1762,-900.5 2128,-900.5 2128,-865.5 1762,-865.5"/>
<text text-anchor="start" x="1768.7936" y="-878.3" font-family="Arial Bold" font-size="18.00" fill="#000000">substance_route_of_administration</text>
<text text-anchor="start" x="2048.8754" y="-878.3" font-family="Arial" font-size="14.00" fill="#000000">    </text>
<text text-anchor="start" x="2083.0802" y="-878.3" font-family="Arial" font-size="14.00" fill="#666666">[table]</text>
<polygon fill="none" stroke="#000000" points="1762,-835.5 1762,-865.5 2128,-865.5 2128,-835.5 1762,-835.5"/>
<text text-anchor="start" x="1769" y="-846.9" font-family="Arial" font-size="14.00" fill="#000000">id    </text>
<text text-anchor="start" x="1814.094" y="-846.9" font-family="Arial" font-size="14.00" fill="#666666">[TEXT]</text>
<polygon fill="none" stroke="#000000" points="1762,-805.5 1762,-835.5 2128,-835.5 2128,-805.5 1762,-805.5"/>
<text text-anchor="start" x="1769" y="-816.9" font-family="Arial" font-size="14.00" fill="#000000">substanceName    </text>
<text text-anchor="start" x="1904.3408" y="-816.9" font-family="Arial" font-size="14.00" fill="#666666">[TEXT]</text>
<polygon fill="none" stroke="#000000" points="1762,-775.5 1762,-805.5 2128,-805.5 2128,-775.5 1762,-775.5"/>
<text text-anchor="start" x="1769" y="-786.9" font-family="Arial" font-size="14.00" fill="#000000">name    </text>
<text text-anchor="start" x="1838.2132" y="-786.9" font-family="Arial" font-size="14.00" fill="#666666">[TEXT]</text>
</g>
<!-- substance_route_of_administration&#45;&gt;substance -->
<g id="edge5" class="edge">
<title>substance_route_of_administration:substanceName&#45;&gt;substance:name</title>
<path fill="none" stroke="#000000" d="M1751.6317,-819.9646C1672.8127,-811.2578 1743.1168,-698.1467 1710,-613 1680.2281,-536.4535 1704.1324,-450.5 1622,-450.5"/>
<polygon fill="#000000" stroke="#000000" points="1752.0133,-819.9843 1761.7679,-824.994 1757.0067,-820.2421 1762,-820.5 1762,-820.5 1762,-820.5 1757.0067,-820.2421 1762.2321,-816.006 1752.0133,-819.9843 1752.0133,-819.9843"/>
<text text-anchor="start" x="1768.8235" y="-830.5" font-family="Arial" font-size="10.00" fill="#000000">FOREIGN KEY (substanceName) REFERENCES substance (name) ON UPDATE CASCADE ON DELETE RESTRICT MATCH NONE</text>
</g>
<!-- Ingestion -->
<g id="node7" class="node">
<title>Ingestion</title>
<polygon fill="#efefef" stroke="transparent" points="2232,-955.5 2232,-990.5 2476,-990.5 2476,-955.5 2232,-955.5"/>
<polygon fill="none" stroke="#000000" points="2232,-955.5 2232,-990.5 2476,-990.5 2476,-955.5 2232,-955.5"/>
<text text-anchor="start" x="2281.3197" y="-968.3" font-family="Arial Bold" font-size="18.00" fill="#000000">Ingestion</text>
<text text-anchor="start" x="2354.3493" y="-968.3" font-family="Arial" font-size="14.00" fill="#000000">    </text>
<text text-anchor="start" x="2388.5541" y="-968.3" font-family="Arial" font-size="14.00" fill="#666666">[table]</text>
<polygon fill="none" stroke="#000000" points="2232,-925.5 2232,-955.5 2476,-955.5 2476,-925.5 2232,-925.5"/>
<text text-anchor="start" x="2239" y="-936.9" font-family="Arial" font-size="14.00" fill="#000000">id    </text>
<text text-anchor="start" x="2284.094" y="-936.9" font-family="Arial" font-size="14.00" fill="#666666">[TEXT]</text>
<polygon fill="none" stroke="#000000" points="2232,-895.5 2232,-925.5 2476,-925.5 2476,-895.5 2232,-895.5"/>
<text text-anchor="start" x="2239" y="-906.9" font-family="Arial" font-size="14.00" fill="#000000">substanceName    </text>
<text text-anchor="start" x="2374.3408" y="-906.9" font-family="Arial" font-size="14.00" fill="#666666">[TEXT]</text>
<polygon fill="none" stroke="#000000" points="2232,-865.5 2232,-895.5 2476,-895.5 2476,-865.5 2232,-865.5"/>
<text text-anchor="start" x="2239" y="-876.9" font-family="Arial" font-size="14.00" fill="#000000">routeOfAdministration    </text>
<text text-anchor="start" x="2408.5568" y="-876.9" font-family="Arial" font-size="14.00" fill="#666666">[TEXT]</text>
<polygon fill="none" stroke="#000000" points="2232,-835.5 2232,-865.5 2476,-865.5 2476,-835.5 2232,-835.5"/>
<text text-anchor="start" x="2239" y="-846.9" font-family="Arial" font-size="14.00" fill="#000000">dosage_unit    </text>
<text text-anchor="start" x="2349.4628" y="-846.9" font-family="Arial" font-size="14.00" fill="#666666">[TEXT]</text>
<polygon fill="none" stroke="#000000" points="2232,-805.5 2232,-835.5 2476,-835.5 2476,-805.5 2232,-805.5"/>
<text text-anchor="start" x="2239" y="-816.9" font-family="Arial" font-size="14.00" fill="#000000">dosage_amount    </text>
<text text-anchor="start" x="2373.582" y="-816.9" font-family="Arial" font-size="14.00" fill="#666666">[INTEGER]</text>
<polygon fill="none" stroke="#000000" points="2232,-775.5 2232,-805.5 2476,-805.5 2476,-775.5 2232,-775.5"/>
<text text-anchor="start" x="2238.8787" y="-786.9" font-family="Arial" font-size="14.00" fill="#000000">isEstimatedDosage    </text>
<text text-anchor="start" x="2393.6599" y="-786.9" font-family="Arial" font-size="14.00" fill="#666666">[BOOLEAN]</text>
<polygon fill="none" stroke="#000000" points="2232,-745.5 2232,-775.5 2476,-775.5 2476,-745.5 2232,-745.5"/>
<text text-anchor="start" x="2239" y="-756.9" font-family="Arial" font-size="14.00" fill="#000000">date    </text>
<text text-anchor="start" x="2300.4432" y="-756.9" font-family="Arial" font-size="14.00" fill="#666666">[DATETIME]</text>
<polygon fill="none" stroke="#000000" points="2232,-715.5 2232,-745.5 2476,-745.5 2476,-715.5 2232,-715.5"/>
<text text-anchor="start" x="2239" y="-726.9" font-family="Arial" font-size="14.00" fill="#000000">subject_id    </text>
<text text-anchor="start" x="2336.2216" y="-726.9" font-family="Arial" font-size="14.00" fill="#666666">[TEXT]</text>
<polygon fill="none" stroke="#000000" points="2232,-685.5 2232,-715.5 2476,-715.5 2476,-685.5 2232,-685.5"/>
<text text-anchor="start" x="2239" y="-696.9" font-family="Arial" font-size="14.00" fill="#000000">stashId    </text>
<text text-anchor="start" x="2318.3338" y="-696.9" font-family="Arial" font-size="14.00" fill="#666666">[TEXT]</text>
</g>
<!-- Ingestion&#45;&gt;substance -->
<g id="edge6" class="edge">
<title>Ingestion:substanceName&#45;&gt;substance:name</title>
<path fill="none" stroke="#000000" d="M2222.0907,-908.3522C2171.1231,-884.0205 2222.3191,-660.2665 2180,-613 2093.8511,-516.7796 1751.1511,-450.5 1622,-450.5"/>
<polygon fill="#000000" stroke="#000000" points="2222.2269,-908.3816 2231.0467,-914.8979 2227.1135,-909.4408 2232,-910.5 2232,-910.5 2232,-910.5 2227.1135,-909.4408 2232.9533,-906.1021 2222.2269,-908.3816 2222.2269,-908.3816"/>
<text text-anchor="start" x="2238.9285" y="-920.5" font-family="Arial" font-size="10.00" fill="#000000">FOREIGN KEY (substanceName) REFERENCES substance (name) ON UPDATE CASCADE ON DELETE SET NULL MATCH NONE</text>
</g>
<!-- Stash -->
<g id="node8" class="node">
<title>Stash</title>
<polygon fill="#efefef" stroke="transparent" points="2581,-970.5 2581,-1005.5 2776,-1005.5 2776,-970.5 2581,-970.5"/>
<polygon fill="none" stroke="#000000" points="2581,-970.5 2581,-1005.5 2776,-1005.5 2776,-970.5 2581,-970.5"/>
<text text-anchor="start" x="2619.3251" y="-983.3" font-family="Arial Bold" font-size="18.00" fill="#000000">Stash</text>
<text text-anchor="start" x="2665.3439" y="-983.3" font-family="Arial" font-size="14.00" fill="#000000">    </text>
<text text-anchor="start" x="2699.5487" y="-983.3" font-family="Arial" font-size="14.00" fill="#666666">[table]</text>
<polygon fill="none" stroke="#000000" points="2581,-940.5 2581,-970.5 2776,-970.5 2776,-940.5 2581,-940.5"/>
<text text-anchor="start" x="2588" y="-951.9" font-family="Arial" font-size="14.00" fill="#000000">id    </text>
<text text-anchor="start" x="2633.094" y="-951.9" font-family="Arial" font-size="14.00" fill="#666666">[TEXT]</text>
<polygon fill="none" stroke="#000000" points="2581,-910.5 2581,-940.5 2776,-940.5 2776,-910.5 2581,-910.5"/>
<text text-anchor="start" x="2588" y="-921.9" font-family="Arial" font-size="14.00" fill="#000000">owner_id    </text>
<text text-anchor="start" x="2678.9916" y="-921.9" font-family="Arial" font-size="14.00" fill="#666666">[TEXT]</text>
<polygon fill="none" stroke="#000000" points="2581,-880.5 2581,-910.5 2776,-910.5 2776,-880.5 2581,-880.5"/>
<text text-anchor="start" x="2588" y="-891.9" font-family="Arial" font-size="14.00" fill="#000000">substance_id    </text>
<text text-anchor="start" x="2704.6802" y="-891.9" font-family="Arial" font-size="14.00" fill="#666666">[TEXT]</text>
<polygon fill="none" stroke="#000000" points="2581,-850.5 2581,-880.5 2776,-880.5 2776,-850.5 2581,-850.5"/>
<text text-anchor="start" x="2587.8829" y="-861.9" font-family="Arial" font-size="14.00" fill="#000000">addedDate    </text>
<text text-anchor="start" x="2690.5631" y="-861.9" font-family="Arial" font-size="14.00" fill="#666666">[DATETIME]</text>
<polygon fill="none" stroke="#000000" points="2581,-820.5 2581,-850.5 2776,-850.5 2776,-820.5 2581,-820.5"/>
<text text-anchor="start" x="2588" y="-831.9" font-family="Arial" font-size="14.00" fill="#000000">expiration    </text>
<text text-anchor="start" x="2682.8822" y="-831.9" font-family="Arial" font-size="14.00" fill="#666666">[DATETIME]</text>
<polygon fill="none" stroke="#000000" points="2581,-790.5 2581,-820.5 2776,-820.5 2776,-790.5 2581,-790.5"/>
<text text-anchor="start" x="2588" y="-801.9" font-family="Arial" font-size="14.00" fill="#000000">amount    </text>
<text text-anchor="start" x="2668.8864" y="-801.9" font-family="Arial" font-size="14.00" fill="#666666">[INTEGER]</text>
<polygon fill="none" stroke="#000000" points="2581,-760.5 2581,-790.5 2776,-790.5 2776,-760.5 2581,-760.5"/>
<text text-anchor="start" x="2588" y="-771.9" font-family="Arial" font-size="14.00" fill="#000000">price    </text>
<text text-anchor="start" x="2652.5372" y="-771.9" font-family="Arial" font-size="14.00" fill="#666666">[TEXT]</text>
<polygon fill="none" stroke="#000000" points="2581,-730.5 2581,-760.5 2776,-760.5 2776,-730.5 2581,-730.5"/>
<text text-anchor="start" x="2588" y="-741.9" font-family="Arial" font-size="14.00" fill="#000000">vendor    </text>
<text text-anchor="start" x="2664.9958" y="-741.9" font-family="Arial" font-size="14.00" fill="#666666">[TEXT]</text>
<polygon fill="none" stroke="#000000" points="2581,-700.5 2581,-730.5 2776,-730.5 2776,-700.5 2581,-700.5"/>
<text text-anchor="start" x="2588" y="-711.9" font-family="Arial" font-size="14.00" fill="#000000">description    </text>
<text text-anchor="start" x="2689.8822" y="-711.9" font-family="Arial" font-size="14.00" fill="#666666">[TEXT]</text>
<polygon fill="none" stroke="#000000" points="2581,-670.5 2581,-700.5 2776,-700.5 2776,-670.5 2581,-670.5"/>
<text text-anchor="start" x="2588" y="-681.9" font-family="Arial" font-size="14.00" fill="#000000">purity    </text>
<text text-anchor="start" x="2656.4278" y="-681.9" font-family="Arial" font-size="14.00" fill="#666666">[INTEGER]</text>
</g>
<!-- Stash&#45;&gt;substance -->
<g id="edge7" class="edge">
<title>Stash:substance_id&#45;&gt;substance:name</title>
<path fill="none" stroke="#000000" d="M2570.8395,-895.0434C2462.4189,-884.6772 2616.1215,-700.4209 2528,-613 2382.7879,-468.9424 1826.5461,-450.5 1622,-450.5"/>
<polygon fill="#000000" stroke="#000000" points="2571.0101,-895.051 2580.798,-899.9955 2576.005,-895.2755 2581,-895.5 2581,-895.5 2581,-895.5 2576.005,-895.2755 2581.202,-891.0045 2571.0101,-895.051 2571.0101,-895.051"/>
<text text-anchor="start" x="2588.488" y="-879.5" font-family="Arial" font-size="10.00" fill="#000000">FOREIGN KEY (substance_id) REFERENCES substance (name) ON UPDATE CASCADE ON DELETE RESTRICT MATCH NONE</text>
</g>
</g>
</svg>
